<?xml version="1.0" standalone="no"?>
<!DOCTYPE svg PUBLIC "-//W3C//DTD SVG 1.1//EN" "http://www.w3.org/Graphics/SVG/1.1/DTD/svg11.dtd" >
<svg xmlns="http://www.w3.org/2000/svg" xmlns:xlink="http://www.w3.org/1999/xlink" version="1.1">
<metadata></metadata>
<defs>
<font id="cs_prakasfdregular" horiz-adv-x="0" >
<font-face units-per-em="2048" ascent="1638" descent="-410" />
<missing-glyph horiz-adv-x="670" />
<glyph unicode=" "  horiz-adv-x="670" />
<glyph unicode="&#x09;" horiz-adv-x="670" />
<glyph unicode="&#xa0;" horiz-adv-x="670" />
<glyph unicode="!" horiz-adv-x="770" d="M482 1465v-52l-46 -1037h-97l-47 1037v52h190zM385 192q42 0 74.5 -30.5t32.5 -68.5t-31.5 -67.5t-75.5 -29.5q-43 0 -74.5 29.5t-31.5 67.5t31.5 68.5t74.5 30.5z" />
<glyph unicode="&#x22;" horiz-adv-x="776" d="M665 1590v-80l-38 -438h-98l-43 438v80h179zM294 1590v-80l-41 -438h-97l-44 438v80h182z" />
<glyph unicode="#" horiz-adv-x="1431" d="M1246 478h-311l-118 -478h-126l117 478h-315l-117 -478h-127l120 478h-183v114h209l83 333h-292v112h319l113 458h125l-114 -458h319l111 458h127l-114 -458h174v-112h-202l-81 -333h283v-114zM521 592h317l82 333h-317z" />
<glyph unicode="$" horiz-adv-x="1334" d="M605 153v586q-55 21 -90 34.5t-84 36t-80 42t-66 47t-54.5 56t-32 65t-12.5 77.5q1 90 37 161.5t96.5 116.5t132.5 71t153 34v168h121v-168q82 -7 152.5 -31t129.5 -67.5t96.5 -113.5t44.5 -160h-157q-5 53 -31.5 96.5t-66 72t-82 46t-86.5 25.5v-516q72 -29 124.5 -54 t111.5 -63t96 -78.5t62.5 -96.5t26.5 -121q1 -195 -105 -290t-316 -107v-201h-121v203q-84 6 -151.5 28.5t-109.5 51.5t-73 69.5t-45.5 74t-23 73.5t-9.5 59t-1 39l154 2q0 -106 64 -178.5t195 -89.5zM726 693v-540q140 11 209 79.5t67 190.5q-1 91 -74 154.5t-202 115.5z M605 881v467q-117 -17 -196.5 -88t-78.5 -165q1 -28 16 -54t37 -45.5t61.5 -41t73.5 -37t87 -36.5z" />
<glyph unicode="%" horiz-adv-x="1612" d="M1179 1493h150l-882 -1495h-153zM1188 640q135 0 214.5 -90t79.5 -217q0 -143 -76 -224t-218 -81q-139 0 -214 81t-75 224q0 140 75 223.5t214 83.5zM1188 117q84 0 133 59.5t49 156.5q0 99 -52 157.5t-130 58.5q-79 0 -129 -57t-50 -159q0 -101 51 -158.5t128 -57.5z M423 1469q134 0 212 -90t78 -217q0 -144 -74.5 -225t-215.5 -81q-142 0 -217.5 82t-75.5 224q0 138 76.5 222.5t216.5 84.5zM423 946q83 0 131.5 59.5t48.5 156.5q0 99 -51.5 157.5t-128.5 58.5q-79 0 -130 -57t-51 -159t51 -159t130 -57z" />
<glyph unicode="&#x26;" horiz-adv-x="1668" d="M1538 2h-227q-150 150 -194 203q-193 -224 -458 -224q-124 0 -232 54t-174.5 152t-66.5 217q0 271 395 458q-102 109 -147 185t-45 150q0 73 32 135t84 102t115.5 62.5t129.5 22.5q139 0 240 -88t101 -219q0 -212 -315 -374l326 -400q114 177 117 430h159 q11 -294 -179 -542q50 -63 159 -167t180 -157zM706 927q68 32 113.5 66t68 70.5t31 70.5t8.5 78q0 86 -50.5 136t-133.5 50q-86 0 -140 -48t-54 -132q0 -69 40 -138t117 -153zM1024 318l-376 457q-302 -175 -302 -360q0 -126 95 -218.5t222 -92.5q95 0 196 59.5t165 154.5z " />
<glyph unicode="'" horiz-adv-x="405" d="M290 1590v-80l-37 -438h-98l-43 438v80h178z" />
<glyph unicode="(" horiz-adv-x="744" d="M627 -231h-121q-167 198 -252.5 435.5t-85.5 488.5q0 254 86 494t252 435h121q-279 -443 -279 -926q0 -480 279 -927z" />
<glyph unicode=")" horiz-adv-x="744" d="M238 -235h-121q280 446 280 928q0 481 -280 925h121q165 -195 252 -435.5t87 -493.5q0 -251 -86 -489.5t-253 -434.5z" />
<glyph unicode="*" horiz-adv-x="934" d="M203 1061l168 214l-259 84l41 119l253 -85l-4 273h129l-4 -273l255 85l41 -119l-259 -84l166 -216l-103 -76l-160 220l-162 -220z" />
<glyph unicode="+" horiz-adv-x="1420" d="M1234 884v-156h-445v-445h-160v445h-443v156h443v443h160v-443h445z" />
<glyph unicode="," horiz-adv-x="558" d="M372 197v-195q0 -128 -41.5 -199t-121.5 -112l-23 41q69 44 87.5 101t18.5 169h-100v195h180z" />
<glyph unicode="-" horiz-adv-x="986" d="M801 668v-158h-615v158h615z" />
<glyph unicode="." horiz-adv-x="465" d="M235 220q40 0 72 -32.5t32 -75.5q0 -42 -30 -74t-74 -32t-76 32.5t-32 73.5q0 44 31.5 76t76.5 32z" />
<glyph unicode="/" horiz-adv-x="638" d="M493 1493h127l-475 -1495h-126z" />
<glyph unicode="0" horiz-adv-x="1381" d="M691 1512q255 0 398.5 -202t143.5 -563t-143.5 -563.5t-398.5 -202.5t-398.5 202.5t-143.5 563.5t143.5 563t398.5 202zM691 114q184 0 279 166.5t95 466.5t-95 466.5t-279 166.5q-185 0 -280.5 -166.5t-95.5 -466.5t95.5 -466.5t280.5 -166.5z" />
<glyph unicode="1" horiz-adv-x="1089" d="M542 1290l-10 4q-141 -108 -290 -186v160q60 31 144 91.5t154 129.5h177v-1489h-175v1290z" />
<glyph unicode="2" horiz-adv-x="1360" d="M1188 138v-138h-1020q0 24 0.5 70t0.5 70q0 35 15 70.5t48 74t63.5 69t87.5 75t92.5 70t103.5 74.5q206 148 285 219q171 156 171 286q0 84 -27 145.5t-75 97t-108 52t-134 16.5q-75 0 -134 -15.5t-106.5 -49.5t-74.5 -94.5t-30 -145.5h-164q7 200 145 318.5t364 118.5 q225 0 363.5 -119t138.5 -324q0 -38 -12 -78.5t-28 -75t-48.5 -76t-57.5 -71t-73 -72t-76 -67t-85 -68t-82.5 -62t-84.5 -61.5q-78 -57 -119.5 -88.5t-93 -75.5t-77 -78.5t-32.5 -66.5h864z" />
<glyph unicode="3" horiz-adv-x="1297" d="M318 1162l-165 -2q3 155 129.5 250.5t313.5 95.5q126 0 229.5 -43.5t167 -130t63.5 -200.5q0 -100 -81 -187.5t-195 -132.5q152 -48 251 -150t99 -234q0 -125 -71 -228t-193.5 -161t-269.5 -58q-176 0 -308 87t-158 221h175q16 -78 98 -127.5t193 -49.5q159 0 264.5 88.5 t105.5 222.5q0 137 -106 232t-264 95h-62v121h62q119 0 205.5 77.5t86.5 183.5q0 118 -82.5 180t-209.5 62q-122 0 -198.5 -56t-79.5 -156z" />
<glyph unicode="4" horiz-adv-x="1318" d="M1206 432v-136h-195v-296h-175v296h-724v142q633 875 759 1051h140v-1057h195zM283 432h553v801z" />
<glyph unicode="5" horiz-adv-x="1320" d="M404 1354l-45 -445q151 80 306 80q219 0 353 -143.5t134 -361.5t-139.5 -360.5t-360.5 -142.5h-38q-176 0 -307.5 87.5t-157.5 221.5h175q16 -78 97.5 -127t192.5 -49h39q161 0 248.5 102.5t87.5 267.5t-87.5 268.5t-248.5 103.5q-74 0 -162.5 -17.5t-134.5 -37.5 q-114 13 -159 16l71 674h814v-137h-678z" />
<glyph unicode="6" horiz-adv-x="1342" d="M1028 484q0 165 -87 268.5t-248 103.5q-162 0 -249.5 -103.5t-87.5 -268.5t87.5 -267.5t249.5 -102.5q161 0 248 102.5t87 267.5zM317 806l11 -5q62 93 162.5 140.5t213.5 47.5q221 0 355 -143.5t134 -361.5t-139.5 -360.5t-360.5 -142.5q-255 0 -399.5 202.5 t-144.5 563.5q0 350 149.5 556.5t394.5 208.5q169 -3 299.5 -97.5t171.5 -239.5h-168q-28 93 -108.5 149t-194.5 56q-176 0 -272 -151t-104 -423z" />
<glyph unicode="7" horiz-adv-x="1228" d="M1117 1348l-668 -1346h-166l670 1348h-841v136h1005v-138z" />
<glyph unicode="8" horiz-adv-x="1366" d="M883 812q147 -49 241 -145t94 -228q0 -124 -71.5 -229.5t-194.5 -167t-269 -61.5q-224 0 -379 134t-155 324q0 132 92.5 228.5t244.5 144.5q-111 46 -179.5 126t-68.5 181q0 161 129.5 274t315.5 113q185 0 315 -113.5t130 -273.5q0 -99 -68 -177t-177 -130zM406 1121 q0 -106 78.5 -178t198.5 -72q119 0 198.5 72t79.5 178q0 105 -79.5 179t-198.5 74q-120 0 -198.5 -74t-78.5 -179zM683 112q156 0 262.5 94.5t106.5 229.5q0 134 -105.5 224t-263.5 90q-159 0 -263.5 -89.5t-104.5 -224.5q0 -136 105.5 -230t262.5 -94z" />
<glyph unicode="9" horiz-adv-x="1342" d="M315 1009q0 -166 86.5 -269t248.5 -103t248.5 103t86.5 269t-86.5 268.5t-248.5 102.5t-248.5 -102.5t-86.5 -268.5zM1026 689l-11 4q-63 -94 -163 -141t-213 -47q-221 0 -355.5 143t-134.5 361q0 216 140 359.5t361 143.5q254 0 398.5 -202.5t144.5 -562.5 q0 -348 -149 -552t-394 -214q-174 3 -304.5 96.5t-168.5 240.5h167q28 -92 110 -148t196 -56q176 0 272 151.5t104 423.5z" />
<glyph unicode=":" horiz-adv-x="744" d="M465 188v-188h-186v188h186zM465 1171v-188h-186v188h186z" />
<glyph unicode=";" horiz-adv-x="741" d="M460 195v-193q0 -128 -41 -199t-119 -112l-19 41q65 44 83 101.5t18 168.5h-101v193h179zM462 1167v-184h-183v184h183z" />
<glyph unicode="&#x3c;" horiz-adv-x="1321" d="M1188 1173v-168l-670 -298v-27l670 -298v-168l-1054 471z" />
<glyph unicode="=" horiz-adv-x="1433" d="M1247 1143v-166h-1061v166h1061zM1247 631v-160h-1061v160h1061z" />
<glyph unicode="&#x3e;" horiz-adv-x="1321" d="M134 1005v168l1054 -488l-1054 -471v168l670 298v27z" />
<glyph unicode="?" horiz-adv-x="1239" d="M588 210q-43 0 -75.5 -33t-32.5 -75t32.5 -74t75.5 -32t74 32t31 74t-31.5 75t-73.5 33zM1091 1227q3 -69 -19 -128.5t-59 -105t-82.5 -89t-92 -91.5t-84.5 -102t-62 -131.5t-24 -168.5h-171q0 104 23 188.5t60.5 140.5t82 103t89.5 87t82.5 80.5t60.5 95.5t23 121 q0 89 -28.5 152t-78.5 96t-106 47t-124 14q-48 0 -92 -13t-83 -39.5t-60.5 -74.5t-17.5 -111h-179q14 172 132 272t300 100q149 0 262.5 -49t180.5 -150.5t67 -243.5z" />
<glyph unicode="@" horiz-adv-x="2444" d="M1227 1097q-156 0 -271.5 -137.5t-158.5 -359.5q-44 -223 26.5 -352t215.5 -129q149 0 270 129.5t167 358.5q31 159 5.5 268t-91.5 165.5t-163 56.5zM1694 -292v-159q-200 -70 -424 -70q-520 3 -825 288q-296 322 -296 844q0 442 315 757t757 315q443 13 758 -288 q317 -303 317 -784q-39 -466 -345 -620q-303 -152 -543 43q-35 47 -38 121h-18q-174 -170 -362 -170q-136 0 -231 86t-128.5 226.5t-3.5 302.5q56 293 218 460t397 167q185 0 300 -190l20 112h168l-185 -959q-9 -50 13 -76q145 -90 347 14t238 483q0 397 -272 666t-652 255 q-381 0 -651 -270t-270 -651q0 -459 253 -734q277 -256 715 -246q241 3 428 77z" />
<glyph unicode="A" horiz-adv-x="1591" d="M910 1488l626 -1488h-203l-197 462h-680l-195 -460h-205l625 1486h229zM518 611h554l-268 692h-18z" />
<glyph unicode="B" horiz-adv-x="1478" d="M925 761q2 -1 36.5 -3.5t77.5 -8t95.5 -28.5t94.5 -58t71 -103.5t29 -159.5q0 -66 -19 -121.5t-48.5 -94.5t-74 -70t-84.5 -49.5t-92 -32.5t-85 -19.5t-75.5 -9t-51.5 -3.5h-23h-590v1491h564h23t50.5 -3.5t74 -9t84 -19t90 -31.5t82.5 -48t72 -67.5t47.5 -91.5 t18.5 -117q0 -67 -26 -123t-64.5 -90t-86 -61t-86 -39t-70.5 -20.5t-34 -9.5zM372 1346v-508h283h8q26 -1 47.5 -0.5t70.5 5t87.5 13.5t86 28.5t78.5 47t53 72t22 100.5q0 52 -22.5 93.5t-59 66t-80 42.5t-87 25.5t-80 11t-59.5 3.5h-22h-326zM696 145q95 0 148 8 q232 33 279 178q11 33 11 73q0 60 -22 108.5t-52.5 78t-80 51t-86.5 31t-91 15t-75 5.5h-56h-12h-287v-548h324z" />
<glyph unicode="C" horiz-adv-x="1634" d="M1298 385h206q-35 -200 -202 -303.5t-433 -103.5q-180 0 -322 60t-232.5 166.5t-137.5 249.5t-47 313q0 124 30 235.5t91 205.5t148 162.5t207.5 107t262.5 38.5q273 0 445 -115t187 -304h-201q-23 139 -125.5 205t-308.5 66q-104 0 -192 -31t-149.5 -86t-105 -130.5 t-64 -163t-20.5 -184.5q0 -104 15 -194t53.5 -175t98 -144.5t154.5 -95.5t217 -36q188 0 297 60t128 197z" />
<glyph unicode="D" horiz-adv-x="1604" d="M670 1491q183 0 330.5 -53t247.5 -150t154 -234.5t54 -305.5q0 -153 -55.5 -289t-155.5 -238t-249 -161.5t-326 -59.5h-484v1491h484zM674 147q130 0 240.5 48t183.5 130t114 190.5t41 229.5q0 128 -33 233t-101 188t-183 129t-268 46h-301q0 7 0 -121.5t-0.5 -300 t-0.5 -349.5v-300.5t1 -122.5h307z" />
<glyph unicode="E" horiz-adv-x="1409" d="M1156 693h-784v-548h963v-145h-1149v1491h1095v-143h-909v-510h784v-145z" />
<glyph unicode="F" horiz-adv-x="1301" d="M1024 838v-145h-652v-693h-186v1491h1041v-145h-855v-508h652z" />
<glyph unicode="G" horiz-adv-x="1709" d="M1560 663v-445q-125 -139 -277.5 -189.5t-373.5 -50.5q-180 0 -325.5 60t-240 166.5t-144.5 250t-50 312.5q0 154 51.5 290t146.5 238t240 161.5t322 59.5q281 0 444 -100.5t207 -318.5h-208q-15 144 -124 207.5t-323 63.5q-130 0 -236 -48t-174 -130t-104.5 -189 t-36.5 -228q0 -103 17 -194t58.5 -175t104 -144t159.5 -96t219 -36q65 0 108 3t104.5 13t119 35.5t113.5 66.5v270h-450v147h653z" />
<glyph unicode="H" horiz-adv-x="1601" d="M1415 1491v-1491h-188v693h-853v-693h-188v1491h188v-653h853v653h188z" />
<glyph unicode="I" horiz-adv-x="560" d="M186 0v1491h188v-1491h-188z" />
<glyph unicode="J" horiz-adv-x="1104" d="M732 1491h186v-1098q0 -9 -1 -23.5t-9.5 -57.5t-22.5 -82t-45 -86.5t-73 -81.5t-110 -57.5t-152 -23.5q-66 0 -122.5 12t-95.5 32t-71 46.5t-52 55.5t-34.5 57.5t-21 55t-10.5 46.5t-4 32l-1 12h186q2 -1 0 -11.5t3 -29t10.5 -39.5t22.5 -43t39 -40t60.5 -29t86.5 -11 t86.5 14.5t62 38t41 51.5t25 56t11.5 51.5t5 37.5v15v1100z" />
<glyph unicode="K" horiz-adv-x="1398" d="M374 1491v-664l704 664h220l-726 -690l789 -801h-218l-769 780v-780h-188v1491h188z" />
<glyph unicode="L" horiz-adv-x="1197" d="M372 1491v-1348h751v-143h-937v1491h186z" />
<glyph unicode="M" horiz-adv-x="1878" d="M1692 1491v-1491h-188v1303h-16l-457 -1230h-186l-456 1230h-17v-1303h-186v1491h289l458 -1245h11l458 1245h290z" />
<glyph unicode="N" horiz-adv-x="1599" d="M1218 190h7v1299h188v-1489h-251l-777 1307h-13v-1307h-186v1489h257z" />
<glyph unicode="O" horiz-adv-x="1737" d="M879 1521q141 0 260 -40.5t204 -112t145.5 -169t89.5 -212t29 -239.5q0 -164 -50 -304.5t-142 -243t-230 -161t-306 -58.5q-171 0 -310.5 59.5t-230.5 162.5t-140 238.5t-49 290.5q0 169 48 312.5t139 250t230.5 166.5t312.5 60zM877 121q109 0 199.5 31t154.5 87 t107 134t61 173t12 202q-2 132 -33.5 242.5t-93 199t-164.5 138.5t-239 50q-117 0 -210.5 -36.5t-154 -97.5t-100 -146t-56.5 -177t-17 -195q0 -121 35.5 -229.5t101.5 -192.5t169 -133.5t228 -49.5z" />
<glyph unicode="P" horiz-adv-x="1400" d="M653 592h-281v-592h-186v1491h602q8 0 32 -2.5t72.5 -13t98 -27.5t104.5 -50.5t96.5 -77.5t69 -112.5t27.5 -151.5q0 -80 -27.5 -147.5t-70 -113.5t-102.5 -82t-117.5 -57t-122 -36t-109.5 -20.5t-86 -7.5zM707 1344h-335v-605h209q41 0 70.5 1t87 7t99.5 17t93.5 34 t84 54.5t55 82t22.5 113.5q0 59 -21.5 107t-53.5 78t-75 52.5t-80.5 33t-76.5 17t-55 7.5t-24 1z" />
<glyph unicode="Q" horiz-adv-x="1778" d="M935 -24q-19 -2 -56 -2q-171 0 -310.5 59.5t-230.5 162t-140 238t-49 290.5q0 169 48 313t138.5 250.5t230 166.5t313.5 60q175 0 315 -62t228.5 -169t135.5 -245.5t47 -296.5q0 -266 -121.5 -460t-347.5 -268q10 -9 28.5 -24t74.5 -48.5t111 -52.5t131 -18.5t143 35.5 l55 -145q-77 -35 -157 -43.5t-144.5 1.5t-132.5 39.5t-112 56t-92.5 66t-64.5 55t-36 36.5l-3 3zM875 112q181 0 307 83.5t182.5 224t46.5 321.5q-2 104 -21.5 195.5t-60.5 171.5t-101.5 137t-149 90t-197.5 33q-118 0 -211.5 -36t-154 -97t-100.5 -145.5t-57 -176 t-17 -194.5q0 -96 22 -185.5t67 -166.5t108 -133.5t149.5 -89t187.5 -32.5z" />
<glyph unicode="R" horiz-adv-x="1461" d="M920 644v-22q46 -20 101.5 -75t112.5 -134t102 -147t98 -153t72 -113h-224q-39 52 -153.5 220.5t-197.5 271.5t-138 128h-321v-618h-186v1491h602q10 0 33.5 -2t76 -11t103.5 -25t109.5 -48t102 -75t72.5 -111.5t29 -151.5q0 -103 -28.5 -179.5t-83 -125.5t-123.5 -77.5 t-159 -42.5zM685 763q151 0 229 23q205 58 205 277q0 59 -23 106t-56.5 76t-81.5 50t-85.5 30.5t-81.5 14.5t-58 5.5t-26 0.5h-335v-583h313z" />
<glyph unicode="S" horiz-adv-x="1452" d="M1303 1126h-188q-5 65 -47 115.5t-102.5 78t-121.5 41t-116 13.5q-166 0 -280 -73.5t-111 -187.5q1 -42 34 -78t89 -64.5t128 -56t152 -55.5t159.5 -58.5t151.5 -70t128 -85t89 -108t33 -135.5q1 -220 -141 -318.5t-428 -100.5q-92 0 -170 12.5t-133 32.5t-99.5 50 t-72.5 59t-48.5 65t-30.5 63t-15.5 59t-6.5 47t-1 31h186q0 -125 95 -199.5t296 -74.5q200 0 290.5 67.5t90.5 208.5q-1 65 -43 118.5t-110 89t-155 70t-177 62t-176.5 64t-154 76t-108.5 99t-40 132.5q0 103 50.5 183t134.5 126.5t181.5 70t201.5 24.5q111 2 209.5 -19.5 t180.5 -67t134.5 -124t61.5 -182.5z" />
<glyph unicode="T" horiz-adv-x="1338" d="M1283 1491v-150h-522v-1341h-188v1341h-517v150h1227z" />
<glyph unicode="U" horiz-adv-x="1601" d="M1415 428q0 -9 -1.5 -25.5t-14 -63.5t-33.5 -90t-67.5 -95.5t-109 -90t-164 -63.5t-226.5 -26q-98 0 -181.5 15.5t-142.5 42t-106.5 60.5t-77 71.5t-51 75t-31.5 71.5t-16 60.5t-7 41.5v16v1061h188v-1046q0 -7 0.5 -18.5t8.5 -45t22.5 -64t46 -67.5t75 -63.5t114 -45 t158.5 -18.5q87 0 157.5 18t114 46t75.5 62.5t47 69t23.5 62.5t9.5 46l1 18v1046h188v-1061z" />
<glyph unicode="V" horiz-adv-x="1591" d="M804 186l529 1302h203l-626 -1488h-229l-625 1488h205l525 -1302h18z" />
<glyph unicode="W" horiz-adv-x="2021" d="M1947 1491l-437 -1491h-203l-298 1219h-11l-302 -1219h-204l-436 1491h192l337 -1163h16l295 1160h214l292 -1157h17l335 1160h193z" />
<glyph unicode="X" horiz-adv-x="1463" d="M836 801l572 -801h-205l-471 653l-469 -653h-207l573 801l-497 690h209l393 -547l391 547h206z" />
<glyph unicode="Y" horiz-adv-x="1463" d="M1408 1491l-585 -811v-680h-186l-2 680l-579 811h207l469 -668l471 668h205z" />
<glyph unicode="Z" horiz-adv-x="1444" d="M322 153v-10h981v-143h-1189v151l971 1182v13h-890v145h1092v-158z" />
<glyph unicode="[" horiz-adv-x="707" d="M575 -181v-122h-407v1807h407v-121h-249v-1564h249z" />
<glyph unicode="\" horiz-adv-x="638" d="M19 1493h124l477 -1495h-127z" />
<glyph unicode="]" horiz-adv-x="700" d="M134 -303v122h250v1564h-250v121h408v-1807h-408z" />
<glyph unicode="^" horiz-adv-x="1202" d="M1035 685h-151l-270 607h-24l-270 -607h-152l426 950z" />
<glyph unicode="_" horiz-adv-x="1169" d="M1169 -199v-91h-1169v91h1169z" />
<glyph unicode="`" horiz-adv-x="692" d="M365 1635l179 -287h-114l-244 287h179z" />
<glyph unicode="a" horiz-adv-x="1275" d="M1132 2h-177q-25 57 -41 147q-105 -82 -212 -126.5t-201 -46.5q-173 0 -272 83.5t-99 229.5q0 77 29 140.5t84 110t124 82t161.5 60.5t182 41t198.5 29v121q0 166 -272 166q-129 0 -215.5 -46t-86.5 -122h-166q6 94 70.5 161.5t166.5 100t231 32.5q79 0 144 -10.5 t110 -28t79 -42.5t54 -51t32.5 -56.5t17 -56t4.5 -51.5v-709q25 -95 54 -158zM909 473v166q-227 -37 -321 -65q-251 -75 -283 -235q-5 -25 -5 -52q0 -84 61.5 -135t172.5 -51q87 0 160 33.5t119 87.5t71 119.5t25 131.5z" />
<glyph unicode="b" horiz-adv-x="1295" d="M661 99q156 0 245.5 132t89.5 344q0 214 -95.5 338t-239.5 124q-149 0 -246 -124.5t-97 -344.5q0 -221 97 -345t246 -124zM335 156l-18 -156h-168l19 160v1413h167v-569h26q138 161 324 161q137 0 248 -82.5t171.5 -217.5t60.5 -290q0 -282 -129 -441.5t-364 -159.5 q-188 0 -337 182z" />
<glyph unicode="c" horiz-adv-x="1260" d="M1102 871h-179q-1 50 -40.5 89t-96.5 58t-118 19q-162 0 -265 -124t-103 -345q0 -220 103.5 -344.5t264.5 -124.5q104 0 184 45.5t88 121.5v0v0h1v0v0h1v0h1h1h1h1h1h1h1h1h1h1h1h1h1h1h1h1h1h1h1h1h1h1h1h1h1h1h1h1h1h1h1h1h1h1h1h1h2h1h1h1h1h1h2h1h1h1h1h2h1h1h1h2h1 h1h2h1h1h2h1h1h2h1h1h2h1h2h1h2h1h1h2h1h2h1h2h1h2h1h2h1h2h1h2h2h1h2h1h2h2h1h2h1h2h2h1h2h2h1h2h2h2h1h2h2h1h2h2h2h2h1h2h2h2h2h1h2h2h2h2h2h1h2h2h2h2h2h2h2h9q-21 -137 -148 -213.5t-314 -76.5q-261 0 -399.5 156.5t-138.5 435.5q0 177 59.5 310t182.5 210t296 77 q171 0 295.5 -83.5t138.5 -210.5z" />
<glyph unicode="d" horiz-adv-x="1297" d="M635 99q149 0 245.5 124t96.5 345q0 219 -97 344t-245 125q-146 0 -241.5 -124t-95.5 -338q0 -212 90 -344t247 -132zM961 0l-2 156q-146 -182 -337 -182q-234 0 -363 159.5t-129 441.5q0 116 36 223.5t98 188.5t152 129.5t193 48.5q191 0 329 -161h21v569h167l4 -1573 h-169z" />
<glyph unicode="e" horiz-adv-x="1301" d="M668 1162q110 0 204 -37t158 -101t101 -150t40 -183v-127h-873q0 -220 104 -342.5t265 -122.5q106 0 191 45.5t93 119.5h188q-19 -136 -151 -213t-321 -77q-260 0 -398.5 156t-138.5 434q0 178 60 311.5t182.5 210t295.5 76.5zM309 691h695q-11 159 -106.5 250.5 t-229.5 91.5q-136 0 -233 -89t-126 -253z" />
<glyph unicode="f" horiz-adv-x="755" d="M257 1132v127q0 56 7.5 101.5t20 79.5t33.5 59.5t44 42.5t55.5 27t63.5 14.5t73 4.5t79 -2.5t86 -8.5v-127q-120 12 -156 9q-105 -8 -130 -99q-12 -43 -9 -107v-121h256v-127h-256v-1005h-167v1005h-164v127h164z" />
<glyph unicode="g" horiz-adv-x="1316" d="M653 1041q-157 0 -246.5 -133t-89.5 -346q0 -214 95 -337t241 -123q148 0 245.5 124.5t97.5 343.5q0 221 -97.5 346t-245.5 125zM979 136h-2h-20q-139 -162 -330 -162q-137 0 -247.5 82t-170.5 216.5t-60 289.5q0 282 129 442.5t362 160.5q191 0 337 -182v156h172 l-2 -1016q0 -18 0.5 -58t0 -59.5t-1.5 -49t-3.5 -52.5t-6.5 -44q-42 -184 -160.5 -257.5t-335.5 -73.5q-189 0 -324 77.5t-154 212.5v0v0v0v0h1v0h1v0h1h1v0h1h1h1h1h1h1h1h1h1h1h1h1h1h1h1h1h1h1h1h1h1h1h1h1h1h1h1h1h1h1h1h1h1h1h1h1h1h1h2h1h1h1h1h1h2h1h1h1h2h1h1h1h2h1 h1h2h1h1h2h1h1h2h1h1h2h1h2h1h2h1h1h2h1h2h1h2h1h2h1h2h1h2h1h2h1h2h2h1h2h1h2h2h1h2h1h2h2h1h2h2h1h2h2h1h2h2h2h1h2h2h1h2h2h2h1h2h2h2h2h1h2h2h2h2h1h2h2h10q8 -75 96.5 -121t193.5 -46q122 0 203.5 46t117.5 162q10 33 14.5 77.5t4.5 92t-1 106.5z" />
<glyph unicode="h" horiz-adv-x="1230" d="M1063 801v-801h-167v775q0 117 -66.5 191.5t-172.5 74.5q-62 0 -115.5 -28t-90 -73t-63 -102t-39 -115t-12.5 -112v-611h-169v1573h169v-590q83 92 161 137t172 45q181 0 287 -101t106 -263z" />
<glyph unicode="i" horiz-adv-x="504" d="M337 1138v-1138h-169v1138h169zM337 1556v-161h-169v161h169z" />
<glyph unicode="j" horiz-adv-x="688" d="M333 -123v123v1138h170v-1138v-127q0 -72 -13 -127t-34 -91t-56.5 -59.5t-71.5 -35t-88 -14t-96.5 0.5t-106.5 10v125q9 -1 26 -3q73 -6 133 -7.5t98.5 48t38.5 157.5zM503 1556v-161h-170v161h170z" />
<glyph unicode="k" horiz-adv-x="1096" d="M335 1573v-944l492 509h186l-525 -529l571 -609h-186l-538 594v-594h-167v1573h167z" />
<glyph unicode="l" horiz-adv-x="502" d="M335 1573v-1573h-167v1573h167z" />
<glyph unicode="m" horiz-adv-x="1897" d="M1024 920q27 48 59.5 88.5t74.5 77.5t94.5 58t108.5 21q180 0 274.5 -99.5t94.5 -264.5v-801h-170v775q0 121 -54.5 193.5t-157.5 72.5q-75 0 -136 -41t-97 -105.5t-55.5 -136t-20.5 -140.5v-618h-170v775q0 121 -54.5 193.5t-157.5 72.5q-76 0 -139 -42t-101 -107.5 t-59 -139t-21 -141.5v-611h-169v1138h156v-168h13q88 97 165 146t168 49q144 0 234 -65t120 -180z" />
<glyph unicode="n" horiz-adv-x="1230" d="M1063 801v-801h-167v775q0 117 -66.5 191.5t-172.5 74.5q-62 0 -115.5 -28t-90 -73t-63 -102t-39 -115t-12.5 -112v-611h-169v1138h156v-168h13q86 97 163 146t170 49q181 0 287 -101t106 -263z" />
<glyph unicode="o" horiz-adv-x="1338" d="M668 1162q126 0 230 -49.5t170.5 -133t103 -190.5t36.5 -225q0 -281 -138.5 -436.5t-401.5 -155.5q-261 0 -399.5 157t-138.5 435q0 178 60 311.5t182.5 210t295.5 76.5zM668 95q172 0 272.5 130t100.5 339q0 216 -107.5 342.5t-265.5 126.5q-162 0 -266 -124t-104 -345 q0 -220 104.5 -344.5t265.5 -124.5z" />
<glyph unicode="p" horiz-adv-x="1297" d="M663 1041q-148 0 -245.5 -126t-97.5 -347q0 -218 97 -342t246 -124q145 0 241 123t96 335t-90.5 346.5t-246.5 134.5zM337 1138v-157q150 183 339 183q233 0 362 -160.5t129 -443.5q0 -154 -60 -288t-171 -216t-247 -82q-193 0 -330 160h-20v-570h-171v1574h169z" />
<glyph unicode="q" horiz-adv-x="1293" d="M635 1041q-157 0 -247 -133t-90 -346q0 -214 95.5 -337t241.5 -123q148 0 245 124.5t97 343.5q0 221 -97 346t-245 125zM959 983v156h167v-1573h-167v570h-21q-139 -162 -329 -162q-103 0 -193 48.5t-152 129t-98 187.5t-36 223q0 282 129.5 442.5t362.5 160.5 q191 0 337 -182z" />
<glyph unicode="r" horiz-adv-x="822" d="M335 594v-594h-167l1 1138h155v-161h22q19 33 38 57.5t45.5 51.5t58.5 43t72.5 27t93 10t113.5 -15l-7 -170q-213 66 -319 -29.5t-106 -357.5z" />
<glyph unicode="s" horiz-adv-x="1133" d="M964 856h-182q-8 89 -78.5 132t-156.5 43q-115 0 -179.5 -53t-64.5 -144q0 -34 29 -64t77 -52t109 -46.5t125 -47t125.5 -55t109.5 -69.5t77.5 -91t29.5 -119q0 -157 -112.5 -236.5t-308.5 -79.5q-84 0 -153.5 17t-113.5 42t-77 59.5t-49.5 65t-26.5 62t-12 47t-2 23.5 h183q0 -35 10.5 -65.5t36.5 -59.5t78 -46t126 -17q116 0 186 49t69 158q-1 49 -30.5 87.5t-78 63t-109.5 48.5t-125 43t-125.5 46.5t-109.5 59.5t-77.5 82.5t-29.5 113.5t24.5 115.5t65 87.5t94.5 59.5t111.5 35.5t117.5 11q109 2 195.5 -26.5t148 -100t73.5 -179.5z" />
<glyph unicode="t" horiz-adv-x="774" d="M719 128v-126q-62 -7 -106.5 -9.5t-96.5 0.5t-87.5 14.5t-70.5 35t-56 59.5t-34 91t-13 127v726h-162v125h162v408h168v-408h255v-125h-255v-722q0 -48 8 -84.5t21 -59t33.5 -36.5t42 -20t51.5 -7t56 1.5t60 6.5q5 1 8 1.5t7.5 1t8.5 0.5z" />
<glyph unicode="u" horiz-adv-x="1230" d="M168 335v803h167v-773q0 -120 66.5 -194t171.5 -74q76 0 139.5 42t102 107t59 138.5t20.5 142.5v611h169v-1136h-169v153q-83 -92 -161.5 -137.5t-172.5 -45.5q-181 0 -286.5 100.5t-105.5 262.5z" />
<glyph unicode="v" horiz-adv-x="1094" d="M546 216l344 922h168l-438 -1138h-164l-419 1138h166l329 -922h14z" />
<glyph unicode="w" horiz-adv-x="1575" d="M1538 1138l-348 -1138h-160l-237 927h-9l-238 -927h-164l-345 1138h153l266 -890h13l233 890h171l233 -887h15l264 887h153z" />
<glyph unicode="x" horiz-adv-x="1089" d="M637 609l415 -613h-168l-340 503l-341 -503h-166l417 613l-363 530h168l287 -420l283 420h169z" />
<glyph unicode="y" horiz-adv-x="1096" d="M464 -7l-425 1145h166l329 -922h13l345 922h167l-486 -1265q-25 -72 -55.5 -126.5t-61.5 -89.5t-72 -57t-76.5 -32.5t-86 -11.5t-89 2.5t-95.5 11.5v127q23 -2 64 -6q84 -10 143 -2.5t111 76.5t109 228z" />
<glyph unicode="z" horiz-adv-x="1105" d="M240 130v-5h791v-125h-957v132l782 872v7h-715v127h874v-140z" />
<glyph unicode="{" horiz-adv-x="912" d="M186 514v121q35 2 64 11.5t50 21.5t37.5 33.5t27 39.5t17.5 48.5t10.5 51t5 57t1.5 57t-0.5 60t-0.5 56.5l2 214q21 127 127.5 192.5t291.5 65.5v-117q-63 0 -115.5 -11t-98 -44.5t-56.5 -87.5l2 -205q0 -169 -10 -231q-25 -159 -142 -236q-33 -21 -75 -38 q55 -22 95.5 -50.5t65 -69.5t38.5 -74.5t20 -91t7 -90t1 -99.5v-27l-2 -205q11 -54 56.5 -87.5t98 -44.5t115.5 -11v-118q-184 0 -291 66t-128 193l-2 214q0 17 0.5 56.5t0.5 60t-1.5 57t-5 57.5t-10.5 51.5t-17.5 48.5t-27 39.5t-37.5 33t-50 21t-64 11.5z" />
<glyph unicode="|" horiz-adv-x="513" d="M328 1491v-1912h-142v1912h142z" />
<glyph unicode="}" horiz-adv-x="912" d="M726 635v-121q-35 -2 -64 -11t-50 -21.5t-37 -33.5t-26.5 -39.5t-17.5 -48t-10.5 -51.5t-5 -57t-1.5 -57.5v-59.5v-57l-2 -214q-21 -127 -128 -193t-291 -66v118q63 0 115.5 11t98 44.5t56.5 87.5l-2 205q1 64 0 123.5t10.5 116.5t33 105t68 89t115.5 68 q-69 27 -115.5 68.5t-68 90t-33 106t-10.5 117t0 123.5l2 205q-11 54 -56.5 87.5t-98 44.5t-115.5 11v117q185 0 291.5 -65.5t127.5 -192.5l2 -214v-57v-59.5t1.5 -57t5 -56.5t10.5 -51.5t17.5 -48.5t26.5 -39.5t37 -33t50 -22t64 -11.5z" />
<glyph unicode="~" horiz-adv-x="1284" d="M281 653l-132 36q2 10 6.5 27t24 60t45.5 76t73 60t104 26q66 -1 172 -33t195.5 -60t126.5 -22q27 5 46.5 19.5t31.5 38t17 39.5t11 41l134 -43q-2 -9 -6 -25t-22.5 -56t-42.5 -71t-69 -57t-100 -28q-77 -3 -164 24.5t-174 58t-156 33.5q-27 1 -49.5 -13.5t-35 -35.5 t-21.5 -43t-12 -37z" />
<glyph unicode="&#xad;" horiz-adv-x="986" d="M801 668v-158h-615v158h615z" />
<glyph unicode="&#xe01;" horiz-adv-x="1266" d="M1098 0h-162v771q0 127 -88 199.5t-228 72.5q-119 0 -206.5 -44.5t-124.5 -117.5q83 -16 140.5 -48t101.5 -92q-76 -21 -122 -92t-46 -167v-482h-162v484q0 96 40 162t116 91q-21 30 -84.5 45t-142.5 15v39q39 151 176 235.5t314 84.5q97 0 182.5 -23.5t152 -68.5 t105 -118t38.5 -166v-780z" />
<glyph unicode="&#xe02;" horiz-adv-x="1284" d="M290 562q-108 0 -162 74t-54 194q0 138 99 222t244 84q157 0 252.5 -68.5t95.5 -207.5v-4q0 -60 -19.5 -116t-43.5 -91.5t-43.5 -81t-19.5 -87.5v-357h225q35 0 63 30.5t28 66.5v897h162v-938q0 -76 -64.5 -127.5t-149.5 -51.5h-532v123h106v376q0 35 15.5 67t38 59 t45 56t38 71.5t15.5 92.5q0 89 -56.5 136.5t-155.5 49.5h-6q-70 0 -133.5 -33.5t-74.5 -83.5q41 22 87 22q81 0 134.5 -53.5t53.5 -134.5q0 -80 -53.5 -133t-134.5 -53zM290 657q39 0 67 27t28 66t-28 66t-67 27q-38 0 -65.5 -27t-27.5 -66q0 -38 27.5 -65.5t65.5 -27.5z " />
<glyph unicode="&#xe03;" horiz-adv-x="1359" d="M311 585q39 0 67 28t28 67q0 38 -28 65.5t-67 27.5q-37 0 -65 -27.5t-28 -65.5q0 -39 27.5 -67t65.5 -28zM223 845q42 21 88 21q81 0 134.5 -53.5t53.5 -134.5q0 -77 -52.5 -132.5t-129.5 -55.5h-4q-109 0 -169 81t-60 204q0 141 62.5 237t168.5 126q1 -1 13 -17.5 t17 -22.5l17.5 -21t21.5 -22.5t21 -17t23.5 -13.5t22.5 -4q33 0 69.5 38.5t60.5 79.5q97 -25 168.5 -99t71.5 -181q-1 -49 -14 -94t-32 -78t-37.5 -64.5t-31.5 -68t-13 -73.5v-357h243q35 0 63.5 30.5t28.5 66.5v897h164v-938q0 -76 -65.5 -127.5t-150.5 -51.5h-552v123h107 v376q0 37 15 70t36.5 61t43.5 57.5t37 72t15 91.5q0 53 -31 100.5t-68 65.5q-1 -1 -8.5 -10.5t-10.5 -13t-11 -13t-13 -14.5t-13 -13.5t-14 -13t-14.5 -10.5t-15 -9t-14 -5.5t-14.5 -2.5q-51 0 -131 105q-38 -20 -67.5 -67.5t-29.5 -104.5z" />
<glyph unicode="&#xe04;" horiz-adv-x="1284" d="M629 1154q133 0 241 -40.5t177 -128t70 -209.5v-776h-162v773q-3 126 -94.5 198t-227.5 72q-142 0 -241.5 -83.5t-99.5 -222.5q0 -54 14.5 -172t17.5 -148l-2 -86q29 144 60 236.5t82 162.5q35 48 74.5 71.5t98.5 23.5q79 0 133.5 -54.5t54.5 -133.5q0 -81 -54 -135.5 t-134 -54.5q-89 0 -145 69q-34 -68 -66.5 -214t-32.5 -237v-65h-177v101q0 107 -43 318.5t-43 284.5q0 213 139 331.5t360 118.5zM637 730q-39 0 -67 -27t-28 -66q0 -38 28 -65.5t67 -27.5q38 0 65.5 27t27.5 66t-27.5 66t-65.5 27z" />
<glyph unicode="&#xe05;" horiz-adv-x="1284" d="M326 350q8 26 27 98.5t30.5 109.5t36 86.5t53.5 79.5q64 67 169 67q81 0 134.5 -54t53.5 -134q0 -81 -53.5 -134.5t-134.5 -53.5q-89 0 -143 67q-42 -86 -74 -202t-32 -215v-65h-177v101q0 107 -43 318.5t-43 284.5q0 91 22 164t64.5 126.5t96.5 91.5t125 68 q1 -1 20 -24.5t27.5 -33.5t29.5 -31.5t35.5 -32t34 -19.5t35.5 -9q69 0 188 152q61 -24 112.5 -57t97.5 -78.5t72.5 -108.5t26.5 -136l-2 -776h-162v773v5q0 88 -39.5 150t-107.5 89q-1 -1 -33 -35t-50.5 -51t-49 -35.5t-53.5 -18.5q-25 0 -54.5 17t-47.5 34t-46 48t-34 37 q-50 -12 -85 -55.5t-50.5 -100t-15.5 -120.5v-9q0 -62 17 -170t20 -141zM642 698q-38 0 -65.5 -28t-27.5 -67q0 -37 27.5 -65t65.5 -28q39 0 67 27.5t28 65.5q0 39 -28 67t-67 28z" />
<glyph unicode="&#xe06;" horiz-adv-x="1414" d="M1082 1117h165v-1117h-180q-69 94 -174.5 190.5t-194.5 135.5v-218q0 -51 -56 -89.5t-134 -38.5q-36 0 -74 13.5t-71.5 38.5t-54.5 67t-21 93q0 112 74 178t173 66v65q0 37 15.5 70.5t37 61.5t43.5 58t37.5 72.5t15.5 92.5q0 54 -31 101t-69 65q-2 -2 -13 -15t-16.5 -19 t-17.5 -19t-21 -20t-20.5 -15t-22 -12t-20.5 -4q-50 0 -130 104q-38 -18 -67.5 -66t-29.5 -105q40 20 88 20q81 0 135.5 -54.5t54.5 -135.5q0 -78 -54.5 -133.5t-133.5 -55.5q-110 1 -170.5 82.5t-60.5 205.5q0 143 63 239t170 126q1 -2 15.5 -21t20.5 -27t21 -24.5 t25.5 -24.5t25 -15t27.5 -7q33 0 71 39.5t63 81.5q97 -27 169 -101.5t72 -181.5q0 -61 -20 -117t-44.5 -91.5t-44.5 -82.5t-20 -93v-59q93 -26 198 -109.5t186 -181.5v987zM313 776q-38 0 -66.5 -28t-28.5 -65q0 -39 28.5 -67t66.5 -28q39 0 67 28t28 67t-28 66t-67 27z M534 147v190q-55 0 -95.5 -29.5t-40.5 -100.5v-15q3 -52 33.5 -83t65.5 -31q18 0 27.5 21t9.5 48z" />
<glyph unicode="&#xe07;" horiz-adv-x="1042" d="M646 1136q105 0 167 -63.5t62 -167.5v-905h-220q-86 142 -170.5 260t-145 189t-114.5 123.5t-83.5 74.5t-48.5 31l41 82q50 -8 162.5 -107t233 -244t183.5 -266v628q-37 -15 -67 -15q-82 0 -136 58.5t-54 133.5q0 77 57.5 132.5t132.5 55.5zM646 853q39 0 67 27.5 t28 67.5q0 39 -28 66t-67 27t-67 -27t-28 -66q0 -40 28 -67.5t67 -27.5z" />
<glyph unicode="&#xe08;" horiz-adv-x="1172" d="M532 138l-37 314q-47 -31 -104 -31q-78 0 -134 55t-56 133q0 79 55 134.5t133 55.5q96 0 148.5 -35t82.5 -127l60 -453q12 -44 24 -57q19 -19 54 -19q37 0 57.5 16.5t20.5 61.5l26 553q0 54 -6 94.5t-25.5 82t-53 68t-91 43t-137.5 16.5q-157 0 -249.5 -48t-128.5 -148 l-97 75q47 114 178 174t325 60q217 0 332 -97t115 -296l-24 -571q0 -33 -11.5 -66t-37 -66t-76 -54t-119.5 -21q-176 0 -224 153zM391 516q39 0 67 28t28 67t-28 66t-67 27q-38 0 -65.5 -27t-27.5 -66t27.5 -67t65.5 -28z" />
<glyph unicode="&#xe09;" horiz-adv-x="1247" d="M1078 761v-348q-21 -42 -60 -78q58 -17 97 -66.5t39 -113.5q0 -73 -56 -127t-130 -54q-76 0 -133 54t-57 127q0 51 26 94q-95 -2 -258 -249h-177v391q-29 -13 -67 -13h-4q-73 0 -129.5 57t-56.5 133q0 77 57.5 133.5t132.5 56.5q105 0 167.5 -63.5t62.5 -167.5v-413 q38 45 60.5 70t64.5 63.5t76.5 59t83.5 36.5t99 16v378q0 65 -16 117.5t-51 95.5t-98 67t-151 24q-149 0 -256 -52.5t-132 -143.5l-95 75q36 113 168.5 173.5t315.5 60.5q218 0 347.5 -98.5t129.5 -294.5zM968 67q38 0 65.5 27t27.5 64q0 39 -27.5 66t-65.5 27 q-39 0 -67 -27t-28 -66q0 -37 28 -64t67 -27zM302 475q39 0 67.5 28t28.5 67t-28.5 66t-67.5 27q-38 0 -65.5 -27t-27.5 -66t27.5 -67t65.5 -28z" />
<glyph unicode="&#xe0a;" horiz-adv-x="1303" d="M1098 1184h151v-17q0 -110 -76 -182.5t-212 -107.5q173 -103 173 -220v-476q0 -67 -63.5 -124t-152.5 -57h-536v125h106v361q0 43 24.5 88t53.5 78.5t53.5 85t24.5 105.5q0 85 -54.5 135t-161.5 53h-7q-85 0 -142 -42.5t-65 -74.5q44 22 88 22q78 0 134 -55.5t56 -133.5 t-56 -134t-134 -56q-58 0 -101.5 23t-68 62.5t-36.5 86.5t-12 100q0 133 101.5 220t242.5 87q72 0 133 -15.5t111.5 -47.5t79 -87t28.5 -128v-3q-1 -50 -14 -96t-32 -80t-37.5 -66t-31.5 -67t-13 -69v-352h227q32 0 61.5 31t29.5 66v420q0 133 -171 205l-13 54 q312 74 312 270v13zM302 842q-38 0 -65.5 -27.5t-27.5 -66.5q0 -40 27.5 -67.5t65.5 -27.5q39 0 67 27.5t28 67.5q0 39 -28 66.5t-67 27.5z" />
<glyph unicode="&#xe0b;" horiz-adv-x="1340" d="M311 585q39 0 67 28t28 67q0 38 -28 65.5t-67 27.5q-37 0 -65 -27.5t-28 -65.5q0 -39 27.5 -67t65.5 -28zM693 477v-352h227q32 0 61.5 31t29.5 66v420q0 133 -171 205l-13 54q312 74 312 270v13h151v-17q0 -110 -76 -182.5t-212 -107.5q173 -103 173 -220v-476 q0 -67 -63.5 -124t-152.5 -57h-536v125h108v361q0 38 15 73t36.5 63.5t43.5 59t37 74.5t15 95q0 53 -31 100.5t-68 65.5q-1 -1 -8.5 -10.5t-10.5 -13t-11 -13t-13 -14.5t-13 -13.5t-14 -13t-14.5 -10.5t-15 -9t-14 -5.5t-14.5 -2.5q-51 0 -131 105q-38 -20 -67.5 -67.5 t-29.5 -104.5q42 21 88 21q81 0 134.5 -53.5t53.5 -134.5q0 -77 -52.5 -132.5t-129.5 -55.5h-4q-109 0 -169 81t-60 204q0 141 62.5 237t168.5 126q1 -1 13 -17.5t17 -22.5l17.5 -21t21.5 -22.5t21 -17t23.5 -13.5t22.5 -4q33 0 69.5 38.5t60.5 79.5q97 -25 168.5 -99 t71.5 -181q-1 -61 -21 -116.5t-44 -90.5t-43.5 -81.5t-19.5 -92.5z" />
<glyph unicode="&#xe0c;" horiz-adv-x="1768" d="M1435 1119h166v-1119h-179q-34 51 -43.5 64t-42 58.5t-51.5 65t-50 50.5t-61 50t-62 32v-208q0 -51 -55.5 -89t-134.5 -38q-49 0 -97.5 21t-85.5 68.5t-37 111.5q0 113 72.5 178.5t173.5 65.5v335q0 128 -90 201t-231 73q-121 0 -210.5 -45t-126.5 -119q83 -16 141.5 -48 t102.5 -92q-77 -21 -123 -93t-46 -169l-2 -117q31 11 63 11q78 0 135 -56.5t57 -135.5t-56.5 -134.5t-135.5 -55.5q-225 0 -225 270v222q0 97 40.5 163.5t117.5 91.5q-41 59 -229 59v39q39 152 177.5 237t319.5 85q134 0 241 -39.5t175.5 -126.5t68.5 -211v-356 q46 -13 90.5 -40.5t87.5 -69t73 -76.5t72 -88v974zM426 272q-39 0 -67 -28t-28 -67q0 -40 28 -67.5t67 -27.5q40 0 68.5 27.5t28.5 67.5q0 39 -29 67t-68 28zM948 151v182q-56 0 -96 -30.5t-40 -105.5v-11q3 -47 33 -75.5t65 -28.5q38 0 38 69z" />
<glyph unicode="&#xe0d;" horiz-adv-x="1787" d="M1097 778v-653h270q32 0 61.5 31t29.5 66v895h162v-936q0 -67 -63.5 -124t-152.5 -57h-471v769q0 126 -89 199t-228 73q-117 0 -203.5 -44t-123.5 -116q83 -16 140.5 -48t101.5 -92q-76 -21 -122 -92t-46 -167v-130q30 11 61 11q77 0 133.5 -56t56.5 -134t-56.5 -134 t-133.5 -56q-223 0 -223 268v233q0 96 40 162t116 91q-21 30 -84.5 45t-142.5 15v39q39 151 176 235.5t314 84.5q77 0 146.5 -14.5t130 -45.5t104.5 -75t69.5 -106t26.5 -137zM424 268q-39 0 -66.5 -27t-27.5 -66t27.5 -67t66.5 -28t67 28t28 67t-28 66t-67 27z" />
<glyph unicode="&#xe0e;" horiz-adv-x="1303" d="M1136 -395h-151q-35 27 -233 144q-13 -50 -51 -87t-85.5 -54t-100.5 -17t-96.5 17.5t-72 57.5t-28.5 96q0 84 70 128t162 38.5t157 -53.5q8 20 9 56.5t-3 49.5h89q5 -32 -1.5 -74.5t-20.5 -74.5q18 -11 99.5 -55.5t94.5 -52.5v1045q0 125 -89.5 198.5t-229.5 73.5 q-122 0 -211.5 -45t-128.5 -117q89 -20 149.5 -53t105.5 -89q-103 -46 -103 -223l2 -263q1 -132 -59.5 -201t-163.5 -69q-79 0 -134.5 56t-55.5 134t55.5 134t134.5 56q32 0 63 -11l-2 155q-2 87 21.5 148t69.5 86q-36 56 -242 56l2 39q39 151 177.5 234.5t319.5 83.5 q98 0 184 -23.5t153 -68.5t105.5 -117.5t38.5 -164.5v-1173zM246 78q39 0 67 27.5t28 67.5q0 39 -28 66t-67 27t-67 -27t-28 -66q0 -40 28 -67.5t67 -27.5zM419 -238q0 -61 60 -78t123.5 15t73.5 91q-33 29 -94 41.5t-112 -4.5t-51 -65z" />
<glyph unicode="&#xe0f;" horiz-adv-x="1303" d="M661 1160q97 0 181.5 -23.5t150.5 -68.5t104.5 -119t38.5 -167v-1180h-151l-190 149l-143 -151l-159 121q-36 -70 -101.5 -106t-127 -31.5t-107 51t-45.5 125.5q0 83 58.5 123.5t139.5 28.5t146 -70q39 65 36 128h96q4 -66 -61 -177l115 -85l147 151l185 -138v1052 q0 127 -87.5 201t-225.5 74q-123 0 -214 -45.5t-130 -118.5q91 -20 151 -53t105 -90q-55 -25 -78.5 -80.5t-23.5 -144.5l2 -265q1 -132 -60 -201.5t-165 -69.5q-81 0 -136.5 55.5t-55.5 135.5q0 79 56 135.5t136 56.5q32 0 63 -11l-2 154q-2 88 21.5 150t69.5 87 q-38 58 -244 58l2 39q41 152 181 236t322 84zM248 76q39 0 67 28.5t28 68.5q0 39 -28 66t-67 27t-68 -27t-29 -66q0 -40 29 -68.5t68 -28.5zM199 -240q0 -38 17 -61.5t43.5 -28t56 3.5t58 33t45.5 60q-35 38 -86.5 58t-92.5 5.5t-41 -70.5z" />
<glyph unicode="&#xe10;" horiz-adv-x="1135" d="M464 1033h-8q-221 0 -221 -136q37 2 115 2q77 0 142.5 -5t135 -17.5t122.5 -36t96.5 -58t66.5 -87t23 -118.5l-14 -387q0 -33 -11.5 -66t-37 -66t-76 -54t-119.5 -21q-175 0 -226 153l-22 242q-51 -34 -106 -34q-78 0 -133 56t-55 134t54 134t132 56q96 0 148.5 -33.5 t82.5 -124.5l48 -384q12 -45 26 -59q18 -17 53 -17q36 0 57 16.5t21 61.5l18 384q0 46 -14 82.5t-37 61.5t-60 43.5t-75.5 29t-90.5 17t-99 8.5t-106 2q-36 0 -109.5 -1t-110.5 -1q5 157 92 250t247 94h4q86 0 207 -26.5t165 -32.5q7 -2 19 -2q92 0 115 63l88 -100 q-11 -37 -70 -65t-122 -28h-22q-70 14 -139.5 32.5t-109.5 28t-73 9.5h-11zM324 441q39 0 67 28t28 67t-28 66t-67 27q-38 0 -65.5 -27t-27.5 -66t27.5 -67t65.5 -28z" />
<glyph unicode="&#xe11;" horiz-adv-x="1563" d="M292 585q39 0 67 28t28 67q0 38 -28 65.5t-67 27.5q-38 0 -65.5 -27.5t-27.5 -65.5q0 -39 27.5 -67t65.5 -28zM676 478v-221l296 795q7 19 11.5 29t15.5 25.5t27.5 22.5t38.5 7q62 0 118 -16t105 -50.5t78.5 -97t29.5 -145.5v-827h-162v825q0 91 -42 137t-114 55 l-384 -1017h-182v497q0 37 15 71t37 62t43.5 57.5t36.5 72t15 91.5q0 53 -31 100.5t-68 65.5q-1 -1 -8.5 -10.5t-10.5 -13t-11 -13t-13 -14.5t-13 -13.5t-14 -13t-14.5 -10.5t-15 -9t-14 -5.5t-14.5 -2.5q-24 0 -53 22t-42 38t-35 45q-38 -20 -67.5 -67.5t-29.5 -104.5 q42 21 87 21q81 0 134.5 -53.5t53.5 -134.5q0 -77 -52.5 -132.5t-129.5 -55.5h-4q-109 0 -169 81t-60 204q0 141 62.5 237t168.5 126q1 -1 13 -17.5t17 -22.5l17.5 -21t21.5 -22.5t21 -17t23.5 -13.5t22.5 -4q33 0 69.5 38.5t60.5 79.5q97 -25 168.5 -99t71.5 -181 q-1 -49 -14 -94t-31.5 -78.5t-36.5 -65t-31 -68t-13 -74.5z" />
<glyph unicode="&#xe12;" horiz-adv-x="1787" d="M536 607q0 -40 28 -67.5t67 -27.5t67 27.5t28 67.5q0 39 -28 66t-67 27t-67 -27t-28 -66zM920 78q39 0 39 69v188q-57 0 -96.5 -32t-39.5 -111v-10q3 -47 33 -75.5t64 -28.5zM384 0h-162l1 138q0 106 -54 316q-39 151 -39 280q0 153 78.5 261.5t240.5 160.5 q130 -152 184 -152q50 0 190 152q138 -38 218 -143t80 -233v-359q150 -43 335 -287v983h164v-1117h-177q-2 3 -29 40t-33 44.5t-31 40t-35.5 43.5t-33.5 37.5t-38.5 38.5t-37 30t-42.5 29.5t-42 20.5v-216q0 -51 -55.5 -89t-134.5 -38q-78 0 -142.5 53.5t-64.5 147.5 q0 117 67.5 184.5t167.5 67.5v344q0 53 -11 100t-43.5 87.5t-83.5 49.5q-140 -140 -188 -140q-51 0 -176 132l-8 8q-85 -9 -127.5 -90t-42.5 -193q0 -27 20.5 -127t41.5 -179q31 -124 31 -203l-1 -55l18 37l192 216q-61 17 -100.5 68t-39.5 116q0 78 55.5 134t134.5 56 q77 0 132.5 -56t55.5 -134q0 -48 -34.5 -109.5t-89.5 -124.5t-113 -124.5t-114.5 -129t-83.5 -117.5z" />
<glyph unicode="&#xe13;" horiz-adv-x="1805" d="M1575 356q60 -17 99 -67.5t39 -115.5q0 -74 -55.5 -128t-130.5 -54q-78 0 -135 54t-57 128q0 52 26 95q-94 0 -251 -268h-179v778q-1 128 -86 201t-225 73q-119 0 -206 -45t-124 -119q83 -16 141.5 -48t102.5 -93q-77 -19 -124 -91.5t-47 -169.5v-132q30 9 63 9 q78 0 134 -55.5t56 -134.5t-56 -135.5t-134 -56.5q-225 0 -225 270v237q0 97 41 164t117 91q-20 30 -84.5 44.5t-144.5 14.5v41q39 152 175 237t315 85q99 0 184.5 -23.5t151 -69t102.5 -118.5t37 -166v-656q33 55 66 95.5t78 76t104 54t130 18.5v750h164v-692 q-25 -49 -62 -78zM426 268q-39 0 -67 -27t-28 -66q0 -40 28 -67.5t67 -27.5t67 27.5t28 67.5q0 39 -28 66t-67 27zM1527 84q37 0 64 27t27 66t-27 66t-64 27q-40 0 -68.5 -27.5t-28.5 -65.5q0 -39 28 -66t69 -27z" />
<glyph unicode="&#xe14;" horiz-adv-x="1284" d="M564 456q-61 15 -100.5 66.5t-39.5 116.5q0 79 55 134.5t135 55.5q77 0 132.5 -55.5t55.5 -134.5q0 -58 -54.5 -145.5t-123.5 -165t-147 -172.5t-110 -156h-155v138q0 149 -43 316q-39 161 -39 298q0 126 69 221t179.5 142t243.5 47q128 0 238 -42t182.5 -131t74.5 -209 v-780h-164v778q-3 124 -100.5 197t-230.5 73q-147 0 -245 -86t-98 -219q0 -136 52 -317q27 -121 34 -225q29 43 97.5 125t101.5 130zM614 735q-39 0 -67 -28t-28 -67t28 -66t67 -27t67 27t28 66t-28 67t-67 28z" />
<glyph unicode="&#xe15;" horiz-adv-x="1284" d="M367 0h-155v138q0 149 -43 316q-39 151 -39 280q0 153 75.5 263.5t226.5 164.5q131 -153 184 -153q31 0 88.5 52t101.5 103q139 -40 225 -148t86 -236v-780h-164v778q0 53 -14 102.5t-49 91t-86 50.5q-139 -139 -188 -139q-53 0 -184 137q-50 -6 -85.5 -49.5t-51.5 -105 t-16 -133.5q0 -31 17 -133.5t35 -172.5q14 -55 19.5 -83.5t9.5 -70.5t1 -86q33 50 105.5 127t97.5 108q-61 17 -100.5 68t-39.5 116q0 78 55.5 134t134.5 56q77 0 132.5 -56t55.5 -134q0 -48 -34.5 -109.5t-89.5 -124.5t-113 -124.5t-114.5 -129t-83.5 -117.5zM614 700 q-39 0 -67 -27t-28 -66q0 -40 28 -67.5t67 -27.5t67 27.5t28 67.5q0 39 -28 66t-67 27z" />
<glyph unicode="&#xe16;" horiz-adv-x="1247" d="M603 1156q98 0 183 -23.5t151.5 -68.5t104.5 -117.5t38 -164.5v-782h-164l2 773q0 126 -87.5 198.5t-227.5 72.5q-120 0 -208 -45t-125 -118q83 -16 140.5 -48t101.5 -92q-76 -19 -122.5 -91t-46.5 -168v-132q30 11 61 11q78 0 134 -56t56 -134q0 -79 -56 -134.5 t-134 -55.5q-109 0 -166 67t-57 201l1 235q0 96 40.5 162.5t116.5 90.5q-20 30 -84 45t-143 15v39q26 101 100 175t174.5 109.5t216.5 35.5zM404 266q-38 0 -65.5 -27t-27.5 -66q0 -40 27.5 -67.5t65.5 -27.5q40 0 68.5 27.5t28.5 67.5q0 39 -29 66t-68 27z" />
<glyph unicode="&#xe17;" horiz-adv-x="1377" d="M264 855q39 0 68 27t29 66t-29 67t-68 28q-38 0 -65.5 -28t-27.5 -67t27.5 -66t65.5 -27zM881 1017l-362 -1017h-188v769q-31 -11 -67 -11h-5q-73 0 -129 57t-56 133q0 77 57.5 132.5t132.5 55.5q105 0 168 -63.5t63 -167.5v-663l280 810q1 2 5 12.5t5.5 14.5t6.5 13.5 t9 14t10.5 11.5t13.5 10t16.5 5.5t20.5 2.5h6q49 -3 93.5 -13t91 -33t80 -56t55 -86.5t22.5 -120.5v-827h-162v825q-1 46 -14.5 80.5t-38.5 56t-52 34.5t-62 21z" />
<glyph unicode="&#xe18;" horiz-adv-x="1098" d="M168 0v650h163v-525h349q31 0 60 32.5t29 69.5v358q0 29 -11.5 53.5t-36.5 43t-51.5 33t-69.5 25t-78.5 18t-89.5 12t-90 7t-93.5 4t-87 1.5h-83.5q0 158 99 265t244 107q83 0 202.5 -29.5t162.5 -29.5q106 0 134 61l87 -100q-55 -92 -214 -92q-44 0 -163 35t-159 36 q-103 0 -167.5 -39.5t-65.5 -109.5q77 0 123.5 -1t129 -6.5t134.5 -16t116.5 -32t102 -51.5t63.5 -77.5t26 -107.5v-415q0 -72 -65 -125.5t-155 -53.5h-545z" />
<glyph unicode="&#xe19;" horiz-adv-x="1321" d="M1091 343q59 -17 98.5 -67t39.5 -114q0 -73 -56 -127t-130 -54q-76 0 -133 54t-57 127q0 52 26 95q-77 0 -192.5 -88.5t-178.5 -168.5h-177v769q-31 -11 -67 -11h-5q-73 0 -129 56.5t-56 131.5q0 77 57.5 133.5t132.5 56.5q105 0 168 -63.5t63 -167.5v-786 q258 248 494 248v750h163v-696q-23 -46 -61 -78zM1043 74q36 0 63.5 27.5t27.5 64.5q0 38 -27 65.5t-64 27.5q-40 0 -67.5 -27t-27.5 -66q0 -38 27.5 -65t67.5 -27zM264 855q39 0 68 27t29 66t-29 67t-68 28q-38 0 -65.5 -28t-27.5 -67t27.5 -66t65.5 -27z" />
<glyph unicode="&#xe1a;" horiz-adv-x="1340" d="M1009 1117h164v-936q0 -67 -63.5 -124t-152.5 -57h-719v125h93v644q-31 -11 -67 -11h-5q-73 0 -129 56.5t-56 131.5q0 77 57.5 133.5t132.5 56.5q105 0 168 -63.5t63 -167.5v-780h423q32 0 61.5 31t29.5 66v895zM264 855q39 0 68 27t29 66t-29 67t-68 28q-38 0 -65.5 -28 t-27.5 -67t27.5 -66t65.5 -27z" />
<glyph unicode="&#xe1b;" horiz-adv-x="1340" d="M1009 1564h164v-1383q0 -67 -63.5 -124t-152.5 -57h-719v125h93v644q-31 -11 -67 -11h-5q-73 0 -129 56.5t-56 131.5q0 77 57.5 133.5t132.5 56.5q105 0 168 -63.5t63 -167.5v-780h423q32 0 61.5 31t29.5 66v1342zM264 855q39 0 68 27t29 66t-29 67t-68 28 q-38 0 -65.5 -28t-27.5 -67t27.5 -66t65.5 -27z" />
<glyph unicode="&#xe1c;" horiz-adv-x="1359" d="M331 769v-557l293 482h106l298 -482v905h164v-1117h-168l-344 572l-354 -572h-158v916q0 104 59.5 162t163.5 58q78 0 134 -55.5t56 -134.5q0 -78 -56 -133t-134 -55q-30 0 -60 11zM391 855q39 0 67 27t28 66t-28 67t-67 28q-38 0 -65.5 -28t-27.5 -67t27.5 -66t65.5 -27 z" />
<glyph unicode="&#xe1d;" horiz-adv-x="1359" d="M331 769v-557l293 482h106l298 -482v1356h164v-1568h-168l-344 572l-354 -572h-158v916q0 104 59.5 162t163.5 58q78 0 134 -55.5t56 -134.5q0 -78 -56 -133t-134 -55q-30 0 -60 11zM391 855q39 0 67 27t28 66t-28 67t-67 28q-38 0 -65.5 -28t-27.5 -67t27.5 -66 t65.5 -27z" />
<glyph unicode="&#xe1e;" horiz-adv-x="1489" d="M1156 1117h166v-1117h-207l-283 903h-11l-285 -903h-205v769q-31 -11 -67 -11q-74 -3 -132 54.5t-58 133.5q0 77 57.5 133.5t132.5 56.5q105 0 169 -63.5t64 -167.5v-648l21 20l270 840h76l274 -838l18 -22v860zM264 855q39 0 68 27t29 66t-29 67t-68 28q-38 0 -65.5 -28 t-27.5 -67t27.5 -66t65.5 -27z" />
<glyph unicode="&#xe1f;" horiz-adv-x="1489" d="M1156 1564h166v-1564h-207l-283 903h-11l-285 -903h-205v769q-31 -11 -67 -11q-74 -3 -132 54.5t-58 133.5q0 77 57.5 133.5t132.5 56.5q105 0 169 -63.5t64 -167.5v-648l21 20l270 840h76l274 -838l18 -22v1307zM264 855q39 0 68 27t29 66t-29 67t-68 28 q-38 0 -65.5 -28t-27.5 -67t27.5 -66t65.5 -27z" />
<glyph unicode="&#xe20;" horiz-adv-x="1303" d="M1136 778v-778h-162v769q0 125 -89.5 198.5t-229.5 73.5q-122 0 -211.5 -45t-128.5 -117q89 -20 149.5 -53t105.5 -89q-103 -46 -103 -223l2 -263q0 -132 -60.5 -201t-162.5 -69q-79 0 -134.5 56t-55.5 134t55.5 134t134.5 56q32 0 63 -11l-2 155q0 183 91 234 q-36 56 -242 56l2 39q39 151 177.5 234.5t319.5 83.5q98 0 184 -23.5t153 -68.5t105.5 -117.5t38.5 -164.5zM246 78q39 0 67 27.5t28 67.5q0 39 -28 66t-67 27t-67 -27t-28 -66q0 -40 28 -67.5t67 -27.5z" />
<glyph unicode="&#xe21;" horiz-adv-x="1321" d="M992 1117h162v-1117h-177q-65 74 -130.5 135t-152.5 115t-162 65v-207q0 -51 -55.5 -89t-132.5 -38q-49 0 -98 21.5t-85 69t-36 110.5q0 112 72 177t172 65v345q-31 -11 -67 -11h-6q-73 0 -128.5 56.5t-55.5 131.5q0 77 57.5 133.5t132.5 56.5q105 0 167.5 -63.5 t62.5 -167.5v-490q110 -13 235.5 -96.5t224.5 -188.5v987zM331 80q38 0 38 60v7v181q-56 0 -95 -30t-39 -106v-10q3 -47 32.5 -74.5t63.5 -27.5zM302 855q39 0 67.5 27t28.5 66t-28.5 67t-67.5 28q-38 0 -65.5 -28t-27.5 -67t27.5 -66t65.5 -27z" />
<glyph unicode="&#xe22;" horiz-adv-x="1247" d="M397 1136q77 0 132.5 -55.5t55.5 -134.5q0 -78 -55.5 -133t-132.5 -55q-70 0 -118 39q2 -57 25 -94.5t66.5 -57t95 -27t124.5 -7.5h47v-110q-54 -4 -87.5 -8t-70.5 -12t-58.5 -21.5t-40 -34t-26.5 -51t-8 -71.5v-178h479q32 0 61.5 31t29.5 66v895h164v-936 q0 -67 -63.5 -124t-152.5 -57h-678v303q0 96 54.5 155.5t150.5 72.5q-91 12 -114 19q-85 26 -118 118q-27 75 -27 203q0 106 77 185.5t188 79.5zM397 853q39 0 67 28t28 67t-28 66t-67 27t-67 -27t-28 -66t28 -67t67 -28z" />
<glyph unicode="&#xe23;" horiz-adv-x="1061" d="M478 1033q-93 2 -153.5 -33t-71.5 -108q605 0 605 -291v-350q0 -132 -61.5 -200t-165.5 -70q-78 0 -134 56t-56 134t56 134t134 56q33 0 63 -11v242q0 40 -17.5 71.5t-48.5 51.5t-73.5 34.5t-91.5 21.5t-104.5 11t-109.5 5t-110 1h-46q0 154 100 260t235 106 q65 0 114.5 -9.5t104.5 -25.5t101 -24q48 -4 73 11.5t39 51.5l88 -102q-11 -41 -70.5 -70.5t-121.5 -21.5q-65 14 -148.5 41.5t-129.5 27.5zM726 171q0 40 -28 67.5t-67 27.5q-38 0 -65.5 -27.5t-27.5 -67.5q0 -39 27.5 -66t65.5 -27q39 0 67 27t28 66z" />
<glyph unicode="&#xe24;" horiz-adv-x="1247" d="M603 1156q98 0 183 -23.5t151.5 -68.5t104.5 -117.5t38 -164.5v-1229h-164l2 1220q0 126 -87.5 198.5t-227.5 72.5q-120 0 -208 -45t-125 -118q83 -16 140.5 -48t101.5 -92q-76 -19 -122.5 -91t-46.5 -168v-132q30 11 61 11q78 0 134 -56t56 -134q0 -79 -56 -134.5 t-134 -55.5q-109 0 -166 67t-57 201l1 235q0 96 40.5 162.5t116.5 90.5q-20 30 -84 45t-143 15v39q26 101 100 175t174.5 109.5t216.5 35.5zM404 266q-38 0 -65.5 -27t-27.5 -66q0 -40 27.5 -67.5t65.5 -27.5q40 0 68.5 27.5t28.5 67.5q0 39 -29 66t-68 27z" />
<glyph unicode="&#xe25;" horiz-adv-x="1247" d="M605 1154q230 0 352.5 -95t122.5 -290v-769h-164v104q-8 56 -32.5 130t-67 155.5t-93.5 150t-118.5 113.5t-137.5 45q-65 0 -95.5 -79t-30.5 -198v-71q29 9 61 9q78 0 134 -55t56 -133q0 -79 -56 -134.5t-134 -55.5q-109 0 -166 67t-57 201l-2 189q-1 104 33.5 191 t96.5 138t138 52q84 0 152.5 -24t124 -73.5t98 -109.5t89.5 -148l7 -23v304q0 53 -6 92t-25.5 79.5t-53 66.5t-91 42t-137.5 16q-144 0 -247.5 -50.5t-128.5 -137.5l-97 74q39 99 172.5 163t302.5 64zM402 266q-38 0 -65.5 -28t-27.5 -67t27.5 -66t65.5 -27q39 0 67 27 t28 66t-28 67t-67 28z" />
<glyph unicode="&#xe26;" horiz-adv-x="1303" d="M1136 778v-1225h-162v1216q0 125 -89.5 198.5t-229.5 73.5q-122 0 -211.5 -45t-128.5 -117q89 -20 149.5 -53t105.5 -89q-103 -46 -103 -223l2 -263q0 -132 -60.5 -201t-162.5 -69q-79 0 -134.5 56t-55.5 134t55.5 134t134.5 56q32 0 63 -11l-2 155q0 183 91 234 q-36 56 -242 56l2 39q39 151 177.5 234.5t319.5 83.5q98 0 184 -23.5t153 -68.5t105.5 -117.5t38.5 -164.5zM246 78q39 0 67 27.5t28 67.5q0 39 -28 66t-67 27t-67 -27t-28 -66q0 -40 28 -67.5t67 -27.5z" />
<glyph unicode="&#xe27;" horiz-adv-x="1079" d="M501 1162q83 0 155.5 -22.5t130.5 -66.5t91.5 -118t33.5 -169v-535q0 -132 -60.5 -200t-164.5 -70q-79 0 -134.5 56t-55.5 134t55.5 134t134.5 56q35 0 65 -11v397q0 153 -55.5 227t-199.5 74q-148 0 -232.5 -53t-111.5 -170l-97 63q16 43 35 77.5t54.5 73t81 64 t116.5 42.5t158 17zM687 78q39 0 67 28t28 67t-28 66t-67 27t-67 -27t-28 -66t28 -67t67 -28z" />
<glyph unicode="&#xe28;" horiz-adv-x="1303" d="M391 0h-175v101q0 92 -43 311t-43 297q0 209 144 327t376 118q126 0 227 -41q65 16 113.5 60.5t59.5 111.5l151 -54q-10 -57 -71 -113.5t-130 -73.5q139 -116 139 -264v-780h-163v778q0 121 -95.5 192t-228.5 71q-158 0 -259 -86t-101 -221q0 -66 32 -317l-2 -84 q24 123 54.5 214t61 144t67 85t67.5 42.5t67 10.5q78 0 134 -55.5t56 -134.5q0 -78 -56 -133t-134 -55q-89 0 -146 67q-34 -51 -68 -208.5t-34 -235.5v-74zM639 735q-38 0 -65.5 -28t-27.5 -67t27.5 -66t65.5 -27q40 0 68 27t28 66t-28 67t-68 28z" />
<glyph unicode="&#xe29;" horiz-adv-x="1331" d="M1240 778h115q-37 -206 -197 -294v-328q0 -67 -51 -111.5t-141 -44.5h-730v125h95v644q-29 -13 -67 -13h-3q-73 0 -130 57t-57 133q0 77 57.5 133.5t132.5 56.5q105 0 168 -63.5t63 -167.5v-780h432q67 0 67 72v244q-85 -17 -174.5 5t-151 81.5t-61.5 139.5 q0 65 46 111.5t112 46.5q62 0 109.5 -47t47.5 -110q0 -72 -66 -126q35 -15 82 -15q22 0 56 4v586h164v-532q24 21 39.5 42.5t24 50.5t11 45.5t7.5 54.5zM765 590q28 0 52.5 24.5t24.5 53.5q0 32 -24 54.5t-53 22.5q-34 0 -57 -22.5t-23 -54.5q0 -30 23.5 -54t56.5 -24z M264 853q40 0 68.5 27.5t28.5 67.5q0 39 -29 66t-68 27q-38 0 -65.5 -27t-27.5 -66q0 -40 27.5 -67.5t65.5 -27.5z" />
<glyph unicode="&#xe2a;" horiz-adv-x="1247" d="M341 421v-73q30 11 61 11q78 0 134 -56t56 -134t-56 -133.5t-134 -55.5q-109 0 -166 67t-57 201v190q0 174 77.5 278.5t199.5 104.5q152 0 258.5 -91t197.5 -268l8 -21v306q0 53 -6.5 92t-26.5 79t-54.5 66t-94.5 42t-142 17q-141 2 -242.5 -49t-126.5 -139l-97 74 q37 105 166.5 166t299.5 61q98 0 157 -11t122 -35q72 18 97.5 50t36.5 97l153 -49q-15 -127 -170 -177q90 -91 90 -260v-771h-162v76q0 43 -22 118t-64.5 162t-96 164.5t-125 128.5t-143.5 51q-44 0 -73.5 -38.5t-42 -99.5t-12.5 -141zM402 264q-38 0 -65.5 -27t-27.5 -66 t27.5 -67t65.5 -28q40 0 68.5 28t28.5 67t-28 66t-69 27z" />
<glyph unicode="&#xe2b;" horiz-adv-x="1359" d="M1093 791q97 -55 97 -138v-653h-164v650q0 40 -5 57t-21 28q-81 -26 -158.5 -98.5t-142 -178t-116.5 -218t-97 -240.5h-155v769q-29 -13 -67 -13q-75 -2 -132.5 55.5t-57.5 134.5t57.5 133.5t132.5 56.5q105 0 168 -63.5t63 -167.5v-572q223 422 440 479q-93 68 -93 143 q0 81 55.5 131t135.5 50q82 0 134 -49.5t52 -131.5q0 -120 -126 -164zM264 853q39 0 68 28t29 67t-29 66t-68 27q-38 0 -65.5 -27t-27.5 -66t27.5 -67t65.5 -28zM1033 855q29 3 59.5 34t30.5 66q0 86 -90 86q-83 0 -83 -86q0 -26 23.5 -54t59.5 -46z" />
<glyph unicode="&#xe2c;" horiz-adv-x="1489" d="M1450 1296q-1 -77 -37 -143.5t-112 -147.5q17 -36 17 -69v-936h-201l-287 747h-16l-282 -747h-201v769q-20 -9 -67 -13q-75 -2 -132.5 55.5t-57.5 136.5q0 76 57.5 132t132.5 56q105 0 168 -63.5t63 -167.5v-650l23 22l266 682h76l276 -680l20 -24v620q-56 -13 -74 -13 q-72 0 -125.5 53.5t-53.5 125.5q0 76 53 131t126 55q113 0 186 -115q30 44 40 83.5t10 100.5h132zM264 853q39 0 68 28t29 67t-29 66t-68 27q-38 0 -65.5 -27t-27.5 -66t27.5 -67t65.5 -28zM1082 957q36 0 61.5 24.5t25.5 59.5q0 39 -25.5 65t-61.5 26t-62 -26t-26 -65 q0 -35 26 -59.5t62 -24.5z" />
<glyph unicode="&#xe2d;" horiz-adv-x="1247" d="M395 424v-299h434q33 0 61 30.5t28 66.5v523q0 52 -6 91.5t-25 80t-52 67t-89.5 43t-134.5 16.5h-6q-145 0 -249 -51t-129 -139l-97 74q39 100 173.5 164.5t303.5 64.5q473 0 473 -387v-590q0 -70 -64.5 -124.5t-153.5 -54.5h-631v573q0 104 59.5 162t165.5 58 q77 0 132.5 -55.5t55.5 -134.5q0 -78 -55.5 -133t-132.5 -55q-32 0 -61 9zM456 510q39 0 67 28t28 67t-28 66t-67 27t-67 -27t-28 -66t28 -67t67 -28z" />
<glyph unicode="&#xe2e;" horiz-adv-x="1247" d="M1005 1290l155 -37v-17q0 -90 -38.5 -157.5t-123.5 -123.5q37 -45 54 -82t17 -98v-596q-5 -71 -67.5 -125t-150.5 -54h-654v473q0 105 59.5 162.5t164.5 57.5q78 0 134 -56t56 -134t-56 -134t-134 -56q-30 0 -60 11v-199h456q32 0 61 31t29 66v534q0 74 -26 123 q-180 -95 -358 -95q-165 0 -260 47.5t-95 131.5q0 73 104 132q116 59 294 59q212 0 354 -102q51 35 68 88t17 135v15zM808 961l2 16q-40 32 -109.5 49t-141.5 17q-113 0 -185 -22.5t-72 -54.5q0 -31 61.5 -51.5t159.5 -20.5q171 0 285 67zM328 505q0 -40 27.5 -67.5 t65.5 -27.5q39 0 67 27.5t28 67.5q0 39 -28 66t-67 27q-38 0 -65.5 -27t-27.5 -66z" />
<glyph unicode="&#xe2f;" horiz-adv-x="1154" d="M330 780q141 -53 250.5 -22t175.5 129.5t65 229.5h166v-1117h-164v804q-35 -52 -90 -90.5t-117.5 -56t-128.5 -20.5t-126 17.5t-107.5 56.5t-76 98.5t-28.5 141.5q0 70 49.5 120t119.5 50t121 -50t51 -120q0 -68 -46.5 -117t-113.5 -54zM318 868q36 0 62 24.5t26 60.5 q0 35 -26 59.5t-62 24.5q-34 0 -58.5 -24.5t-24.5 -59.5q0 -36 24.5 -60.5t58.5 -24.5z" />
<glyph unicode="&#xe30;" horiz-adv-x="949" d="M350 117q14 -3 47 -3q142 3 215 67t99 208h127q-35 -177 -151 -269.5t-290 -97.5q-140 0 -231.5 65t-91.5 162q0 71 50 121.5t120 50.5t120.5 -50.5t50.5 -121.5q0 -39 -17.5 -74t-47.5 -58zM244 168q36 0 61.5 23.5t25.5 59.5q0 35 -25.5 59.5t-61.5 24.5 q-34 0 -59 -24.5t-25 -59.5t25 -59t59 -24zM350 815q14 -3 47 -3q143 3 214 65.5t100 207.5h127q-37 -177 -152 -268t-289 -96q-140 0 -231.5 64.5t-91.5 162.5q0 71 50 121t120 50t120.5 -50t50.5 -121q0 -83 -65 -133zM244 864q36 0 61.5 25t25.5 61q0 35 -25.5 59 t-61.5 24q-34 0 -59 -24t-25 -59q0 -36 25 -61t59 -25z" />
<glyph unicode="&#xe31;" d="M-99 1681h136q-32 -161 -148 -263t-282 -102q-140 0 -231 67t-91 166q0 65 46 111.5t110 46.5t109.5 -46.5t45.5 -109.5q0 -77 -58 -129q137 -36 245 39t118 220zM-559 1473q32 0 54.5 22t22.5 54q0 31 -22.5 53t-54.5 22t-54 -22t-22 -53q0 -32 22 -54t54 -22z" />
<glyph unicode="&#xe32;" horiz-adv-x="1042" d="M875 0h-164v743q0 56 -5 97.5t-20.5 81.5t-41 65t-69 40.5t-102.5 15.5q-268 0 -320 -224l-97 64q16 44 34.5 78t52.5 72.5t76.5 64t108 42t145.5 16.5t150 -21t127.5 -63.5t91 -117t33.5 -172.5v-782z" />
<glyph unicode="&#xe33;" horiz-adv-x="1035" d="M875 0h-164v743q0 56 -5 97.5t-20.5 81.5t-41 65t-69 40.5t-102.5 15.5q-268 0 -320 -224l-97 64q16 44 34.5 78t52.5 72.5t76.5 64t108 42t145.5 16.5t150 -21t127.5 -63.5t91 -117t33.5 -172.5v-782zM-283 1674q77 0 132.5 -56t55.5 -134t-55.5 -134t-132.5 -56 q-79 0 -134.5 56t-55.5 134t55.5 134t134.5 56zM-283 1391q39 0 67 27t28 66q0 40 -28 67.5t-67 27.5t-67 -27.5t-28 -67.5q0 -39 28 -66t67 -27z" />
<glyph unicode="&#xe34;" d="M-149 1314q-502 104 -910 19q14 119 79 199.5t154.5 111.5t195 24t201 -49.5t172.5 -122.5t108 -182zM-897 1434q158 20 280 16.5t286 -29.5q-60 89 -171.5 129t-224.5 10.5t-170 -126.5z" />
<glyph unicode="&#xe35;" d="M-317 1733h133v-325l35 -88q-497 106 -899 19q8 89 50 157.5t104 107t140 55t155.5 7.5t152 -42t129.5 -86v195zM-326 1424q-63 90 -174 130t-221.5 11t-166.5 -124q309 37 562 -17z" />
<glyph unicode="&#xe36;" d="M-525 1650l17 -8q8 64 52.5 103t103.5 39q74 0 123 -44.5t45 -115.5q-3 -43 -24.5 -78.5t-54.5 -52.5q31 -39 44 -56t34.5 -51t35.5 -66q-491 105 -909 22q13 84 49 148t87 100.5t116 57t135.5 18.5t145.5 -16zM-330 1426q-70 89 -179 129t-217.5 12.5t-167.5 -122.5 q162 19 284 14t280 -33zM-346 1713q-41 0 -63.5 -25.5t-21 -56.5t24 -56.5t60.5 -25.5t60 25.5t23 56.5t-21 56.5t-62 25.5z" />
<glyph unicode="&#xe37;" d="M-434 1638q64 -30 117 -83v193h133v-324l35 -87q-502 104 -899 18q22 166 128.5 245t273.5 79q32 0 78 -7v76h134v-110zM-326 1441q-47 67 -125.5 106.5t-159.5 44.5t-158 -29.5t-119 -106.5q296 35 562 -15z" />
<glyph unicode="&#xe38;" d="M-320 -110q60 0 106 -32.5t46 -95.5v-291h-152v145q-60 0 -99 39t-39 97q0 57 40.5 97.5t97.5 40.5zM-320 -318q29 0 50 20.5t21 49.5t-21 50t-50 21q-28 0 -48.5 -21t-20.5 -50t20.5 -49.5t48.5 -20.5z" />
<glyph unicode="&#xe39;" d="M-309 -125h141v-394h-405v148q-62 -1 -100 36t-38 93q0 55 38.5 93.5t93.5 38.5t96 -30.5t47 -90.5v-188h127v294zM-579 -311q28 0 47.5 20t19.5 49q0 28 -19.5 47.5t-47.5 19.5t-47.5 -19.5t-19.5 -47.5q0 -29 19.5 -49t47.5 -20z" />
<glyph unicode="&#xe3a;" d="M-253 -130q33 0 59 -26t26 -60q0 -35 -26 -61t-59 -26q-34 0 -61 26t-27 61q0 34 27 60t61 26z" />
<glyph unicode="&#xe3f;" horiz-adv-x="1228" d="M521 30h-357v1437h357v188h110v-188q15 0 27 -0.5t58 -7t82 -18.5t84 -39.5t80.5 -65.5t55.5 -100.5t23 -140.5q0 -65 -19.5 -119t-48.5 -86.5t-65 -58.5t-65 -38t-53.5 -20.5t-26.5 -9.5q1 0 33 -2.5t68.5 -8t83.5 -27t83.5 -56t62 -100.5t25.5 -154q0 -63 -16 -116.5 t-41 -90.5t-62.5 -67t-71.5 -48t-77.5 -31.5t-72 -19t-63.5 -9t-43.5 -3.5h-18.5h-22v-211h-110v211zM521 169v529h-193v-529h193zM631 169q37 2 71 7t81.5 21t81.5 42t58.5 73t24.5 109q0 282 -295 277h-11h-11v-529zM521 838v489h-193v-489h193zM631 838h9h5 q19 -1 33.5 0.5t46 7t55 22t48 43t38 74t13.5 110.5q0 54 -18.5 96t-45 66t-63 40t-64.5 21.5t-57 8.5v-489z" />
<glyph unicode="&#xe40;" horiz-adv-x="692" d="M447 359q78 0 134 -55.5t56 -134.5q0 -78 -56 -133t-134 -55q-109 0 -166.5 66.5t-57.5 200.5v873h162v-773q30 11 62 11zM447 76q39 0 67 28.5t28 68.5q0 37 -28 64t-67 27q-38 0 -65.5 -27t-27.5 -64q0 -40 27.5 -68.5t65.5 -28.5z" />
<glyph unicode="&#xe41;" horiz-adv-x="1158" d="M950 359q78 0 133.5 -55.5t55.5 -134.5q0 -78 -55.5 -133t-133.5 -55q-109 0 -166.5 66.5t-57.5 200.5v873h162v-773q30 11 62 11zM950 76q39 0 66.5 28.5t27.5 68.5q0 38 -27.5 64.5t-66.5 26.5q-38 0 -66 -27t-28 -64q0 -40 28 -68.5t66 -28.5zM447 359q78 0 134 -55.5 t56 -134.5q0 -78 -56 -133t-134 -55q-109 0 -166.5 66.5t-57.5 200.5v873h162v-773q30 11 62 11zM447 76q39 0 67 28.5t28 68.5q0 37 -28 64t-67 27q-38 0 -65.5 -27t-27.5 -64q0 -40 27.5 -68.5t65.5 -28.5z" />
<glyph unicode="&#xe42;" horiz-adv-x="893" d="M424 1152q0 77 -38 117t-140 59t-296 18q2 155 94 261t237 106q63 0 117.5 -12.5t111 -32t90.5 -26.5q94 -9 128 60l78 -93q-12 -40 -74 -73.5t-125 -25.5q-48 13 -106.5 36t-97.5 35t-72 11q-106 0 -163.5 -36t-57.5 -104q222 0 349 -72t127 -228v-802q24 9 62 9 q78 0 134 -55t56 -133q0 -79 -56 -134.5t-134 -55.5q-109 0 -166.5 67t-57.5 201v903zM648 78q39 0 67 27.5t28 67.5q0 39 -28 66t-67 27q-38 0 -65.5 -27t-27.5 -66q0 -40 27.5 -67.5t65.5 -27.5z" />
<glyph unicode="&#xe43;" horiz-adv-x="968" d="M145 1475q33 18 73 18q78 0 134 -55t56 -133q0 -79 -56 -134.5t-134 -55.5q-76 0 -127 40.5t-71 99t-20 132.5q0 154 83 241t237 87q158 0 248 -70t93 -204v-1093q30 11 61 11q78 0 134 -55.5t56 -134.5q0 -78 -56 -133t-134 -55q-223 0 -223 268v1192q0 169 -177 169 q-135 0 -177 -135zM722 76q39 0 67 28.5t28 68.5q0 38 -28 65.5t-67 27.5q-38 0 -65.5 -28t-27.5 -65q0 -40 27.5 -68.5t65.5 -28.5zM218 1212q39 0 67 27t28 66q0 40 -28 67.5t-67 27.5q-38 0 -65.5 -27.5t-27.5 -67.5q0 -39 27.5 -66t65.5 -27z" />
<glyph unicode="&#xe44;" horiz-adv-x="893" d="M648 361q77 0 133.5 -56t56.5 -132q0 -79 -56.5 -135.5t-133.5 -56.5q-109 0 -166.5 67t-57.5 201v1188q0 133 -11 127h-16l-112 -244h-117q-124 293 -172 344l114 64q27 -24 134 -287l123 276h56q163 -16 163 -229v-1138q30 11 62 11zM648 78q39 0 67 28t28 67t-28 66 t-67 27q-38 0 -65.5 -27t-27.5 -66t27.5 -67t65.5 -28z" />
<glyph unicode="&#xe45;" horiz-adv-x="1024" d="M866 -447h-162v1190q0 57 -4.5 98t-19 81.5t-39.5 65.5t-68 40.5t-102 14.5q-133 0 -221.5 -55t-115.5 -169l-97 64q102 273 434 273q80 0 148.5 -21t125 -63.5t89 -117t32.5 -172.5v-1229z" />
<glyph unicode="&#xe46;" horiz-adv-x="1470" d="M948 1162q121 -30 208.5 -110t90.5 -171v-1328h-163v1320q0 46 -46.5 96.5t-91.5 69.5q-105 -112 -151 -112q-17 0 -37.5 10.5t-45 32t-35.5 32.5l-33 33q-47 -18 -89.5 -68.5t-42.5 -100.5q41 22 89 22q77 0 133.5 -56t56.5 -134t-56 -134t-134 -56q-49 3 -89 22 t-65.5 47.5t-43 66t-24.5 75t-7 76.5q0 133 73.5 232.5t194.5 130.5q29 -38 75.5 -78.5t79.5 -40.5q47 0 153 123zM601 793q-39 0 -67 -27.5t-28 -67.5q0 -39 28 -66t67 -27t67 27t28 66q0 40 -28 67.5t-67 27.5z" />
<glyph unicode="&#xe47;" d="M-501 1415q-4 18 -4 26q0 55 39 93.5t94 38.5t93.5 -38.5t38.5 -93.5q0 -57 -41 -102t-106 -45q-44 0 -99 30t-104 59.5t-80 29.5q-41 0 -60.5 -30t-23.5 -72h-95q-51 23 -96 86.5t-45 129.5q0 93 83 159t185 66q36 0 83.5 -2.5t83.5 -5t76 -3.5t68 3t52 13.5t36.5 28.5 t13.5 48l106 -37q-11 -40 -31.5 -68t-52.5 -43.5t-64.5 -23.5t-81 -9t-88 0t-100 3.5t-101.5 2.5q-56 0 -111 -38.5t-55 -93.5q0 -72 86 -125q19 52 47 78t85 26q25 -2 56 -17t49 -27.5t64 -46.5zM-372 1374q28 0 47.5 19.5t19.5 45.5q0 29 -19.5 49t-47.5 20t-47.5 -20 t-19.5 -49q0 -26 19.5 -45.5t47.5 -19.5z" />
<glyph unicode="&#xe48;" d="M-184 1823h-140v337h140v-337z" />
<glyph unicode="&#xe49;" d="M-54 2216l106 -66q-133 -350 -609 -350v71q66 35 103 112q-3 0 -9.5 -1t-9.5 -1q-55 0 -93.5 38.5t-38.5 93.5t38.5 93.5t93.5 38.5q67 0 106 -43t39 -113q0 -77 -89 -182q272 26 363 309zM-473 2044q26 0 45.5 20.5t19.5 46.5q0 29 -19 49t-46 20q-28 0 -47.5 -20 t-19.5 -49q0 -27 20 -47t47 -20z" />
<glyph unicode="&#xe4a;" d="M84 2175q-4 -117 -62 -199.5t-147 -121.5t-201 -41q39 111 39 181q0 46 -17.5 77t-34.5 31q-16 -25 -44.5 -44t-65.5 -23q-79 7 -115 67q-40 -8 -47 -61q52 0 87.5 -35.5t35.5 -85.5q0 -51 -37.5 -86t-85.5 -35q-58 0 -99.5 42.5t-41.5 107.5q0 99 50.5 170t141.5 87 q10 -26 46.5 -55t64.5 -29q24 -3 66.5 31t47.5 53q74 -12 119 -73t45 -139q0 -20 -15 -63q79 29 122 104.5t40 180.5zM-611 1854q27 0 47 19.5t20 46.5t-20 47t-47 20q-26 0 -45.5 -19.5t-19.5 -47.5t19 -47t46 -19z" />
<glyph unicode="&#xe4b;" d="M-69 1944h-119v-123h-134v123h-121v121h121v117h134v-117h119v-121z" />
<glyph unicode="&#xe4c;" d="M35 2173q7 -55 -74.5 -108t-249.5 -103q45 -39 58 -82q19 -65 -15 -128q-32 -60 -97 -80q-67 -19 -130 15q-62 30 -82 104q-27 96 23 159.5t178 103.5q138 38 201.5 78t53.5 85zM-367 1756q29 9 44 37t6 61q-10 30 -38 46t-56 8q-35 -10 -51.5 -38.5t-8.5 -59.5 q10 -34 39.5 -49t64.5 -5z" />
<glyph unicode="&#xe4d;" d="M-333 1674q77 0 132.5 -56t55.5 -134t-55.5 -134t-132.5 -56q-79 0 -134.5 56t-55.5 134t55.5 134t134.5 56zM-333 1391q39 0 67 27t28 66q0 40 -28 67.5t-67 27.5t-67 -27.5t-28 -67.5q0 -39 28 -66t67 -27z" />
<glyph unicode="&#xe4e;" d="M-855 1361q-89 -52 -195 -52q-110 0 -178 49.5t-68 121.5q0 100 104 134q-76 29 -76 101q0 77 57 122.5t153 41.5q10 0 56.5 -2t61 -1t47 5t54 15t42.5 29l-4 -58q-74 -100 -253 -100q-98 0 -98 -52q0 -28 30 -38.5t120 -10.5v-104q-169 0 -169 -82q0 -54 121 -54 q78 0 138 41z" />
<glyph unicode="&#xe4f;" horiz-adv-x="1154" d="M575 951q116 0 215.5 -59.5t156.5 -158t57 -210.5q0 -175 -128.5 -300.5t-300.5 -125.5q-174 0 -299 126.5t-125 301.5t127 300.5t297 125.5zM575 210q133 0 225 93.5t92 221.5q0 131 -94.5 222t-222.5 91q-131 0 -221.5 -92.5t-90.5 -220.5q0 -133 92 -224t220 -91z M575 689q68 0 117 -49t49 -115q0 -68 -49 -117t-117 -49q-66 0 -114 48.5t-48 117.5q0 70 47 117t115 47z" />
<glyph unicode="&#xe50;" horiz-adv-x="1288" d="M642 881q207 0 352 -131.5t145 -317.5q0 -123 -66 -226.5t-180.5 -164t-250.5 -60.5q-134 0 -247.5 60.5t-179.5 164.5t-66 226t66 225.5t179.5 163.5t247.5 60zM642 117q143 0 244 92t101 223q0 128 -101.5 220.5t-243.5 92.5q-143 0 -243.5 -92t-100.5 -221 q0 -131 100 -223t244 -92z" />
<glyph unicode="&#xe51;" horiz-adv-x="1398" d="M778 220l-7 5q-42 -24 -90 -24q-74 0 -125 51t-51 124q0 74 51 125.5t125 51.5q104 0 162.5 -69.5t50.5 -193.5q-7 -122 -96 -209.5t-212 -87.5q-182 0 -309.5 124.5t-127.5 301.5q0 86 32.5 162t87 130.5t125 94.5t148.5 60t156 20q149 0 273.5 -59.5t201 -173.5 t76.5 -260q0 -254 -223 -481l-103 58q181 216 181 423q0 84 -34.5 153.5t-92.5 113t-130.5 67t-150.5 23.5q-103 0 -193 -41t-146.5 -119t-56.5 -175q0 -130 81 -218.5t205 -88.5q146 0 192 112zM681 290q36 0 62 26t26 62t-26 61.5t-62 25.5t-61.5 -25.5t-25.5 -61.5 t25.5 -62t61.5 -26z" />
<glyph unicode="&#xe52;" horiz-adv-x="1480" d="M367 125h702q32 0 61.5 31.5t29.5 66.5v373q0 81 -28 131.5t-71 50.5q-50 0 -80 -30.5t-31 -88.5h-75q-3 52 -34 85.5t-76 33.5q-54 0 -84.5 -40t-30.5 -118v-45q33 15 71 15q73 0 124.5 -51t51.5 -124q0 -74 -51.5 -125.5t-123.5 -51.5q-225 0 -225 268v90 q0 128 67.5 208t170.5 80q116 0 179 -108q50 108 175 108q102 0 162 -76.5t60 -211.5v-415q0 -66 -63.5 -122.5t-152.5 -56.5h-877v992q0 35 -10 68t-21 51.5t-23.5 36.5t-14.5 21l128 95q2 -4 21.5 -35t32 -55t24.5 -68t12 -88v-895zM721 330q36 0 61.5 24.5t25.5 60.5 t-25.5 63t-61.5 27t-62 -27t-26 -63t26 -60.5t62 -24.5z" />
<glyph unicode="&#xe53;" horiz-adv-x="1457" d="M168 501q0 196 79 289.5t246 93.5q151 0 242 -162q81 162 237 162q318 0 318 -383v-501h-143v501q0 285 -175 285q-75 0 -118.5 -65t-43.5 -179v-542h-145v542q0 113 -47 178.5t-125 65.5q-175 0 -175 -285v-183q37 15 73 15q72 0 123.5 -51.5t51.5 -123.5 q0 -74 -51 -125.5t-124 -51.5q-109 0 -166 67t-57 201v252zM391 71q36 0 61.5 25.5t25.5 61.5t-25.5 63t-61.5 27t-62.5 -27t-26.5 -63t26.5 -61.5t62.5 -25.5z" />
<glyph unicode="&#xe54;" horiz-adv-x="1489" d="M842 263q46 -50 118 -86t152 -36q132 0 208 -35l-76 -119q-89 37 -198 37q-67 0 -227 -20q-166 -17 -186 -17q-209 0 -350 121q-134 123 -134 311q0 76 29 148t84 134t145.5 105.5t203.5 57.5h229q54 -1 98.5 5t78.5 15.5t61.5 28.5t47 37t35 48.5t25 55.5t18 65.5t13 71 t10.5 79.5l143 -39q-9 -71 -22 -125.5t-37 -111.5t-62.5 -98t-94 -76t-136.5 -54.5t-184 -24.5h-220q-81 -11 -143.5 -44t-98.5 -79t-54 -96.5t-18 -102.5q0 -131 92 -216.5t241 -85.5q58 0 212 34q-68 41 -113.5 107.5t-50.5 126.5q-10 108 47 173.5t158 65.5q73 0 125 -52 t52 -125t-52 -125t-125 -52q-28 0 -41 4zM799 449q0 -37 25.5 -62.5t61.5 -25.5t62 25.5t26 62.5q0 36 -26 61.5t-62 25.5t-61.5 -25.5t-25.5 -61.5z" />
<glyph unicode="&#xe55;" horiz-adv-x="1489" d="M611 862h72q-18 39 -18 80q0 73 51.5 125t125.5 52q71 0 123 -52t52 -125q0 -29 -12 -63q42 12 74.5 31.5t55 49.5t37.5 59t25.5 75t16.5 82t13 94l143 -45q-7 -60 -17.5 -107t-29.5 -97.5t-45 -88.5t-66.5 -73.5t-92.5 -59t-124.5 -39t-160.5 -19.5h-220 q-81 -11 -143.5 -44.5t-98.5 -80t-54 -97t-18 -102.5q0 -131 92 -216.5t241 -85.5q21 0 48.5 3.5t44 6.5t61 12t58.5 12q-68 41 -113.5 108t-50.5 128q-10 107 47 172t158 65q73 0 125 -52t52 -123q0 -74 -52 -126.5t-125 -52.5q-22 0 -41 6l-3 -13q47 -49 119 -85t151 -36 q128 0 208 -34l-76 -119q-92 35 -198 35q-83 0 -227 -18q-136 -17 -186 -17q-213 0 -350 121q-134 120 -134 309q0 76 29 148t84 134t145.5 105.5t203.5 57.5zM799 447q0 -36 25.5 -61t61.5 -25t62 25t26 61t-26 62.5t-62 26.5t-61.5 -26.5t-25.5 -62.5zM842 856 q36 0 61.5 26t25.5 62t-25.5 61.5t-61.5 25.5t-63 -25.5t-27 -61.5t27 -62t63 -26z" />
<glyph unicode="&#xe56;" horiz-adv-x="1303" d="M676 817q128 0 236 -50.5t174 -148t66 -223.5q0 -121 -64 -217.5t-164.5 -146.5t-216.5 -50q-146 0 -243 77q-95 85 -95 191q0 73 51.5 125t125.5 52q73 0 124 -52t51 -125q0 -84 -68 -137q21 -21 54 -21q125 0 210 91t85 213t-91 210t-233 88q-195 0 -408 -142l-37 54 q-68 336 -214 600l134 61q95 -197 136 -566l16 -4q70 49 180.5 85t190.5 36zM546 164q36 0 61.5 25.5t25.5 61.5t-25.5 62t-61.5 26t-63 -26t-27 -62t27 -61.5t63 -25.5z" />
<glyph unicode="&#xe57;" horiz-adv-x="1712" d="M1393 283v668q0 42 12 81.5t23 59.5t31 47.5t21 29.5l142 -54q-3 -4 -15.5 -20.5t-18.5 -25t-16.5 -27t-15.5 -34t-9.5 -38t-4.5 -45.5v-683q-16 -81 -89 -141t-166 -86.5t-189 -23.5v501q14 284 -148 284q-76 0 -120 -65t-44 -179v-124h-144v124q0 113 -47.5 178.5 t-125.5 65.5q-151 0 -151 -284v-174q37 15 73 15q72 0 123.5 -51.5t51.5 -123.5q0 -74 -51 -125.5t-124 -51.5q-109 0 -166 67t-57 201v243q0 383 312 383q141 0 231 -162q81 162 239 162q303 0 292 -383v-377q81 4 111 41t40 127zM391 71q36 0 61.5 25.5t25.5 61.5 t-25.5 63t-61.5 27t-62.5 -27t-26.5 -63t26.5 -61.5t62.5 -25.5z" />
<glyph unicode="&#xe58;" horiz-adv-x="1601" d="M1212 534q100 0 155 -64t50 -172q-5 -138 -67 -225.5t-183 -91.5q-57 0 -114 26t-103 63t-88.5 74t-84.5 63t-77 26q-29 0 -46.5 -25.5t-21 -69t-3.5 -75t3 -68.5q1 -9 1 -12q-209 0 -350 121q-134 123 -134 311q0 76 29 148t84 134t145.5 105.5t203.5 57.5h253 q54 -1 98.5 5t78.5 15.5t61.5 28.5t47 37t35 48.5t25 55.5t18 65.5t13 71t10.5 79.5l144 -39q-7 -61 -17.5 -108t-29 -98.5t-45 -89.5t-67 -74t-92.5 -60t-124.5 -40t-161.5 -20h-244q-81 -11 -143.5 -44t-98.5 -79t-54 -96.5t-18 -102.5q0 -102 57 -178t155 -107 q4 117 53 179t135 62q52 0 104 -28t94.5 -68t84 -80t89.5 -68t95 -28q54 0 89 26.5t42 77.5q-43 -22 -86 -22q-73 0 -125 52t-52 126q0 71 52 123t125 52zM1212 274q36 0 62 24.5t26 60.5q0 37 -26 63.5t-62 26.5q-37 0 -63 -26t-26 -64q0 -36 25.5 -60.5t63.5 -24.5z" />
<glyph unicode="&#xe59;" horiz-adv-x="1601" d="M168 492q3 385 331 385q136 0 251 -156q23 34 29.5 43t26 35t29.5 34t28 22t35 18t37 4q40 0 78 -25.5t68 -65t56.5 -80t55 -79t51.5 -54.5q58 0 79 101q16 74 23 327q1 43 2 64v123l145 -28v-93q0 -105 -6 -189t-23 -168t-45 -140t-75.5 -90.5t-110.5 -34.5 q-37 0 -74 32t-66 77.5t-55.5 90.5t-52.5 77t-47 32q-71 0 -109 -175q58 -111 130.5 -314.5t101.5 -271.5h-154q-11 31 -31.5 101t-40.5 136.5t-47.5 147.5t-58 148.5t-66 125.5t-78 90.5t-86.5 32.5q-87 0 -132 -72t-45 -211l15 -174q38 17 71 17q73 0 125 -51.5t52 -125.5 t-51.5 -124.5t-125.5 -50.5q-106 0 -159.5 64.5t-64.5 201.5zM408 73q37 0 63 25t26 62q0 36 -26.5 62t-62.5 26q-35 0 -61.5 -26t-26.5 -62q0 -37 26 -62t62 -25z" />
<glyph unicode="&#xe5a;" horiz-adv-x="1498" d="M330 780q141 -53 248 -21.5t170 129t62 229.5h166v-1117h-164v804q-35 -52 -89.5 -90.5t-115.5 -56t-126 -20.5t-124 17.5t-106 56.5t-74.5 98.5t-27.5 141.5q0 70 50 120t121 50q69 0 119.5 -50.5t50.5 -119.5q0 -68 -46.5 -117t-113.5 -54zM320 868q36 0 61 24.5 t25 60.5q0 35 -25.5 59.5t-60.5 24.5t-60 -24.5t-25 -59.5q0 -36 25 -60.5t60 -24.5zM1331 0h-149v1119h149v-1119z" />
<glyph unicode="&#xe5b;" horiz-adv-x="1973" d="M1411 650l-102 -145l-86 145l-98 -211l-82 214l-90 -245l-117 223q-25 -212 -124 -334t-237 -122q-134 0 -227.5 121t-98.5 315q0 191 74 307.5t198 116.5q101 0 163 -80.5t62 -204.5t-58 -191q-45 -58 -104 -58q-55 0 -90 43t-35 109q0 62 35 106.5t90 44.5q46 0 71 -29 q0 84 -37.5 132t-96.5 48q-81 0 -133.5 -89t-52.5 -226q0 -171 67.5 -277t172.5 -106q123 0 206.5 145t83.5 371v31l-4 49l43 50l138 -318l95 271l97 -236l85 175l95 -160l69 93l183 2q148 -8 242 22q-71 -69 -238 -102h-159zM426 653q0 -33 16.5 -54.5t39.5 -21.5 q27 0 42.5 21t15.5 55q0 35 -15.5 57t-42.5 22q-23 0 -39.5 -23t-16.5 -56z" />
<glyph unicode="&#x2000;" horiz-adv-x="1122" />
<glyph unicode="&#x2001;" horiz-adv-x="2245" />
<glyph unicode="&#x2002;" horiz-adv-x="1122" />
<glyph unicode="&#x2003;" horiz-adv-x="2245" />
<glyph unicode="&#x2004;" horiz-adv-x="748" />
<glyph unicode="&#x2005;" horiz-adv-x="561" />
<glyph unicode="&#x2006;" horiz-adv-x="374" />
<glyph unicode="&#x2007;" horiz-adv-x="374" />
<glyph unicode="&#x2008;" horiz-adv-x="280" />
<glyph unicode="&#x2009;" horiz-adv-x="449" />
<glyph unicode="&#x200a;" horiz-adv-x="124" />
<glyph unicode="&#x2010;" horiz-adv-x="986" d="M801 668v-158h-615v158h615z" />
<glyph unicode="&#x2011;" horiz-adv-x="986" d="M801 668v-158h-615v158h615z" />
<glyph unicode="&#x2012;" horiz-adv-x="986" d="M801 668v-158h-615v158h615z" />
<glyph unicode="&#x2013;" horiz-adv-x="1079" d="M894 668v-158h-708v158h708z" />
<glyph unicode="&#x2014;" horiz-adv-x="1405" d="M1219 668v-158h-1033v158h1033z" />
<glyph unicode="&#x2018;" horiz-adv-x="417" d="M112 1117v203q0 131 43 203t126 115l24 -48q-69 -44 -87.5 -101t-18.5 -169h101v-203h-188z" />
<glyph unicode="&#x2019;" horiz-adv-x="417" d="M305 1638v-203q0 -131 -43 -203t-126 -115l-24 48q67 44 85.5 101t18.5 169h-101v203h190z" />
<glyph unicode="&#x201c;" horiz-adv-x="741" d="M434 1119v203q0 130 43 202.5t126 113.5l26 -48q-69 -42 -87.5 -99t-18.5 -169h101v-203h-190zM112 1119v203q0 129 43.5 202t125.5 114l26 -48q-69 -42 -87.5 -99t-18.5 -169h101v-203h-190z" />
<glyph unicode="&#x201d;" horiz-adv-x="739" d="M305 1638v-203q0 -131 -43 -203t-126 -115l-24 48q67 44 85.5 101t18.5 169h-101v203h190zM627 1638v-203q0 -131 -43 -203t-126 -115l-24 48q67 44 85.5 101t18.5 169h-100v203h189z" />
<glyph unicode="&#x2022;" horiz-adv-x="943" d="M475 153q-116 0 -202.5 84.5t-86.5 200.5q0 115 86.5 199.5t202.5 84.5q113 0 198 -84.5t85 -199.5q0 -114 -85.5 -199.5t-197.5 -85.5z" />
<glyph unicode="&#x2026;" horiz-adv-x="1349" d="M240 127q28 0 49.5 -21.5t21.5 -49.5t-21.5 -49.5t-49.5 -21.5q-29 0 -50.5 21.5t-21.5 49.5t21.5 49.5t50.5 21.5zM676 127q28 0 49.5 -21.5t21.5 -49.5t-21 -49.5t-50 -21.5q-28 0 -49.5 21.5t-21.5 49.5t21.5 49.5t49.5 21.5zM1112 127q28 0 49 -21.5t21 -49.5 t-21 -49.5t-49 -21.5q-29 0 -50 21.5t-21 49.5t21 49.5t50 21.5z" />
<glyph unicode="&#x202f;" horiz-adv-x="449" />
<glyph unicode="&#x205f;" horiz-adv-x="561" />
<glyph unicode="&#x20ac;" horiz-adv-x="1312" d="M1154 1231h-178q-1 75 -68 120t-150 45q-66 0 -122.5 -32.5t-97.5 -90t-70.5 -131.5t-46.5 -163h396v-115h-413q-9 -120 2 -242h411v-114h-394q23 -118 66.5 -207.5t113 -145.5t155.5 -56q90 0 159 45.5t75 121.5q190 4 190 0q-19 -136 -136 -213t-288 -77 q-103 0 -190.5 41.5t-150 115.5t-105.5 168.5t-66 206.5h-172v114h153q-11 121 0 242h-153v115h168q22 115 65 211.5t106.5 172.5t152 119t192.5 43q158 0 270.5 -83t125.5 -211z" />
<glyph unicode="&#x25fc;" horiz-adv-x="1135" d="M0 1136h1136v-1136h-1136v1136z" />
<glyph unicode="&#xee0d;" horiz-adv-x="1787" d="M1097 778v-653h270q32 0 61.5 31t29.5 66v895h162v-936q0 -67 -63.5 -124t-152.5 -57h-471v769q0 126 -89 199t-228 73q-117 0 -203.5 -44t-123.5 -116q83 -16 140.5 -48t101.5 -92q-76 -21 -122 -92t-46 -167v-130q30 11 61 11q77 0 133.5 -56t56.5 -134t-56.5 -134 t-133.5 -56q-223 0 -223 268v233q0 96 40 162t116 91q-21 30 -84.5 45t-142.5 15v39q39 151 176 235.5t314 84.5q77 0 146.5 -14.5t130 -45.5t104.5 -75t69.5 -106t26.5 -137zM424 268q-39 0 -66.5 -27t-27.5 -66t27.5 -67t66.5 -28t67 28t28 67t-28 66t-67 27z" />
<glyph unicode="&#xee10;" horiz-adv-x="1135" d="M464 1033h-8q-221 0 -221 -136q37 2 115 2q77 0 142.5 -5t135 -17.5t122.5 -36t96.5 -58t66.5 -87t23 -118.5l-14 -387q0 -33 -11.5 -66t-37 -66t-76 -54t-119.5 -21q-175 0 -226 153l-22 242q-51 -34 -106 -34q-78 0 -133 56t-55 134t54 134t132 56q96 0 148.5 -33.5 t82.5 -124.5l48 -384q12 -45 26 -59q18 -17 53 -17q36 0 57 16.5t21 61.5l18 384q0 46 -14 82.5t-37 61.5t-60 43.5t-75.5 29t-90.5 17t-99 8.5t-106 2q-36 0 -109.5 -1t-110.5 -1q5 157 92 250t247 94h4q86 0 207 -26.5t165 -32.5q7 -2 19 -2q92 0 115 63l88 -100 q-11 -37 -70 -65t-122 -28h-22q-70 14 -139.5 32.5t-109.5 28t-73 9.5h-11zM324 441q39 0 67 28t28 67t-28 66t-67 27q-38 0 -65.5 -27t-27.5 -66t27.5 -67t65.5 -28z" />
<glyph unicode="&#xee31;" d="M-415 1681h136q-32 -161 -148 -263t-282 -102q-140 0 -231 67t-91 166q0 65 46 111.5t110 46.5t109 -46t45 -110q0 -78 -57 -129q137 -36 245 39t118 220zM-875 1473q32 0 54 22t22 54q0 31 -22 53t-54 22t-54 -22t-22 -53q0 -32 22 -54t54 -22z" />
<glyph unicode="&#xee33;" horiz-adv-x="1035" d="M-560 1707q78 0 133.5 -55t55.5 -133q0 -79 -55.5 -134.5t-133.5 -55.5t-134 55.5t-56 134.5q0 78 56 133t134 55zM-560 1426q39 0 67 27t28 66t-28 67t-67 28q-38 0 -65.5 -28t-27.5 -67t27.5 -66t65.5 -27zM875 0h-164v743q0 56 -5 97.5t-20.5 81.5t-41 65t-69 40.5 t-102.5 15.5q-268 0 -320 -224l-97 64q16 44 34.5 78t52.5 72.5t76.5 64t108 42t145.5 16.5t150 -21t127.5 -63.5t91 -117t33.5 -172.5v-782z" />
<glyph unicode="&#xee34;" d="M-372 1333q-502 104 -911 19q14 119 79 199.5t155 111.5t195.5 24t201 -49.5t172.5 -122.5t108 -182zM-1121 1452q158 20 280 16.5t286 -29.5q-60 89 -171.5 129t-224.5 10.5t-170 -126.5z" />
<glyph unicode="&#xee35;" d="M-540 1752h132v-326l36 -87q-495 106 -900 18q8 89 50 157.5t104.5 107t140 55t155.5 7.5t152.5 -42t129.5 -86v196zM-549 1443q-63 90 -174 130t-222 11t-167 -124q310 37 563 -17z" />
<glyph unicode="&#xee36;" d="M-748 1668l16 -7q8 63 52.5 102t104.5 39q73 0 122 -44.5t45 -115.5q-3 -43 -24 -78t-54 -52q31 -39 44 -56t34.5 -51t35.5 -66q-491 105 -909 22q13 84 49 148t87 100t116 56.5t135.5 18.5t145.5 -16zM-553 1445q-52 66 -130 105.5t-158 45.5t-156 -27.5t-120 -105.5 q161 19 284 14.5t280 -32.5zM-570 1731q-41 0 -63.5 -25.5t-21 -56t24 -56t60.5 -25.5t60 25.5t23 56t-21 56t-62 25.5z" />
<glyph unicode="&#xee37;" d="M-657 1648q62 -29 117 -84v194h132v-324l36 -88q-505 105 -900 19q22 166 129 245t274 79q26 0 78 -8v77h134v-110zM-549 1450q-47 67 -125.5 106.5t-160 44.5t-158.5 -29.5t-119 -106.5q297 35 563 -15z" />
<glyph unicode="&#xee38;" d="M-320 -445q60 0 106 -32.5t46 -95.5v-291h-152v145q-60 0 -99 39.5t-39 96.5t40.5 97.5t97.5 40.5zM-320 -653q29 0 50 20.5t21 49.5t-21 50t-50 21q-28 0 -48.5 -21t-20.5 -50t20.5 -49.5t48.5 -20.5z" />
<glyph unicode="&#xee39;" d="M-309 -460h141v-395h-405v149q-62 -1 -100 36t-38 93q0 55 38.5 93.5t93.5 38.5t96 -30.5t47 -90.5v-188h127v294zM-579 -646q28 0 47.5 20t19.5 49q0 28 -19.5 47.5t-47.5 19.5t-47.5 -19.5t-19.5 -47.5q0 -29 19.5 -49t47.5 -20z" />
<glyph unicode="&#xee3a;" d="M-246 -465q33 0 59.5 -26.5t26.5 -59.5q0 -35 -26.5 -60.5t-59.5 -25.5q-34 0 -60.5 25.5t-26.5 60.5q0 34 26.5 60t60.5 26z" />
<glyph unicode="&#xee47;" d="M-652 1415q-3 13 -3 26q0 55 38.5 93.5t93.5 38.5t93.5 -38.5t38.5 -93.5q0 -57 -41 -102t-106 -45q-44 0 -99 30t-104 59.5t-80 29.5q-41 0 -60.5 -30t-23.5 -72h-95q-51 23 -96 86.5t-45 129.5q0 93 83 159t185 66q36 0 83.5 -2.5t83.5 -5t76 -3.5t68 3t52 13.5 t36.5 28.5t13.5 48l106 -37q-11 -40 -31.5 -68t-52.5 -43.5t-64.5 -23.5t-81 -9t-88 0t-100 3.5t-101.5 2.5q-56 0 -111 -38.5t-55 -93.5q0 -72 86 -125q19 52 47 78t85 26q25 -2 56 -17t49 -27.5t64 -46.5zM-523 1374q28 0 47.5 19.5t19.5 45.5q0 29 -19.5 49t-47.5 20 t-47.5 -20t-19.5 -49q0 -26 19.5 -45.5t47.5 -19.5z" />
<glyph unicode="&#xee48;" d="M-175 1329h-147v376h147v-376z" />
<glyph unicode="&#xee49;" d="M-93 1780l108 -65q-70 -201 -213.5 -292t-423.5 -105l-13 69q53 27 89.5 69t44.5 84q-3 0 -9 -1t-9 -1q-55 0 -94 38.5t-39 93.5t39 93.5t94 38.5q67 0 106 -43t39 -113q0 -43 -27.5 -108.5t-67.5 -116.5q305 48 376 359zM-519 1601q26 0 45.5 20.5t19.5 46.5 q0 29 -19 49t-46 20q-28 0 -47.5 -20t-19.5 -49q0 -27 20 -47t47 -20z" />
<glyph unicode="&#xee4a;" d="M-2 1715q-3 -96 -36.5 -171t-90 -121.5t-127.5 -71.5t-155 -27q39 117 39 192q0 54 -17.5 89t-34.5 35q-46 -72 -110 -67q-36 3 -68 21t-48 46q-39 -9 -46 -78q52 0 87.5 -35.5t35.5 -87.5q0 -49 -37.5 -84t-85.5 -35q-59 0 -100.5 42t-41.5 109q0 106 50.5 182t141.5 93 q10 -25 46.5 -52.5t65.5 -32.5q24 -3 66 31t47 54q74 -14 119 -80t45 -150q0 -27 -15 -77q79 33 122 116t40 201zM-696 1376q27 0 47 18.5t20 44.5q0 29 -20 48t-47 19t-46 -19t-19 -48q0 -26 19.5 -44.5t45.5 -18.5z" />
<glyph unicode="&#xee4b;" d="M-58 1469h-137v-142h-135v142h-139v123h139v134h135v-134h137v-123z" />
<glyph unicode="&#xee4c;" d="M76 1799q14 -109 -324 -213q45 -35 58 -82q19 -66 -15 -126q-32 -60 -97 -80q-70 -19 -130 13q-62 33 -82 106q-54 191 201 262q137 38 201 78.5t54 83.5zM-326 1381q28 7 44 36.5t6 62.5q-10 30 -38.5 46t-56.5 8q-34 -10 -50.5 -38.5t-8.5 -60.5q10 -34 39.5 -49.5 t64.5 -4.5z" />
<glyph unicode="&#xee4d;" d="M-313 2001q77 0 132.5 -55.5t55.5 -133.5t-55.5 -134t-132.5 -56q-79 0 -134.5 56t-55.5 134t55.5 133.5t134.5 55.5zM-313 1718q39 0 67 27.5t28 66.5q0 40 -28 67.5t-67 27.5t-67 -27.5t-28 -67.5q0 -39 28 -66.5t67 -27.5z" />
<glyph unicode="&#xf0e48;" d="M-477 1329h-147v376h147v-376z" />
<glyph unicode="&#xf0e49;" d="M-398 1780l106 -65q-70 -209 -209.5 -297.5t-427.5 -99.5l-13 69q54 27 89.5 69t44.5 84q-3 0 -9.5 -1t-9.5 -1q-55 0 -93.5 38.5t-38.5 93.5t38.5 93.5t93.5 38.5q68 0 107 -43t39 -113q0 -43 -27 -108.5t-67 -116.5q305 51 377 359zM-827 1601q27 0 47 20t20 47 q0 29 -19.5 49t-47.5 20t-47.5 -20t-19.5 -49q0 -27 20 -47t47 -20z" />
<glyph unicode="&#xf0e4a;" d="M-324 1715q-4 -127 -62 -216t-146.5 -130.5t-201.5 -44.5q40 120 40 192q0 54 -18 89t-35 35q-46 -72 -109 -67q-36 3 -68 21t-48 46q-39 -9 -46 -78q52 0 87 -35.5t35 -87.5q0 -49 -37 -84t-85 -35q-59 0 -100.5 42t-41.5 109q0 106 50.5 182t141.5 93 q10 -25 46.5 -52.5t65.5 -32.5q24 -3 66 31t47 54q74 -14 119 -80t45 -150q0 -26 -15 -73q79 33 122 115t40 198zM-1018 1376q27 0 47 18.5t20 44.5q0 29 -20 48t-47 19t-46.5 -19t-19.5 -48q0 -26 19.5 -44.5t46.5 -18.5z" />
<glyph unicode="&#xf0e4b;" d="M-428 1493h-140v-141h-134v141h-140v121h140v136h134v-136h140v-121z" />
<glyph unicode="&#xf0e4c;" d="M-184 1813q16 -109 -324 -210q43 -31 57 -82q18 -64 -13 -128q-34 -61 -98 -80q-69 -20 -129 14q-62 33 -82 105q-55 194 201 264q272 72 255 162zM-585 1396q27 9 42.5 37.5t6.5 61.5q-8 30 -37 46t-56 8q-35 -9 -52 -38t-8 -59q10 -35 39 -50.5t65 -5.5z" />
<glyph unicode="&#xf0e4d;" d="M-652 1707q78 0 134 -55t56 -133q0 -79 -56 -134.5t-134 -55.5t-134 55.5t-56 134.5q0 78 56 133t134 55zM-652 1426q39 0 67 27t28 66t-28 67t-67 28q-38 0 -66.5 -28t-28.5 -67q0 -38 28.5 -65.5t66.5 -27.5z" />
<glyph unicode="&#xfee48;" d="M-408 1819h-138v337h138v-337z" />
<glyph unicode="&#xfee49;" d="M-238 2214l106 -64q-131 -350 -609 -350v69q64 34 102 112q-3 0 -9 -1t-9 -1q-55 0 -93.5 38.5t-38.5 93.5t38.5 93.5t93.5 38.5q68 0 106.5 -43t38.5 -113q0 -77 -89 -182q272 26 363 309zM-657 2044q26 0 46.5 19.5t20.5 45.5q0 29 -20 49t-47 20q-28 0 -47.5 -20 t-19.5 -49q0 -26 19.5 -45.5t47.5 -19.5z" />
<glyph unicode="&#xfee4a;" d="M-128 2162q-4 -117 -62.5 -199.5t-147.5 -121.5t-200 -41q39 110 39 181q0 46 -18.5 77t-35.5 31q-41 -67 -100 -67h-8q-79 7 -115 67q-41 -9 -47 -61q51 0 86 -35t35 -86t-36.5 -86.5t-84.5 -35.5q-58 0 -99.5 43t-41.5 108q0 99 49.5 170t141.5 87q8 -24 45.5 -52 t66.5 -33h2q24 0 65.5 33.5t44.5 51.5q76 -12 120.5 -72.5t44.5 -139.5q0 -23 -14 -63q76 28 118 98t42 170v17zM-823 1841q27 0 47 19.5t20 46.5t-20 46t-47 19q-28 0 -46.5 -18.5t-18.5 -46.5t18.5 -47t46.5 -19z" />
<glyph unicode="&#xfee4b;" d="M-292 1946h-119v-123h-135v123h-121v122h121v116h135v-116h119v-122z" />
<glyph unicode="&#xfee4c;" d="M-65 2132v-10q0 -104 -324 -201q45 -39 58 -82q7 -30 7 -48q0 -42 -22 -80q-32 -60 -97 -80q-20 -7 -49 -7q-41 0 -81 20q-62 33 -82 106q-10 31 -10 65q0 142 211 198q257 71 257 150q0 2 -1 6t-1 6zM-467 1715q23 7 38.5 27.5t15.5 46.5q0 10 -4 24q-7 25 -28.5 40.5 t-47.5 15.5q-13 0 -19 -2q-28 -8 -44.5 -30t-16.5 -48q0 -17 1 -20q8 -26 29.5 -42t47.5 -16q19 0 28 4z" />
<glyph unicode="&#xfee4d;" d="M-534 1985q78 0 134 -55.5t56 -134.5q0 -78 -56 -133t-134 -55t-134 55t-56 133q0 79 56 134.5t134 55.5zM-534 1702q39 0 67 28t28 67t-28 66t-67 27q-38 0 -66.5 -27.5t-28.5 -65.5q0 -39 28.5 -67t66.5 -28z" />
</font>
</defs>
</svg>
