<?xml version="1.0" standalone="no"?>
<!DOCTYPE svg PUBLIC "-//W3C//DTD SVG 1.1//EN" "http://www.w3.org/Graphics/SVG/1.1/DTD/svg11.dtd" >
<svg xmlns="http://www.w3.org/2000/svg" xmlns:xlink="http://www.w3.org/1999/xlink" version="1.1">
<metadata></metadata>
<defs>
<font id="cs_prakasfdbold" horiz-adv-x="0" >
<font-face units-per-em="2048" ascent="1638" descent="-410" />
<missing-glyph horiz-adv-x="670" />
<glyph unicode=" "  horiz-adv-x="670" />
<glyph unicode="&#x09;" horiz-adv-x="670" />
<glyph unicode="&#xa0;" horiz-adv-x="670" />
<glyph unicode="!" horiz-adv-x="832" d="M544 1348l-47 -991h-160l-45 991v87h252v-87zM415 253q25 0 52 -11t43 -30q22 -16 32 -41q11 -24 11 -46q0 -51 -39 -90q-42 -39 -99 -39q-56 0 -95 39q-41 38 -41 90q0 22 11 46q10 24 30 41q15 18 41 30q30 11 54 11z" />
<glyph unicode="&#x22;" horiz-adv-x="936" d="M750 1501l-37 -442h-115l-43 442v87h195v-87zM384 1501l-40 -442h-115l-43 440v89h198v-87z" />
<glyph unicode="#" horiz-adv-x="1452" d="M963 456l-112 -456h-192l112 456h-229l-112 -456h-192l114 456h-166v179h209q11 55 28 121q3 10 13 54t18 71h-268v178h313q23 95 54 220l54 216h190l-108 -436h233l106 436h191l-107 -436h154v-178h-197q-2 -7 -8 -30t-9 -34q-3 -9 -7.5 -28t-7.5 -29t-8 -30.5t-7 -29.5 q-4 -11 -17 -65h261v-179h-303zM814 635q3 9 8 30.5t8 32.5q3 10 7.5 29t7.5 29t7.5 29t7.5 29l17 67h-229q-2 -7 -8 -30t-9 -34t-13 -57q-10 -31 -15 -60q-2 -6 -17 -65h228z" />
<glyph unicode="$" horiz-adv-x="1344" d="M601 732l-150 61q-68 30 -134 75q-62 47 -94 96q-35 51 -35 129q0 85 35 160q38 69 97 115q52 45 131 73q73 28 150 37v168h138v-168q86 -10 151 -33q71 -26 127 -71q62 -51 95 -115q37 -73 46 -164h-173q-6 56 -30 95q-24 40 -58 69q-36 29 -78 44q-28 14 -80 26v-491 q30 -12 151 -67q71 -37 134 -86q66 -61 93 -113q36 -59 39 -149q3 -202 -106 -293q-110 -95 -311 -108v-199h-138v201q-98 9 -169 39q-67 27 -115 69q-42 39 -71 88q-28 57 -36 87q-13 52 -13 77q-3 16 -3 48l171 2q0 -96 54 -170t182 -93v561zM739 169q129 10 192 77 q66 66 63 180q0 48 -22 80q-19 38 -56 69q-39 32 -82 58q-86 43 -95 47v-511zM601 1329q-51 -9 -98 -29q-39 -18 -82 -54q-36 -32 -52 -71q-21 -36 -21 -84q0 -29 21 -60q18 -24 55 -50q32 -22 82 -46q16 -7 47.5 -21.5t47.5 -21.5v437z" />
<glyph unicode="%" horiz-adv-x="1614" d="M1341 1493l-883 -1495h-173l884 1495h172zM1184 652q72 0 129 -26q54 -25 95 -69q39 -46 55 -99q21 -55 21 -119q0 -145 -76 -227q-78 -84 -224 -84q-145 0 -220 84q-74 80 -74 227q0 69 19 126q21 60 55 97q30 38 94 67q54 23 126 23zM1184 134q79 0 127 58 q44 57 44 147q0 99 -50 149q-50 54 -121 54q-72 0 -119 -50q-48 -52 -48 -153t48 -153t119 -52zM428 1469q70 0 127 -26q53 -26 93 -69q41 -48 56 -101q20 -49 20 -117q0 -147 -76 -229q-73 -82 -220 -82q-146 0 -223 86q-75 87 -75 225q0 71 19 125q17 51 56 100 q43 43 95 64q52 24 128 24zM428 953q78 0 123 56q47 57 47 147q0 98 -51 151q-52 54 -119 54q-71 0 -119 -52q-50 -51 -50 -153q0 -101 50 -151q48 -52 119 -52z" />
<glyph unicode="&#x26;" horiz-adv-x="1668" d="M1300 2l-17 17l-39 39q-6 8 -45 46q-30 30 -45 47q-6 7 -20 22.5t-21 23.5q-97 -111 -208 -163q-112 -53 -242 -53q-88 0 -181 32q-85 29 -151 89q-67 58 -106 136q-39 75 -39 170q0 275 382 456q-101 107 -140 177q-43 77 -43 151q0 71 32 137q31 58 86 105 q57 42 119 63q63 22 130 22q69 0 132 -22q71 -28 110 -67q46 -35 77 -99q27 -55 27 -125q0 -108 -76 -201q-74 -89 -229 -171q57 -70 153 -190q17 -20 47.5 -58t56.5 -70t50 -60q47 80 73 181q30 96 33 238h175q6 -158 -40 -287q-44 -135 -135 -257q21 -24 71 -78 q27 -29 93 -91q50 -47 101 -89q67 -55 87 -71h-258zM562 1212q0 -72 41 -138q43 -69 106 -138q49 22 108 64q38 27 64 65q19 27 29 69q8 32 8 72q0 79 -47 129q-49 46 -126 46q-80 0 -131 -44q-52 -42 -52 -125zM715 931l-6 5q-2 0 -2 -1h-3zM650 763q-287 -164 -287 -344 q0 -60 24 -116q29 -53 67 -94q44 -38 97 -64q49 -24 114 -24q40 0 93 15q38 11 95 41q43 23 85 65q43 37 73 82z" />
<glyph unicode="'" horiz-adv-x="567" d="M382 1501l-38 -442h-115l-43 442v87h196v-87z" />
<glyph unicode="(" horiz-adv-x="780" d="M510 -220q-172 204 -257 440q-85 229 -85 474t85 485q93 244 257 437h177q-143 -231 -222 -465q-74 -239 -74 -453q0 -221 74 -450q70 -225 222 -468h-177z" />
<glyph unicode=")" horiz-adv-x="763" d="M95 -223q153 244 222 467q72 232 72 450q0 224 -74 453q-76 234 -222 465h179q172 -202 246 -439q78 -234 78 -482q0 -244 -86 -475q-82 -233 -257 -439h-158z" />
<glyph unicode="*" horiz-adv-x="990" d="M344 1233q-62 22 -119 39q-15 4 -54.5 17t-58.5 18l61 181l229 -79q0 82 -2 127t-2 123h192l-2 -250l229 79l62 -181l-233 -74l149 -196l-156 -115l-146 199q-13 -18 -39 -53t-37 -50q-14 -21 -40 -56.5t-29 -39.5l-154 119z" />
<glyph unicode="+" horiz-adv-x="1442" d="M1257 693h-425v-423h-223v423h-423v221h423v421h223v-421h425v-221z" />
<glyph unicode="," horiz-adv-x="633" d="M447 37q0 -68 -15 -126q-13 -51 -43 -95q-26 -38 -65 -69q-28 -24 -82 -54l-56 100q35 22 58 45q17 17 35 47q13 35 15 54q6 28 6 63h-95v257h242v-222z" />
<glyph unicode="-" horiz-adv-x="1029" d="M843 486h-657v221h657v-221z" />
<glyph unicode="." horiz-adv-x="606" d="M305 279q22 0 49 -11q18 -7 44 -30q24 -29 30 -44q11 -24 11 -53q0 -53 -37 -93q-36 -42 -97 -42q-60 0 -96 42q-41 38 -41 93q0 56 41 97q38 41 96 41z" />
<glyph unicode="/" horiz-adv-x="705" d="M687 1493l-473 -1495h-195l473 1495h195z" />
<glyph unicode="0" horiz-adv-x="1396" d="M698 1512q129 0 229 -52q102 -51 175 -151q73 -101 108 -240q37 -146 37 -322q0 -177 -37 -323q-35 -139 -108 -240q-72 -98 -175 -150q-101 -53 -229 -53t-229 53q-103 52 -175 150q-73 101 -108 240q-37 146 -37 323q0 176 37 322q35 139 108 240q73 100 175 151 q100 52 229 52zM698 164q84 0 147 41q61 39 105 115q41 76 63 183q20 112 20 244q0 131 -20 243q-22 107 -63 183q-44 76 -105 115q-63 41 -147 41t-147 -41q-67 -40 -104 -115q-43 -68 -63 -183q-21 -118 -21 -243q0 -126 21 -244q20 -115 63 -183q37 -75 104 -115 q63 -41 147 -41z" />
<glyph unicode="1" horiz-adv-x="1089" d="M532 0v1223q-56 -41 -137 -87q-54 -34 -153 -86v216q33 17 61 35q23 15 77 51q48 35 82 63q40 32 82 74h210v-1489h-222z" />
<glyph unicode="2" horiz-adv-x="1377" d="M1205 0h-1037v93v34q1 5 1 35q0 58 36 114q44 64 93 108q58 58 128 109q127 92 149 108q101 72 155 114q95 74 138 115q59 57 98 116q38 65 38 121q0 75 -25 126q-28 58 -67 84q-37 31 -97 49q-65 13 -117 13q-59 0 -117 -15q-50 -12 -97 -49q-39 -30 -65 -91 q-25 -54 -28 -140h-210q3 109 42 196q35 87 105 151q71 62 162 95q92 33 208 33q111 0 207 -30q92 -32 164 -89q70 -64 104 -143q37 -86 37 -190q0 -92 -50 -177t-129 -164q-81 -81 -173 -151q-74 -56 -186 -139q-112 -78 -179 -134q-79 -65 -108 -116h820v-186z" />
<glyph unicode="3" horiz-adv-x="1305" d="M160 1119q3 92 37 158q36 73 97 123q59 49 145 78q80 28 175 28q93 0 179 -26q89 -26 149 -76q63 -48 104 -123q38 -74 38 -162q0 -49 -19 -93q-18 -48 -48 -84q-26 -39 -71 -74q-41 -32 -84 -56q56 -22 117 -64q59 -40 93 -85q40 -46 62 -104q22 -54 22 -120 q0 -96 -43 -182q-41 -82 -115 -145q-73 -60 -173 -97q-100 -34 -211 -34q-91 0 -171 26q-84 26 -145 73q-64 45 -108 110q-47 71 -60 141h226q11 -45 31 -68q24 -32 56 -54q39 -24 78 -34q43 -13 93 -13q71 0 131 20q55 17 104 56q41 36 71 86q24 54 24 110q0 54 -24 113 q-33 59 -71 92q-41 38 -104 61q-57 22 -131 22h-87v172h87q55 0 99 18t80 49q34 31 56 72q19 48 19 86q0 46 -19 91q-25 44 -56 63q-32 27 -80 38q-46 13 -99 13q-104 0 -171 -52q-68 -53 -71 -153h-212z" />
<glyph unicode="4" horiz-adv-x="1331" d="M1219 285h-188v-285h-221v285h-698v173l744 1031h175v-1018h188v-186zM810 471v659q-148 -216 -225 -326q-183 -266 -229 -333h454z" />
<glyph unicode="5" horiz-adv-x="1325" d="M419 948q56 24 125 42q70 17 136 17q112 0 206 -39q93 -44 157 -110q62 -72 98 -162q36 -94 36 -203q0 -114 -38 -203q-31 -89 -102 -163q-68 -68 -162 -107q-91 -39 -207 -39h-37q-89 0 -169 26q-86 26 -145 75q-65 44 -108 112q-46 63 -60 139h225q13 -73 88 -123 q69 -46 169 -46h39q78 0 129 26q55 22 93 67q37 46 56 104q18 57 18 132q0 76 -18 133q-19 58 -56 104q-32 39 -93 71q-59 24 -129 24q-36 0 -78 -6q-16 -1 -80 -11q-13 -3 -37.5 -9.5t-35.5 -9.5q-37 -11 -52 -18q-55 7 -115 11q-18 2 -42.5 4t-30.5 3l75 702h836v-186 h-656z" />
<glyph unicode="6" horiz-adv-x="1359" d="M996 493q0 73 -19 133q-20 60 -55 104q-32 39 -93 71q-59 24 -129 24q-71 0 -130 -24q-61 -32 -93 -71q-37 -46 -56 -104q-19 -60 -19 -133q0 -72 19 -132q19 -58 56 -104q38 -45 93 -67q51 -26 130 -26q78 0 129 26q55 22 93 67q35 44 55 104q19 60 19 132zM700 1329 q-151 0 -235 -123q-83 -122 -96 -338q70 74 156 106q91 33 186 33q115 0 207 -39q94 -43 158 -110q64 -74 99 -162q35 -92 35 -203q0 -109 -37 -203q-34 -90 -104 -163q-68 -68 -160 -107q-95 -39 -209 -39q-127 0 -231 53q-102 52 -173 150q-71 99 -110 240 q-37 146 -37 323q0 179 41 318q38 140 112 240q76 103 175 153q103 54 223 54q90 -3 164 -30q77 -28 145 -80q66 -54 110 -121q45 -64 69 -149h-214q-29 91 -99 143q-74 54 -175 54z" />
<glyph unicode="7" horiz-adv-x="1247" d="M480 2h-219l646 1299h-795v185h1024v-166z" />
<glyph unicode="8" horiz-adv-x="1381" d="M1147 1106q0 -100 -58 -171q-61 -75 -141 -121q56 -25 111 -62q57 -39 92 -82q37 -47 59 -100q23 -54 23 -119q0 -94 -43 -183q-39 -81 -118 -149q-70 -63 -171 -100q-103 -38 -210 -38q-110 0 -213 38q-99 37 -173 100q-71 63 -115 149q-41 91 -41 183q0 129 80 219 q82 92 203 144q-93 52 -142 121q-54 77 -54 171q0 82 36 154q38 76 97 129q69 59 145 86q84 31 177 31t177 -31q76 -27 145 -86q65 -58 97 -129q37 -68 37 -154zM451 1108q0 -48 18 -84q14 -34 49 -67q34 -31 78 -47q41 -16 95 -16q53 0 97 16q46 17 76 47q31 30 50 67 q19 38 19 84t-19 84q-19 37 -50 67q-27 27 -76 48q-46 17 -97 17q-52 0 -95 -17q-48 -21 -78 -48q-35 -33 -49 -67q-18 -36 -18 -84zM691 162q72 0 132 22q58 22 104 62q46 39 67 89q26 48 26 112q0 61 -26 108q-19 44 -67 89q-53 39 -104 56q-60 22 -132 22q-74 0 -131 -22 q-53 -18 -102 -56q-43 -37 -71 -89q-24 -54 -24 -108q0 -56 24 -112q31 -57 71 -89q42 -39 102 -62q57 -22 131 -22z" />
<glyph unicode="9" horiz-adv-x="1359" d="M363 1000q0 -72 19 -132q20 -60 56 -105q29 -36 91 -70q62 -25 130 -25t130 25q64 35 92 70q34 43 55 105q19 60 19 132t-19 132q-20 60 -55 104q-37 44 -92 67q-51 26 -130 26t-130 -26q-53 -23 -91 -67q-37 -46 -56 -104q-19 -60 -19 -132zM659 164q151 0 233 121 q81 121 98 339q-73 -78 -158 -106q-96 -32 -184 -32q-114 0 -209 39q-92 43 -156 110q-64 74 -99 162q-35 92 -35 203q0 106 37 203q36 91 104 162q64 67 161 108q95 39 208 39q128 0 231 -52q99 -52 171 -151q74 -100 112 -240q37 -146 37 -322q0 -180 -41 -319 q-38 -136 -111 -238q-77 -100 -175 -149q-97 -54 -224 -60q-93 3 -169 30q-87 31 -144 78q-55 42 -111 120q-48 71 -67 152h216q29 -91 100 -143q74 -54 175 -54z" />
<glyph unicode=":" horiz-adv-x="806" d="M527 0h-248v249h248v-249zM527 936h-248v250h248v-250z" />
<glyph unicode=";" horiz-adv-x="809" d="M529 37q0 -68 -15 -126q-12 -48 -41 -95q-28 -41 -67 -71q-28 -24 -82 -54l-45 102q38 26 52 45q19 19 32 47q13 36 17 55q4 38 4 62h-95v255h240v-220zM531 936h-244v246h244v-246z" />
<glyph unicode="&#x3c;" horiz-adv-x="1426" d="M1240 970l-629 -270l629 -277v-239l-1106 505l1106 519v-238z" />
<glyph unicode="=" horiz-adv-x="1398" d="M1212 931h-1026v210h1026v-210zM1212 467h-1026v205h1026v-205z" />
<glyph unicode="&#x3e;" horiz-adv-x="1426" d="M186 1208l1106 -519l-1106 -505v239l629 266l-629 281v238z" />
<glyph unicode="?" horiz-adv-x="1344" d="M637 1661q111 0 208 -30q95 -29 164 -86q69 -54 108 -141q41 -85 41 -198q3 -56 -13 -115q-11 -43 -43 -93q-27 -41 -61 -78l-73 -73q-44 -40 -76 -78q-41 -48 -69 -95q-29 -51 -48 -121q-19 -69 -19 -162h-235q0 118 23 207t57 147q35 63 80 108q24 27 86 85 q10 9 30 27.5t30 28.5q26 26 48 60q18 27 34 67q13 38 13 84q0 71 -25 128q-31 52 -67 78q-40 31 -89 41q-55 11 -104 11q-37 0 -75 -11q-39 -15 -67 -41q-26 -22 -48 -69q-16 -41 -13 -106h-248q9 98 45 179q37 80 97 134q57 54 137 82q78 30 172 30zM644 253q25 0 52 -11 q20 -8 45 -30q22 -22 30 -41q11 -24 11 -46q0 -52 -41 -90q-39 -39 -97 -39q-55 0 -97 39q-39 39 -39 90q0 22 11 46q9 22 28 41q21 21 45 30q24 11 52 11z" />
<glyph unicode="@" horiz-adv-x="2511" d="M1260 1084q-77 0 -143 -38q-70 -34 -121 -100q-56 -66 -91 -153q-42 -93 -60 -193q-11 -51 -11 -79q-4 -26 -4 -70q0 -155 67 -235t177 -80q66 0 132 35q69 40 120 97q55 64 100 151t71 192q17 87 17 154q0 158 -71 237q-69 82 -183 82zM1731 -443q-207 -73 -428 -73 q-270 3 -471 77q-202 71 -352 212q-294 323 -294 840q0 442 313 755q314 313 756 313q438 13 754 -286q316 -305 316 -782q-39 -467 -346 -620q-71 -38 -130 -53q-67 -14 -123 -14q-160 0 -294 111q-17 22 -28 52q-9 45 -11 64h-4q-69 -66 -162 -118q-90 -50 -201 -50 q-94 0 -162 37q-71 33 -119 101q-50 64 -75 149q-26 89 -26 184q0 29 4 73q3 43 11 74q28 144 82 261q57 120 134 197q78 81 181 127q103 43 219 43q105 0 175 -51q68 -51 116 -121q4 26 9 47q7 34 9 46h185l-185 -957q-9 -42 10 -67q32 -18 67 -27q38 -12 70 -12 q88 0 194 54q96 47 153 170q58 120 78 300q-3 184 -71 353q-64 167 -195 298q-129 127 -293 194q-160 65 -344 56q-369 0 -637 -265q-264 -264 -264 -636q0 -446 246 -717q61 -52 139 -97q73 -44 168 -78q88 -32 190 -52q91 -18 205 -15q126 3 219 20q102 19 212 62v-179z " />
<glyph unicode="A" horiz-adv-x="1627" d="M1571 0h-268l-188 439h-603q-13 -31 -44.5 -104.5t-48.5 -114.5q-70 -166 -91 -218h-272l625 1486h265zM1024 652l-210 547l-211 -547h421z" />
<glyph unicode="B" horiz-adv-x="1495" d="M1292 1087q0 -65 -19 -115q-17 -55 -44 -89q-34 -40 -67 -64q-31 -25 -77 -44q43 -10 92 -36q50 -27 83 -65q39 -45 62 -104q24 -61 24 -153q0 -109 -41 -179q-42 -72 -102 -119q-55 -43 -134 -71q-66 -24 -134 -35q-55 -9 -105 -13h-46h-598v1491h574q16 0 44 -2 q37 0 101 -11q55 -10 126 -33q72 -26 127 -71q59 -46 97 -115q37 -69 37 -172zM434 869h234h39q30 0 75 6q28 2 87 15q52 15 86 37q36 24 65 63q24 38 24 97q0 32 -13 67q-20 34 -39 49q-22 19 -54 37q-6 2 -27.5 10.5t-33.5 11.5q-81 21 -168 21h-275v-414zM707 209h30 q31 0 73 3q33 2 91 15q51 11 89 36q41 23 71 61q28 38 28 97q0 65 -28 106q-27 45 -67 69q-41 28 -91 41q-42 11 -97 18q-64 4 -84 4h-50h-238v-450h273z" />
<glyph unicode="C" horiz-adv-x="1666" d="M1517 438q-42 -231 -214 -345q-167 -113 -434 -113q-184 0 -322 59q-139 58 -230 166q-90 102 -140 249q-47 140 -47 311q0 161 49 289q43 132 139 238q90 101 231 162q140 60 320 60q135 0 252 -34q111 -32 197 -95q85 -62 134 -149q49 -86 58 -192h-261 q-19 128 -110 196q-92 63 -273 63q-118 0 -207 -43q-90 -43 -145 -115q-59 -70 -90 -169q-27 -92 -27 -205q0 -112 22 -216q24 -105 76 -183q49 -79 145 -130q94 -48 233 -48q158 0 255 54q98 51 118 190h271z" />
<glyph unicode="D" horiz-adv-x="1614" d="M681 1491q188 0 332 -54q145 -51 246 -149t152 -234q54 -133 54 -306q0 -148 -54 -288q-54 -133 -156 -238q-104 -104 -248 -162q-149 -60 -326 -60h-495v1491h495zM685 210q116 0 216 43q91 41 162 116q66 73 102 171q36 97 36 205q0 110 -28 206q-31 101 -93 170 q-58 68 -160 115q-102 41 -240 41h-252v-1067h257z" />
<glyph unicode="E" horiz-adv-x="1407" d="M434 659v-450h918v-209h-1166v1491h1076v-206h-828v-416h709v-210h-709z" />
<glyph unicode="F" horiz-adv-x="1305" d="M1056 659h-620v-659h-250v1491h1063v-208h-813v-414h620v-210z" />
<glyph unicode="G" horiz-adv-x="1722" d="M1564 231q-74 -81 -142 -127q-73 -49 -154 -78q-87 -27 -170 -37q-90 -9 -189 -9q-182 0 -326 59q-139 57 -239 166q-95 104 -147 249q-48 142 -48 311q0 158 50 289q49 134 147 238q101 104 239 162q146 60 324 60q138 0 253 -28q114 -29 201 -86q89 -59 139 -145 q55 -91 71 -211h-275q-14 141 -112 200t-281 59q-117 0 -211 -43q-87 -40 -154 -115q-64 -75 -93 -169q-32 -104 -32 -205q0 -102 24 -216q32 -114 84 -183q57 -82 155 -130q94 -48 234 -48q76 0 93 1q32 2 95 10q61 13 99 30q41 13 101 52v205h-429v210h693v-471z" />
<glyph unicode="H" horiz-adv-x="1614" d="M1428 0h-249v659h-741v-659h-252v1491h252v-622h741v622h249v-1491z" />
<glyph unicode="I" horiz-adv-x="621" d="M186 1491h250v-1491h-250v1491z" />
<glyph unicode="J" horiz-adv-x="1135" d="M950 1491v-1081q-6 -124 -54 -215q-13 -28 -51 -80q-39 -43 -78 -67q-40 -27 -104 -48q-60 -19 -142 -19q-81 0 -141 19q-61 16 -106 45q-38 24 -77 63q-38 52 -50 74q-48 90 -54 203h250q-3 -55 16 -96q12 -31 51 -67q39 -30 108 -30q72 0 108 33q38 35 54 75 q19 46 22 108v1083h248z" />
<glyph unicode="K" horiz-adv-x="1444" d="M438 907l618 584h316l-732 -696l786 -795h-307l-681 691v-691h-252v1491h252v-584z" />
<glyph unicode="L" horiz-adv-x="1204" d="M434 207h715v-207h-963v1491h248v-1284z" />
<glyph unicode="M" horiz-adv-x="1878" d="M1692 0h-249v1119q-168 -447 -197 -527q-181 -488 -194 -523h-227l-389 1052v-1121h-250v1491h335l417 -1147l417 1147h337v-1491z" />
<glyph unicode="N" horiz-adv-x="1612" d="M486 1489l691 -1150v1150h249v-1489h-294l-696 1165v-1165h-250v1489h300z" />
<glyph unicode="O" horiz-adv-x="1757" d="M881 1519q183 0 316 -63q135 -61 227 -168q88 -100 138 -244q47 -137 47 -296q0 -161 -49 -303q-50 -137 -145 -244q-96 -106 -227 -160q-133 -60 -307 -60q-173 0 -313 60q-138 59 -229 162q-97 110 -142 238q-48 137 -48 291q0 177 48 311q43 139 140 249 q91 106 229 168q138 59 315 59zM879 186q119 0 216 43q90 42 151 117q60 79 87 179q27 111 19 222q-3 116 -30 217q-26 104 -82 179q-59 78 -145 123q-85 47 -212 47q-133 0 -228 -51q-91 -49 -147 -130q-54 -82 -80 -190q-24 -97 -24 -216q0 -98 32 -205q29 -92 91 -171 q56 -72 147 -119q90 -45 205 -45z" />
<glyph unicode="P" horiz-adv-x="1450" d="M434 564v-564h-248v1491h607q4 0 43 -3q33 -3 95 -21q45 -10 123 -45q69 -32 119 -78q54 -49 93 -125q35 -80 35 -178q0 -97 -35 -173q-40 -77 -93 -127q-60 -54 -129 -86q-81 -38 -141 -52q-52 -17 -134 -30q-72 -7 -102 -9h-233zM434 1281v-506h164h72q70 5 93 9 q59 10 101 24q43 12 89 45q44 32 64 70q26 41 26 110q0 57 -23 103q-27 41 -59 69q-41 30 -78 42q-53 17 -79 23q-8 2 -59 9q-19 2 -28 2h-283z" />
<glyph unicode="Q" horiz-adv-x="1781" d="M1434 -276q-92 0 -185 32q-64 22 -152 73q-81 54 -114 85q-23 19 -65 62h-39q-173 0 -311 59t-229 162q-96 109 -142 239q-48 136 -48 290q0 177 48 311q44 138 138 250q96 108 229 165q140 60 315 60q181 0 316 -64q136 -61 227 -167q88 -100 138 -244q47 -137 47 -296 q0 -118 -26 -231q-25 -104 -79 -197q-52 -90 -128 -162q-81 -73 -179 -114q43 -33 106 -61q72 -32 144 -32q68 0 164 50l80 -204q-146 -66 -255 -66zM875 177q124 0 216 43q96 42 153 119q60 74 85 179q29 102 23 221q-3 117 -30 218q-26 104 -82 179q-59 75 -145 123 q-88 44 -214 44q-136 0 -226 -48q-93 -50 -149 -132q-53 -77 -80 -187q-24 -97 -24 -215q0 -100 32 -207q31 -97 91 -171q56 -74 149 -121q87 -45 201 -45z" />
<glyph unicode="R" horiz-adv-x="1467" d="M1331 1054q0 -99 -31 -173q-30 -72 -86 -125q-53 -53 -123 -82q-72 -32 -145 -48q87 -65 225 -231q112 -135 277 -395h-296q-4 4 -68 91q-61 88 -79 114q-7 10 -83 121q-44 64 -84 113q-47 62 -78 93q-29 34 -64 58h-262v-588h-248v1491h607q1 0 6 -0.5t16 -1.5t23 -2 q44 -3 100 -16q64 -15 129 -41q61 -25 128 -77q62 -57 97 -122q39 -75 39 -179zM696 799q12 0 47.5 1t60.5 1q74 7 123 26q63 23 104 74q43 52 43 147q0 58 -26 101q-25 41 -65 67t-86 39q-37 11 -85 18q-35 8 -67 8q-17 2 -28 2h-283v-484h262z" />
<glyph unicode="S" horiz-adv-x="1474" d="M1074 1072q-6 66 -43 112q-35 44 -87 73q-51 29 -106 39q-53 13 -99 13q-69 0 -132 -17q-56 -12 -108 -43q-48 -28 -73 -67q-77 -114 80 -192q56 -29 151 -62.5t178.5 -60t175.5 -69t157.5 -90t108.5 -122.5t43 -167q0 -116 -37 -199q-35 -81 -110 -136q-74 -52 -183 -77 q-103 -24 -247 -24q-147 0 -244 30q-107 32 -166 76q-64 48 -100 103q-33 52 -54 110q-19 59 -19 93q-4 28 -4 59h250q0 -57 18 -104q17 -47 58 -82q47 -37 104 -54q66 -20 157 -20q177 0 251 55q77 57 77 172q0 56 -41 105t-109 86.5t-151 71t-172.5 65t-168 61.5t-143 67 t-92.5 76q-43 63 -43 145q0 113 52 190q52 80 136 131q76 48 186 74q95 24 203 24q111 3 210 -22q107 -26 187 -76q81 -54 137 -138q54 -92 64 -209h-252z" />
<glyph unicode="T" horiz-adv-x="1351" d="M1296 1277h-497v-1277h-250v1277h-493v214h1240v-214z" />
<glyph unicode="U" horiz-adv-x="1614" d="M1428 443q-10 -132 -80 -234q-33 -50 -75 -86q-45 -45 -109 -75q-72 -37 -155 -52q-77 -20 -203 -20t-203 20q-82 15 -154 52q-65 30 -110 75q-42 36 -75 86q-69 101 -78 234v1046h252v-1031q6 -80 44 -136q13 -20 43 -50q18 -18 65 -45q52 -22 91 -30q58 -11 125 -11 q135 0 214 41q80 48 112 95q41 57 47 136v1031h249v-1046z" />
<glyph unicode="V" horiz-adv-x="1627" d="M330 1488l484 -1220l487 1220h270l-625 -1488h-265l-625 1488h274z" />
<glyph unicode="W" horiz-adv-x="2008" d="M1516 0h-244l-267 1165l-270 -1165h-243l-436 1491h257l300 -1057l271 1054h242l269 -1050l299 1053h259z" />
<glyph unicode="X" horiz-adv-x="1537" d="M1482 0h-283l-430 596l-430 -596h-283l570 799q-23 32 -66.5 93t-54.5 76q-22 30 -64.5 89.5t-64.5 89.5q-26 38 -127 179q-19 26 -59.5 81.5t-61.5 83.5h285l358 -495l354 495h283l-496 -692z" />
<glyph unicode="Y" horiz-adv-x="1537" d="M890 672v-672h-248l-2 672q-27 36 -76.5 106t-66.5 93q-22 30 -72.5 101t-78.5 110q-44 65 -149 210q-28 39 -76.5 107.5t-64.5 91.5h283l430 -612q153 218 214 307q30 42 103.5 146t112.5 159h283z" />
<glyph unicode="Z" horiz-adv-x="1428" d="M415 207h901v-207h-1204v192l895 1091h-817v208h1110v-201z" />
<glyph unicode="[" horiz-adv-x="794" d="M646 -289h-460v1793h460v-186h-249v-1419h249v-188z" />
<glyph unicode="\" horiz-adv-x="705" d="M212 1493l475 -1495h-195l-473 1495h193z" />
<glyph unicode="]" horiz-adv-x="794" d="M149 -101h248v1419h-248v186h460v-1793h-460v188z" />
<glyph unicode="^" horiz-adv-x="1271" d="M883 652l-248 556q-13 -29 -55 -127l-66 -154q-48 -103 -123 -275h-223l461 1005l475 -1005h-221z" />
<glyph unicode="_" horiz-adv-x="1185" d="M1186 -277h-1186v158h1186v-158z" />
<glyph unicode="`" horiz-adv-x="726" d="M633 1296h-166l-281 331h244z" />
<glyph unicode="a" horiz-adv-x="1253" d="M916 2q-12 27 -22 58q-1 2 -7 23t-10 31q-102 -65 -188 -97q-98 -36 -177 -39q-183 0 -281 85q-101 87 -101 242q0 115 60 192q63 77 164 121q96 49 232 75q133 26 274 42v120q0 66 -59 93q-55 28 -161 28q-45 0 -96 -12q-44 -10 -80 -31q-30 -18 -54 -50 q-19 -33 -19 -66h-227q6 83 45 151q42 67 104 108q62 42 147 65q86 23 180 23q140 0 233 -32q91 -35 136 -82q49 -46 63 -100q17 -54 17 -99v-665q8 -34 28 -82q8 -21 43 -102h-244zM860 594q-15 -2 -171 -32q-90 -20 -164 -52q-74 -31 -119 -82q-49 -46 -49 -125 q0 -60 49 -100q48 -39 138 -39q79 0 136 22t98 60q43 40 62 89q20 52 20 106v153z" />
<glyph unicode="b" horiz-adv-x="1288" d="M668 162q69 0 118 32q47 26 89 85q34 54 54 131q19 73 19 165q0 89 -21 170q-21 70 -59 124q-40 52 -90 77q-52 28 -110 28q-59 0 -111 -28q-53 -26 -92 -78q-38 -49 -61 -127q-22 -73 -22 -173q0 -102 22 -175q24 -79 61 -129q38 -50 92 -76t111 -26zM376 0h-227l22 188 v1359h227v-527q52 52 127 99q71 45 166 45q103 0 195 -49q90 -48 153 -128q68 -85 100 -188q38 -104 38 -224q0 -137 -34 -251q-34 -111 -97 -188q-65 -79 -156 -119q-88 -41 -210 -41q-46 0 -86 13q-44 14 -76 33q-19 9 -71 45q-9 9 -29 26t-29 26z" />
<glyph unicode="c" horiz-adv-x="1234" d="M875 817q0 38 -19 67t-48 51q-39 21 -67 29q-37 10 -71 10q-63 0 -123 -26q-57 -26 -96 -79q-41 -47 -67 -128q-25 -71 -25 -173t25 -173q27 -82 67 -129q38 -51 96 -78q60 -26 123 -26q40 0 82 9q37 10 71 32q32 19 52 50q19 28 19 67h247q0 -72 -39 -136 q-36 -59 -104 -110q-63 -44 -149 -70q-89 -26 -179 -26q-134 0 -232 41q-99 41 -170 117q-65 69 -104 184q-34 114 -34 248q0 127 34 240q37 113 104 190q68 78 168 123q106 43 234 43q84 0 164 -26q79 -27 138 -73q61 -47 97 -108q39 -68 48 -140h-242z" />
<glyph unicode="d" horiz-adv-x="1306" d="M639 162q57 0 111 26t92 76q37 50 61 129q22 73 22 175q0 100 -22 173q-23 78 -61 127q-39 52 -92 78q-52 28 -111 28q-60 0 -110 -28q-54 -26 -90 -77q-38 -54 -59 -124q-23 -77 -23 -170q0 -92 19 -165q22 -86 56 -131q33 -56 87 -85q51 -32 120 -32zM910 112 q-53 -52 -124 -93q-69 -43 -159 -43q-122 0 -210 41q-91 40 -156 119q-63 77 -97 188q-34 114 -34 251q0 117 36 224q34 101 98 188q73 84 155 128q92 49 195 49q90 0 164 -34q73 -32 131 -87v504h227l3 -1547h-229v112z" />
<glyph unicode="e" horiz-adv-x="1306" d="M670 1160q112 0 205 -37q87 -33 160 -103q71 -71 101 -152q38 -81 41 -185v-154h-820q3 -83 30 -158q23 -63 67 -114q41 -44 97 -71q52 -24 117 -24q41 0 80 9q36 9 75 32q33 20 56 50q21 31 24 65h249q-10 -76 -54 -147q-45 -66 -108 -108q-62 -42 -147 -65 q-82 -22 -175 -22q-134 0 -232 41q-100 42 -168 117q-67 71 -104 186q-34 110 -34 244q0 129 34 242q38 115 104 188q68 78 168 123q103 43 234 43zM955 707q-9 59 -35 108q-30 51 -67 82q-37 34 -86 54q-47 19 -97 19q-105 0 -190 -69q-86 -72 -115 -194h590z" />
<glyph unicode="f" horiz-adv-x="843" d="M246 1216q0 105 22 171q27 71 67 106q42 39 101 52q62 15 128 15q16 0 84 -4q44 -6 102 -9v-186q-37 0 -76 6q-36 3 -80 3q-30 0 -50 -7q-23 -6 -39 -22q-19 -19 -25 -49q-10 -29 -7 -82v-78h240v-188h-240v-944h-227v944h-153v188h153v84z" />
<glyph unicode="g" horiz-adv-x="1327" d="M657 977q-70 0 -119 -31q-53 -29 -87 -86q-34 -49 -56 -132q-19 -73 -19 -166q0 -97 22 -167q21 -70 60 -127q35 -50 89 -76q52 -26 110 -26t112 26q52 25 91 78q40 54 62 127t22 173q0 102 -22 175q-22 74 -62 126q-40 54 -91 79q-50 27 -112 27zM646 -276q80 0 134 23 q57 28 88 67q35 44 48 104q15 72 15 142v76q-11 -11 -32 -30t-28 -26q-26 -23 -70 -50q-32 -23 -79 -39q-50 -15 -89 -15q-103 0 -195 46q-91 52 -155 131q-63 80 -99 186q-35 104 -35 223q0 141 33 252q34 115 97 188q68 82 157 119q86 43 210 43q96 0 160 -30 q65 -30 121 -86v91h231l-2 -988v-67q20 -274 -110 -408q-129 -136 -400 -136q-89 0 -181 26q-86 26 -152 73q-71 46 -112 108q-42 65 -45 138l248 -2q3 -38 28 -67q24 -32 56 -51q39 -21 76 -29q48 -12 82 -12z" />
<glyph unicode="h" horiz-adv-x="1245" d="M1078 0h-227v761q0 97 -52 155q-52 61 -138 61q-63 0 -117 -35q-52 -42 -82 -93q-34 -63 -49 -119q-16 -65 -16 -121v-609h-229v1547h229v-523q69 63 128 101q64 39 149 39q94 0 171 -28q79 -31 127 -78q50 -49 78 -120q28 -69 28 -152v-786z" />
<glyph unicode="i" horiz-adv-x="564" d="M397 0h-229v1138h229v-1138zM397 1309h-229v221h229v-221z" />
<glyph unicode="j" horiz-adv-x="713" d="M317 1138h229v-1222q0 -106 -25 -169q-26 -69 -67 -104q-44 -41 -102 -54q-65 -15 -129 -15q-37 0 -85 3q-49 3 -101 12v182l158 -13q31 0 49 7q22 6 39 23q16 23 24 50q10 33 10 82v1218zM546 1309h-229v221h229v-221z" />
<glyph unicode="k" horiz-adv-x="1122" d="M395 711l413 427h272l-527 -531l570 -607h-274l-454 501v-501h-227v1547h227v-836z" />
<glyph unicode="l" horiz-adv-x="562" d="M395 0h-227v1547h227v-1547z" />
<glyph unicode="m" horiz-adv-x="1871" d="M676 1164q126 0 212 -60q84 -59 127 -147q22 31 57 73q30 33 71 67q36 28 86 48q44 19 95 19q96 0 165 -28q79 -31 120 -78q47 -47 70 -120q25 -69 25 -152v-786h-229v761q0 98 -41 155q-39 61 -123 61q-68 0 -112 -35q-49 -34 -80 -89q-36 -62 -47 -119 q-16 -60 -16 -120v-614h-229v761q0 98 -41 155q-39 61 -123 61q-65 0 -116 -35q-51 -39 -83 -93q-35 -58 -51 -119q-16 -65 -16 -121v-609h-229v1138h217v-138q65 68 134 115q72 49 157 49z" />
<glyph unicode="n" horiz-adv-x="1245" d="M1078 0h-227v761q0 97 -52 155q-52 61 -138 61q-63 0 -117 -35q-52 -42 -82 -93q-34 -63 -49 -119q-16 -65 -16 -121v-609h-229v1138h216v-136q68 68 134 113q72 49 156 49q94 0 171 -28q79 -31 127 -78q50 -49 78 -120q28 -69 28 -152v-786z" />
<glyph unicode="o" horiz-adv-x="1342" d="M670 1160q132 0 231 -50q96 -44 171 -131q69 -83 105 -191q35 -106 35 -224q0 -279 -138 -434q-136 -156 -404 -156q-136 0 -234 41q-102 43 -168 119q-67 71 -104 186q-34 110 -34 244q0 129 34 242q38 115 104 188q68 78 168 123q103 43 234 43zM670 158q76 0 131 30 q54 26 100 84q39 49 63 128q21 81 21 164q0 90 -24 173q-32 81 -69 127q-42 52 -101 78q-57 28 -121 28q-66 0 -123 -26q-53 -23 -100 -78q-41 -55 -65 -129q-25 -71 -25 -173t25 -173q24 -72 65 -128q48 -57 100 -79q60 -26 123 -26z" />
<glyph unicode="p" horiz-adv-x="1305" d="M667 977q-62 0 -112 -27q-51 -25 -91 -79q-40 -53 -62 -128q-22 -73 -22 -175q0 -97 22 -173q23 -75 62 -127q39 -51 91 -76q54 -26 112 -26q55 0 109 26q55 27 90 76q37 52 59 123q23 77 23 169q0 93 -19 166t-54 132q-44 62 -89 88q-54 31 -119 31zM397 1041 q50 50 124 87q70 34 159 34q115 0 210 -41q91 -43 156 -119q63 -76 97 -190q32 -118 32 -252q0 -114 -36 -221q-39 -116 -100 -186q-55 -76 -153 -131q-92 -46 -195 -46q-92 0 -166 37q-76 38 -127 89v-512h-230v1548h229v-97z" />
<glyph unicode="q" horiz-adv-x="1303" d="M639 977q-71 0 -120 -31q-53 -29 -87 -86q-34 -49 -56 -132q-19 -73 -19 -166t23 -167q22 -73 59 -127q35 -49 90 -76q52 -26 110 -26q57 0 111 26q53 26 92 78q38 52 61 127q22 73 22 173q0 102 -22 175q-23 76 -61 126q-40 54 -92 79q-50 27 -111 27zM909 1139h227 v-1547h-227l14 529q-64 -64 -132 -102q-77 -43 -177 -43q-103 0 -195 46q-91 52 -155 131q-61 78 -98 186q-36 107 -36 223q0 138 34 252q34 115 97 188q69 83 156 119q86 43 210 43q95 0 162 -36q69 -36 120 -89v100z" />
<glyph unicode="r" horiz-adv-x="839" d="M395 0h-227l1 1138h216v-120q26 34 45 53q29 29 58 46q31 20 71 34q40 13 91 13q33 0 69 -6q29 -2 83 -13l-11 -236q-51 16 -106 29q-56 8 -72 8q-218 0 -218 -354v-592z" />
<glyph unicode="s" horiz-adv-x="1131" d="M745 804q-3 46 -23 77q-24 37 -46 50q-20 16 -60 30q-35 7 -59 7q-97 0 -144 -41q-50 -41 -50 -110q0 -20 17 -37q20 -16 48 -33q48 -24 73 -32q16 -5 46 -17t39 -15q55 -20 144 -57q67 -27 134 -75q59 -40 100 -102q38 -62 38 -142q0 -82 -30 -147q-31 -61 -88 -104 q-58 -44 -136 -60q-69 -20 -175 -20q-105 0 -178 26q-74 25 -123 65q-49 38 -78 86q-33 52 -41 85q-16 41 -19 71l-2 16l-1.5 12t-0.5 6h242q0 -35 8 -60q9 -35 30 -58q24 -27 61 -43q38 -16 102 -16q48 0 79 9q36 6 65 26q30 21 43 48q16 32 16 77q0 37 -24 61 q-25 32 -59 49q-33 19 -84 37q-36 15 -99 35q-41 13 -136 49q-50 19 -121 61q-56 43 -85 89q-34 54 -34 129q0 84 37 147q39 62 101 101q52 35 134 57q76 19 151 19q78 3 154 -17q74 -20 131 -61q55 -40 96 -110q41 -74 51 -168h-244z" />
<glyph unicode="t" horiz-adv-x="806" d="M750 6q-72 -8 -100 -10q-40 -5 -82 -5q-67 0 -129 15q-57 13 -102 54q-41 35 -67 104q-24 64 -24 171v646h-153v188h153v382h227v-382h238v-188h-238v-642q0 -97 33 -130q35 -30 86 -30l158 11v-184z" />
<glyph unicode="u" horiz-adv-x="1245" d="M168 1138h227v-760q0 -100 52 -158q54 -60 136 -60q69 0 117 37q49 31 82 90q33 56 50 121q17 66 17 121v609h229v-1136h-229v112q-71 -65 -128 -99q-63 -41 -149 -41q-99 0 -170 28q-74 27 -126 76q-54 53 -81 119q-27 67 -27 153v788z" />
<glyph unicode="v" horiz-adv-x="1131" d="M266 1138l293 -851l305 851h231l-436 -1138h-203l-419 1138h229z" />
<glyph unicode="w" horiz-adv-x="1578" d="M1193 0h-203l-201 856l-201 -856h-206l-345 1138h218l227 -782q19 75 57.5 223t43.5 169q30 118 100 390h213l201 -782l227 782h218z" />
<glyph unicode="x" horiz-adv-x="1159" d="M1123 -4h-244l-300 445l-300 -445h-242l415 611l-364 532h243l250 -364l246 364h245l-365 -532z" />
<glyph unicode="y" horiz-adv-x="1131" d="M37 1138h229l291 -812q15 39 69.5 182.5t84.5 223.5q96 255 151 406h233l-473 -1235v2q-29 -86 -75 -162q-47 -65 -93 -97q-51 -38 -104 -48q-48 -15 -114 -15q-23 0 -91 4q-89 12 -95 13v188l101 -8q7 -1 21.5 -2.5t21.5 -2.5q15 -2 41 -2q29 0 55 9q32 10 53 37 q15 15 52 77q32 72 54 132z" />
<glyph unicode="z" horiz-adv-x="1117" d="M339 186h704v-186h-969v171l697 779h-633v188h888v-179z" />
<glyph unicode="{" horiz-adv-x="990" d="M186 674q78 6 119 41q40 34 60 106q15 55 22 181q0 32 1 119.5t1 142.5q23 138 143 207q118 71 328 71v-183q-49 0 -84 -5q-36 -5 -80 -17q-36 -15 -61 -34q-24 -21 -34 -54q0 -83 6 -177q6 -86 -4 -182q-10 -89 -48 -171q-35 -81 -121 -138q61 -36 95 -88 q36 -50 52 -128q13 -70 19 -186q0 -33 0.5 -121.5t0.5 -143.5q10 -34 34 -52q23 -17 61 -33q44 -12 80 -17q42 -6 84 -6v-182q-210 0 -328 71q-120 69 -143 206q0 187 -5 280q-6 102 -27 180q-19 67 -61 97q-44 31 -110 34v182z" />
<glyph unicode="|" horiz-adv-x="579" d="M393 -400h-207v1891h207v-1891z" />
<glyph unicode="}" horiz-adv-x="990" d="M804 492q-78 -6 -119 -41q-43 -33 -59 -105q-23 -69 -23 -178q-3 -55 -3 -267q-22 -136 -142 -206q-121 -71 -328 -71v182q40 0 82 6q45 6 78 17q38 13 64 33q23 17 33 52q0 92 -3 187q-6 94 5 186q9 77 47 167q40 77 119 127q-59 36 -91 86q-35 55 -51 126t-22 186 q-4 148 -4 270q-10 34 -33 54q-28 22 -64 34q-33 11 -78 17q-35 5 -82 5v183q207 0 328 -71q119 -70 142 -207q0 -210 3 -266q0 -107 23 -179q17 -71 59 -104q41 -35 119 -41v-182z" />
<glyph unicode="~" horiz-adv-x="1394" d="M186 667q18 75 58 148q28 52 87 103q50 46 138 46q57 -4 114 -20q113 -32 136 -39q79 -26 124 -39q60 -17 90 -11q19 3 31 18q13 11 25 36l16 44q9 33 10 41l193 -59q-18 -75 -54 -142q-32 -56 -82 -97q-49 -43 -132 -46q-52 -3 -119 13q-70 20 -115 37q-12 3 -118 37 q-57 20 -121 23q-22 0 -39 -23q-18 -24 -26 -50q-7 -18 -20 -73z" />
<glyph unicode="&#xad;" horiz-adv-x="1029" d="M843 486h-657v221h657v-221z" />
<glyph unicode="&#xe01;" horiz-adv-x="1333" d="M927 0v771q0 121 -76 190t-198 69q-99 0 -175 -40t-113 -107q78 -18 123 -50t95 -94q-72 -22 -108.5 -95.5t-36.5 -176.5v-467h-237v469q0 95 56.5 165.5t137.5 104.5q-62 52 -265 52v38q43 156 182.5 243.5t340.5 87.5q83 0 157 -13.5t139.5 -43.5t113 -73.5t75 -107.5 t27.5 -142v-780h-238z" />
<glyph unicode="&#xe02;" horiz-adv-x="1314" d="M1147 1121v-935q0 -86 -75 -136t-175 -50h-564v140h105v305q0 39 18.5 77t45 72t53 70.5t45 87.5t18.5 108q0 72 -60 116t-141 44q-55 0 -98 -27.5t-62 -67.5q7 2 22 2q6 2 23 2q77 0 130.5 -48t53.5 -123q0 -72 -54.5 -121t-129.5 -49q-112 0 -170 70.5t-58 188.5 q0 132 100 212t243 80q103 0 182.5 -26t131.5 -88t55 -154q0 -63 -17.5 -119.5t-38.5 -92.5t-38.5 -93t-17.5 -121v-305h184q22 0 37 28t15 57v896h237zM303 847q-37 0 -62 -25.5t-25 -63.5q0 -36 25.5 -61t61.5 -25q32 0 57 26t25 60q0 36 -24 62.5t-58 26.5z" />
<glyph unicode="&#xe03;" horiz-adv-x="1450" d="M1043 1121h238v-935q0 -80 -75.5 -133t-175.5 -53h-583v140h104v348q8 34 28 69.5t41.5 66t42 65t32.5 79t9 94.5q0 31 -28 67t-62 63q-25 -31 -64 -53.5t-72 -22.5q-32 0 -62 15.5t-75 58.5q-24 -17 -43.5 -49.5t-23.5 -67.5q13 2 44 2q75 0 131 -50.5t56 -117.5 q0 -72 -55 -121.5t-130 -49.5q-105 0 -177 75q-61 76 -61 182q0 124 72.5 219.5t195.5 128.5q90 -115 128 -115q7 0 15.5 4.5t19 13t20 17t21.5 22t19 21.5t18 21t14 16q117 -30 194 -108t80 -165q0 -56 -14 -113.5t-31.5 -96.5t-31.5 -87t-14 -89v-342h202q21 0 37 27 t16 58v896zM320 795q-35 0 -60 -26t-25 -62q0 -39 24.5 -65t60.5 -26q34 0 58 26t24 65q0 35 -24 61.5t-58 26.5z" />
<glyph unicode="&#xe04;" horiz-adv-x="1349" d="M467 0h-251v108q0 108 -43 300.5t-43 295.5q0 219 148 336.5t385 117.5q104 0 195.5 -23t165 -68t116 -120t42.5 -171v-776h-236v773q-3 92 -49 152.5t-124 87.5q-53 17 -106 17q-65 0 -114 -21q-82 -29 -133 -99.5t-51 -172.5q0 -45 3 -97q8 -70 12 -104 q2 -14 6.5 -44.5t7.5 -44.5q4 -31 10 -56q18 76 28 134q13 69 37 138q31 70 71 110q44 44 126 44q30 0 75 -13q35 -17 59 -39q28 -32 39 -58q15 -33 15 -67q0 -32 -15 -65q-11 -24 -39 -56q-31 -27 -59 -39q-40 -15 -75 -15q-26 0 -59 12q-30 12 -49 29q-15 -33 -31 -93 q-5 -20 -32 -130q-4 -27 -12 -70.5t-10 -56.5q-10 -68 -10 -82v-74zM670 557q39 0 60 24q26 23 26 58q0 42 -26 65q-23 26 -60 26q-31 0 -57 -26q-25 -25 -25 -65q0 -33 25 -58q24 -24 57 -24z" />
<glyph unicode="&#xe05;" horiz-adv-x="1349" d="M467 0h-251v108q0 66 -15 166q-5 27 -16 83t-16 84l-28 140q-11 74 -11 123q0 98 26 164q22 70 71 130q48 59 108 97q64 42 143 76q34 -39 54 -61q42 -40 56 -51q23 -23 45 -35q20 -15 35 -15q10 0 39 19q7 6 25 21.5t28 24.5q16 16 50 54q2 2 37 45q75 -22 129 -56 q56 -32 104 -86q42 -46 74 -115q28 -66 28 -140l-2 -776h-236v778q0 75 -17 138q-17 59 -59 84q-26 -26 -45 -39q-27 -24 -52 -38q-22 -16 -52 -29q-30 -11 -51 -11q-22 0 -52 11q-23 7 -57 26q-12 7 -56 37q-25 20 -47 41q-49 -24 -72 -102q-21 -81 -21 -159q0 -41 6 -97 q10 -82 13 -100q2 -11 7 -42.5t8 -46.5q3 -11 5 -22t3.5 -19.5t2.5 -11.5q16 71 28 133q13 72 37 136q29 69 71 108q45 42 126 42q30 0 75 -13q35 -17 59 -39q28 -32 39 -58q15 -33 15 -67q0 -32 -15 -65q-11 -24 -39 -56q-31 -27 -59 -39q-40 -15 -75 -15q-26 0 -59 12 q-30 12 -49 29q-15 -33 -31 -93q-5 -20 -32 -130q-4 -27 -12 -70.5t-10 -56.5q-10 -68 -10 -82v-74zM670 557q39 0 60 24q26 23 26 58q0 42 -26 65q-23 26 -60 26q-31 0 -57 -26q-25 -25 -25 -65q0 -33 25 -58q24 -24 57 -24z" />
<glyph unicode="&#xe06;" horiz-adv-x="1502" d="M1335 1123v-1121h-248q-26 33 -63 76q-17 22 -73 82q-45 45 -80 75q-51 40 -80 59v-177q0 -28 -16 -50q-16 -24 -49 -45q-26 -17 -71 -29q-51 -12 -89 -12q-43 0 -89 15q-42 10 -88 41q-40 24 -69 67q-26 43 -26 97q0 56 23 99q24 45 59 74q36 30 82 50q47 19 95 25v57 q11 48 39 84q21 30 52 77q32 45 45 83q20 43 17 114q0 13 -10 35q-10 21 -22 36q-14 19 -30 33q-19 19 -28 26q-26 -30 -65 -54q-37 -24 -71 -24q-26 0 -59 15q-31 14 -78 61q-20 -13 -45 -50q-19 -35 -22 -67q6 2 22 2h22q30 0 71 -13q42 -19 60 -37q26 -21 41 -52 q14 -34 14 -66q0 -35 -14 -69q-15 -31 -41 -52q-18 -21 -58 -37q-32 -13 -71 -13q-60 0 -99 21q-43 16 -78 54q-29 37 -48 85q-13 52 -13 97q0 123 72 218q70 97 196 130q3 -3 10.5 -13t13.5 -17q14 -20 34 -37q18 -24 37 -33q15 -15 33 -15q12 0 30 15q17 11 34 31 q24 24 35 39q6 6 15.5 16.5t12.5 13.5q57 -13 108 -45q54 -30 86 -65q37 -34 57 -80q20 -40 23 -84q0 -50 -13 -113q-21 -68 -32 -97q-28 -78 -32 -86q-13 -56 -13 -87v-58q36 -12 80 -44q40 -27 80 -64q13 -12 38.5 -35.5t38.5 -35.5q10 -11 21 -22t24.5 -24t19.5 -19v939 h242zM322 797q-32 0 -61 -26q-25 -28 -25 -62q0 -37 25 -65q29 -26 61 -26t58 26q24 24 24 65q0 38 -24 62q-26 26 -58 26zM553 328q-11 0 -37 -8q-26 -14 -38 -26q-16 -13 -27 -37q-12 -29 -12 -56q4 -31 15 -45q11 -19 32 -33q20 -14 37 -19q15 -7 30 -7v231z" />
<glyph unicode="&#xe07;" horiz-adv-x="1107" d="M704 691q-6 -2 -28 -2q-49 0 -88 18q-42 16 -70 49q-32 28 -49 71q-18 39 -18 87q0 49 18 88q16 42 49 70q28 33 70 49q39 18 88 18q122 0 195 -65q71 -65 71 -171v-903h-274q-111 182 -212 313q-99 125 -171 197q-77 77 -125 108q-62 39 -67 41l48 97q44 -10 110 -58 q73 -53 151 -125q80 -74 160 -163q85 -95 142 -175v456zM676 817q41 0 69 28t28 69q0 37 -28 65q-28 30 -69 30q-39 0 -69 -30q-28 -28 -28 -65q0 -41 28 -69q29 -28 69 -28z" />
<glyph unicode="&#xe08;" horiz-adv-x="1234" d="M557 1030q-146 0 -221.5 -52.5t-106.5 -171.5l-127 78q51 141 159.5 208.5t298.5 67.5q117 0 210.5 -22t165 -68.5t110.5 -124t39 -182.5l-24 -564q0 -31 -11 -69q-14 -38 -45 -69t-85 -54q-51 -22 -138 -22q-66 0 -119 17q-46 17 -75 43q-30 26 -44 56q-2 5 -8.5 17 t-10 20t-4.5 17l-29 238q-29 -13 -73 -13q-40 0 -80 15q-39 18 -65 44q-29 29 -43 66q-17 37 -17 80q0 41 17 78q13 35 43 65q28 28 65 45q35 16 80 16q110 0 171 -37q65 -33 95 -138l49 -430q2 -14 18 -39q15 -20 32 -20q18 0 31 13q15 15 15 56l17 545q0 149 -70 220 t-220 71zM419 497q37 0 61 24q26 26 26 64t-26 59q-21 26 -61 26q-39 0 -62 -26q-26 -23 -26 -59q0 -35 26 -64q27 -24 62 -24z" />
<glyph unicode="&#xe09;" horiz-adv-x="1301" d="M337 451q42 0 69 27q28 28 28 69q0 38 -28 67q-28 28 -69 28q-40 0 -69 -28q-28 -29 -28 -67q0 -41 28 -69q28 -27 69 -27zM806 249q-18 -8 -50 -42q-19 -22 -52 -69q-11 -14 -29.5 -41.5t-22.5 -33.5q-23 -35 -41 -63h-244v324q-6 -2 -15 -2h-15q-45 0 -88 17 q-41 19 -70 48q-33 33 -49 73q-18 39 -18 87q0 49 18 88q15 38 49 72q31 31 70 49q43 17 88 17q121 0 195 -66q73 -67 73 -173v-365q39 39 62 69q20 26 67 73q39 33 80 58q41 22 93 22v346q0 55 -17 112q-13 50 -50 93q-33 36 -92 63q-57 23 -134 23q-52 0 -87.5 -2t-76 -8 t-68.5 -19t-55 -33t-46 -51t-32 -73l-128 78q23 52 53 91t67 65t76 42.5t90 25t98 11.5t111 3q115 0 207 -22q99 -26 167 -75q72 -48 114 -123q41 -73 41 -177v-327q-10 -22 -20 -32q-2 -2 -36 -31q56 -27 88 -77q31 -50 31 -110q0 -45 -16 -80q-13 -35 -43 -65t-65 -43 q-35 -16 -80 -16q-46 0 -81 16q-35 13 -65 43t-43 65q-16 35 -16 80q0 21 2 32q1 5 2 12t1.5 12t1.5 9zM996 97q41 0 62 26q26 21 26 61q0 36 -26 62q-24 24 -62 24q-34 0 -61 -24q-26 -29 -26 -62q0 -38 26 -61q23 -26 61 -26z" />
<glyph unicode="&#xe0a;" horiz-adv-x="1331" d="M1277 1188v-26q0 -110 -76 -183q-78 -70 -211 -106q74 -44 127 -102q45 -53 45 -112v-471q0 -29 -19 -67q-24 -35 -54 -61q-36 -28 -80 -43q-46 -17 -99 -17h-567v141h104v304q0 47 28 82l61 82q34 46 64 102q27 58 27 149q0 34 -16 63q-13 27 -43 51q-28 22 -65 35 q-35 11 -77 11q-61 0 -102 -30q-42 -33 -58 -65q7 2 21 2q7 2 24 2q30 0 71 -13q40 -20 57 -37q29 -26 41 -56q15 -32 15 -65q0 -28 -15 -65q-16 -33 -41 -53q-23 -26 -57 -37q-30 -15 -71 -15q-63 0 -106 23q-46 25 -71 59q-27 34 -37 82q-13 46 -13 95q0 65 28 117 q33 61 74 94q50 41 108 59q63 22 132 22q79 0 134 -14q55 -9 118 -45q53 -33 83 -86q31 -53 34 -123q0 -77 -17 -126q-20 -51 -39 -93t-39 -90q-17 -49 -17 -117v-304h188q19 0 36 27q16 28 16 59v417q0 105 -122 175q3 30 3 58q-4 35 -5 41q117 34 188 99q63 63 63 148v23 h227zM313 847q-34 0 -64 -24q-24 -30 -24 -65q0 -36 26 -62q24 -24 62 -24q32 0 56 24q26 26 26 62q0 39 -26 65q-24 24 -56 24z" />
<glyph unicode="&#xe0b;" horiz-adv-x="1433" d="M1383 1186v-26q0 -113 -76 -181q-74 -71 -210 -108q74 -44 124 -102q47 -51 47 -112v-471q0 -36 -21 -67q-15 -31 -52 -59q-33 -28 -78 -45q-49 -17 -100 -17h-568v140h104v348q10 47 41 84q7 8 59 76q33 43 53 88q21 42 18 113q0 17 -13 39q-6 11 -28 41q-2 2 -14.5 16 t-20.5 20q-31 26 -32 27q-25 -29 -63 -54q-37 -24 -73 -24q-26 0 -59 15q-29 13 -78 62q-18 -12 -45 -51q-19 -35 -22 -67q6 2 22 2h22q30 0 71 -13q42 -19 60 -37q26 -21 41 -52q14 -34 14 -65q0 -35 -14 -69q-15 -31 -41 -52q-20 -22 -58 -38q-32 -13 -71 -13 q-60 0 -99 21q-43 16 -78 54q-29 37 -48 85q-13 52 -13 97q0 123 72 218q70 97 196 130q3 -3 10.5 -12.5t13.5 -16.5q15 -22 34 -38q18 -24 37 -33q15 -15 33 -15q12 0 30 15q15 10 34 32q24 24 35 39q6 6 15.5 16t12.5 13q54 -12 112 -44q51 -32 93 -71q36 -36 63 -84 q21 -42 24 -87q0 -65 -16 -112q-12 -35 -38 -91q-23 -42 -39 -84q-17 -40 -17 -86v-342h188q20 0 36 28q17 29 17 59v417q0 104 -123 175q4 39 2 58q0 23 -4 41q123 36 186 99q65 59 65 149v22h227zM322 793q-32 0 -61 -26q-25 -28 -25 -61q0 -38 25 -66q29 -26 61 -26 t58 26q24 24 24 66q0 37 -24 61q-26 26 -58 26z" />
<glyph unicode="&#xe0c;" horiz-adv-x="1828" d="M434 430q6 2 28 2q46 0 87 -19q41 -16 73 -48q28 -28 48 -71q17 -43 17 -87q0 -45 -17 -88q-20 -43 -48 -71q-32 -32 -73 -48q-41 -19 -87 -19q-122 0 -196 66q-72 65 -72 171v262q0 47 16 82q18 43 45 71q27 31 65 58q33 23 78 41q-14 14 -42 24q-30 9 -69 15 q-42 7 -78 7q-30 4 -79 4v41q19 79 71 145q47 56 123 104q78 43 156 64q92 20 181 20q109 0 195 -24q101 -24 166 -71q66 -42 114 -119q41 -74 41 -167v-352q73 -25 134 -75q50 -41 110 -108v883h240v-1123h-244q-47 69 -114 158q-55 81 -126 129v-168q0 -25 -19 -50 q-15 -23 -46 -43t-73 -30q-41 -11 -88 -11q-44 0 -76 13q-35 12 -65 39t-43 65q-17 40 -17 92q0 224 188 247v324q0 127 -78 194q-80 67 -199 67q-110 0 -183 -41q-76 -43 -111 -108q73 -18 128 -50q45 -33 91 -93q-76 -20 -113 -92q-39 -70 -39 -165v-47zM944 322 q-15 3 -28 -5q-15 -10 -28 -23q-13 -15 -22 -39q-10 -25 -10 -50v-11q3 -45 30 -77q25 -29 58 -29v234zM462 303q-42 0 -69 -27q-28 -28 -28 -69q0 -38 28 -66q28 -29 69 -29q39 0 67 29q30 29 30 66q0 40 -30 69q-27 27 -67 27z" />
<glyph unicode="&#xe0d;" horiz-adv-x="1845" d="M201 480q0 44 17 84q18 42 46 73q25 29 64 59q47 31 76 43q-12 12 -43 22q-34 9 -71 15q-14 2 -41 5t-40 5q-15 0 -41 1t-38 1v41q21 76 71 143q46 55 119 104q79 43 157 63q90 21 176 21q107 0 192 -24q96 -23 164 -71q65 -43 112 -119q41 -74 41 -168v-637h229 q18 0 35 27q15 32 15 59v894h238v-933q0 -31 -18 -67q-24 -35 -54 -61q-36 -28 -80 -43q-46 -17 -99 -17h-505v769q0 121 -78 192q-77 67 -195 67q-104 0 -177 -41q-75 -39 -108 -104q77 -18 127 -53q40 -25 91 -91q-74 -19 -110 -95q-34 -77 -34 -167v-47q6 2 15 2h15 q47 0 88 -19q40 -16 72 -48q30 -30 49 -71q16 -41 16 -87q0 -47 -16 -88q-19 -41 -49 -71q-32 -32 -72 -48q-41 -19 -88 -19q-121 0 -195 66q-73 65 -73 171v262zM469 303q-42 0 -69 -27q-28 -28 -28 -69q0 -38 28 -66q28 -29 69 -29q39 0 67 29q30 29 30 66q0 40 -30 69 q-27 27 -67 27z" />
<glyph unicode="&#xe0e;" horiz-adv-x="1360" d="M467 -188q0 -37 26 -54q25 -19 53 -19q32 0 72 26q37 32 45 75q-13 13 -45 24q-31 11 -63 11q-28 0 -56 -16q-32 -13 -32 -47zM298 508q-3 78 41 136q39 57 91 93q-12 14 -35 21q-21 8 -64 15q-37 6 -83 9q-64 4 -99 4l2 41q19 78 71 141q48 60 121 104q72 42 160 64 q86 20 178 20q110 0 196 -24q99 -24 162 -69q75 -50 112 -117q42 -67 42 -168v-1111h-208l-183 98q-14 -27 -42 -59q-35 -28 -64 -41q-43 -18 -74 -22q-37 -10 -78 -10q-40 0 -90 10q-42 11 -74 33q-28 21 -52 56q-19 38 -19 80q0 40 21 76q22 34 55 52q39 24 80 34 q45 9 94 9q81 0 141 -22q3 20 0 43q0 24 -2 33h164q7 -33 -2 -78q-11 -57 -20 -80l117 -56v946q0 121 -78 192q-77 67 -198 67q-110 0 -186 -41q-78 -44 -113 -106q42 -10 76 -25q41 -17 60 -29q30 -23 48 -41q21 -16 47 -49q-57 -26 -67 -80q-12 -63 -12 -139l15 -302 q6 -104 -69 -171q-79 -65 -199 -65q-46 0 -87 16q-41 19 -71 49q-34 34 -49 72q-18 39 -18 88q0 48 18 87q16 40 49 73q28 28 71 48q43 17 87 17q22 0 28 -2zM281 302q-40 0 -69 -28q-28 -28 -28 -69q0 -38 28 -67q29 -28 69 -28q41 0 69 28q28 29 28 67q0 41 -28 69t-69 28 z" />
<glyph unicode="&#xe0f;" horiz-adv-x="1359" d="M549 218q6 -104 -69 -171q-80 -66 -199 -66q-46 0 -87 19q-45 18 -71 48q-32 28 -49 71q-18 39 -18 88q0 48 18 87q17 43 49 71q26 30 71 48q41 19 87 19q22 0 28 -2l-11 80q-3 80 41 138q39 57 91 93q-15 20 -97 37q-100 13 -186 13l2 41q24 85 74 144q47 56 123 104 q73 41 157 63q97 21 182 21q101 0 194 -25q101 -25 160 -70q67 -42 112 -119q41 -69 41 -168v-1119h-209l-162 130q-45 -49 -74 -76q-17 -17 -42.5 -44.5t-26.5 -28.5l-125 90q-40 -57 -99 -80q-56 -26 -126 -26q-41 0 -79 11t-67 33q-26 21 -44 56q-17 37 -17 82 q0 38 17 67q18 28 44 43q21 12 64 24q35 8 76 8q37 0 84 -10q36 -8 76 -30q8 17 11 47q4 31 2 52h173q3 -25 -5 -48q-6 -31 -15 -52q-3 -9 -22 -49q-15 -25 -23 -37l58 -37q11 12 73 74l72 73l149 -114v952q0 61 -20 110q-17 44 -56 83q-43 36 -86 51q-47 18 -108 18 q-106 0 -188 -41q-81 -47 -115 -108q85 -22 139 -56q50 -30 93 -89q-57 -26 -67 -80q-11 -58 -11 -142zM266 -190q0 -39 21 -63q26 -19 39 -19q21 0 52 23q31 27 50 67q-22 22 -56 29q-27 8 -54 8q-14 0 -33 -6t-19 -39zM281 303q-41 0 -69 -27q-28 -28 -28 -69 q0 -38 28 -66q29 -29 69 -29q41 0 69 29q28 28 28 66q0 41 -28 69q-27 27 -69 27z" />
<glyph unicode="&#xe10;" horiz-adv-x="1199" d="M469 337q-29 -13 -72 -13q-40 0 -80 15q-39 18 -66 45q-28 28 -42 65q-17 37 -17 80q0 41 17 78q14 37 42 65q27 27 66 45q37 17 80 17q108 0 171 -38q65 -33 95 -137l35 -375q8 -26 21 -39q9 -20 29 -20q17 0 30 13q17 11 17 54l11 378q-3 77 -39 121q-29 43 -93 72 q-68 28 -134 36q-72 9 -149 9q-53 0 -149 -4q-75 -3 -130 -3q3 87 26 145q29 72 71 112q42 48 111 74t155 26q71 0 132 -7q74 -15 106 -23q10 -3 32 -7.5t33 -7.5q8 -1 34.5 -5.5t43.5 -7.5h19q19 0 32 2q23 4 35 11q11 3 35 23q17 18 28 43l108 -131q-7 -21 -28 -37 q-13 -9 -54 -32q-32 -11 -70 -20q-32 -8 -75 -8t-108 13q-19 5 -56 15.5t-55 16.5l-36 9t-41 10q-26 7 -58 7h-18q-71 0 -117 -26t-49 -89q82 0 130 -2q73 0 148 -9q52 -6 145 -28q70 -22 128 -58q56 -34 95 -95q38 -60 47 -143l-15 -373q0 -34 -13 -69q-10 -34 -41 -70 q-36 -32 -86 -54q-57 -23 -139 -23q-71 0 -120 17q-47 16 -76 41q-32 29 -43 52q-11 24 -22 52zM397 441q37 0 61 24q26 26 26 64t-26 59q-21 26 -61 26q-39 0 -62 -26q-26 -23 -26 -59q0 -35 26 -64q27 -24 62 -24z" />
<glyph unicode="&#xe11;" horiz-adv-x="1653" d="M1156 1139q47 0 108 -14q49 -14 106 -53q54 -41 82 -96q34 -63 34 -151v-825h-237v823q0 78 -24 115q-26 43 -61 56l-375 -994h-255v464q10 45 36 91q18 34 44 89q22 40 41 97q16 54 13 121q0 38 -22 73q-24 39 -48 57q-24 -29 -66 -54q-37 -24 -70 -24q-27 0 -60 15 q-31 14 -78 61q-17 -11 -45 -48q-19 -39 -22 -69q6 2 22 2h23q40 0 70 -15q35 -10 60 -35q28 -22 41 -54q15 -32 15 -64q0 -35 -15 -67q-12 -29 -41 -55q-21 -21 -58 -36q-32 -13 -71 -13q-50 0 -98 19q-49 25 -78 56q-31 40 -49 85q-13 52 -13 97q0 121 73 220 q71 96 195 128q3 -3 10.5 -12.5t13.5 -16.5q3 -4 34 -40q22 -22 37 -33q20 -13 34 -13q6 0 30 13l33 33q7 7 18.5 20t16.5 18q8 11 28 31q117 -29 187 -110q65 -79 68 -163q0 -65 -16 -116q-10 -38 -34 -97q-19 -52 -33 -85q-15 -50 -15 -88l15 -91l268 661q11 26 13 28 q12 22 20 30q10 10 36 22q26 7 59 7zM303 795q-32 0 -61 -26q-24 -27 -24 -62q0 -38 24 -65q29 -26 61 -26t58 26q24 24 24 65q0 38 -24 62q-26 26 -58 26z" />
<glyph unicode="&#xe12;" horiz-adv-x="1846" d="M950 324q-21 -9 -30 -15q-14 -6 -30 -22q-16 -15 -26 -38q-9 -20 -9 -50v-9q3 -26 13 -41q10 -22 26 -34q4 -4 31 -22q11 -7 25 -7v238zM834 475q-36 -54 -97 -118q-22 -21 -62 -62.5t-53 -54.5q-54 -57 -104 -121q-46 -56 -67 -119h-229l1 145q0 56 -13 131 q-13 80 -39 180q-22 89 -33 168q-8 57 -8 110q0 63 19 137q26 77 63 123q38 55 108 101q75 47 164 74q14 -18 37 -41q29 -29 56 -52q10 -10 27.5 -25.5t24.5 -22.5q33 -19 38 -19q6 0 35 19q8 7 26 22t28 24q9 8 18.5 16.5t21 19t18.5 16.5l41 41q84 -23 145 -61 q67 -46 102 -93q42 -49 63 -112t21 -121v-356q73 -28 140 -80q66 -56 115 -111v888h238v-1121h-238l-28 35q-41 55 -110 140q-62 72 -117 114v-174q0 -24 -17 -50q-18 -23 -48 -43q-26 -17 -71 -29q-51 -12 -89 -12q-43 0 -78 13q-37 13 -69 40q-29 24 -49 65q-18 36 -18 91 q0 113 54 179q53 65 149 76v333q0 20 -4 64q-3 33 -13 67q-5 20 -24 59q-16 26 -40 36q-29 -29 -37 -36q-34 -30 -54 -43q-40 -27 -57 -35q-31 -17 -54 -17q-21 0 -56 13q-37 21 -56 37q-21 16 -50 45q-17 15 -41 39v-2q-30 -10 -49 -37q-19 -28 -33 -65q-10 -26 -21 -82 q-5 -37 -5 -89q0 -24 5 -51q8 -52 15 -80q2 -14 19 -87q7 -40 18 -82q2 -10 6 -30.5t5 -25.5q8 -41 10 -58q1 -6 2.5 -23.5t2.5 -26.5q1 -6 2 -19t2 -18q27 31 54 67q42 62 76 115q-45 22 -81 75q-30 51 -30 108q0 38 15 78q18 39 44 65q28 28 65 45t81 17q43 0 80 -17 t65 -45q26 -26 44 -65q15 -40 15 -78q0 -67 -37 -121zM667 508q33 0 63 24q24 30 24 64q0 35 -24 59q-26 26 -63 26q-39 0 -62 -26q-26 -23 -26 -59q0 -35 26 -64q27 -24 62 -24z" />
<glyph unicode="&#xe13;" horiz-adv-x="1861" d="M1549 102q11 0 24 6q15 10 24 19q13 13 19 26q9 12 9 31q0 20 -9 32q-5 14 -19 28q-11 11 -24 17q-11 7 -24 7q-27 0 -50 -26q-26 -23 -26 -58q0 -31 26 -57q25 -25 50 -25zM201 478q0 39 15 86q15 38 45 76q29 37 61 60q36 28 75 45q-12 12 -43 22q-34 9 -71 15 q-11 3 -23.5 4.5t-28.5 3.5t-26 3q-15 0 -40 1t-35 1v41q19 81 71 143q51 68 119 105q64 43 155 63q85 22 178 22q109 0 198 -22q90 -25 162 -71q70 -51 108 -119q41 -69 41 -168v-541q48 59 119 95q66 37 177 46v741h238v-689q-21 -41 -65 -80q63 -26 100 -72 q40 -49 40 -108q0 -39 -17 -73q-18 -33 -49 -61q-39 -30 -70 -41q-47 -15 -86 -15q-40 0 -87 15q-40 13 -73 41q-31 27 -50 61q-19 32 -19 73q0 24 9 52q-23 -23 -42 -47q-25 -33 -43 -61q-26 -34 -41 -65q-21 -27 -36 -60h-245v780q-3 125 -77 192q-70 69 -192 69 q-107 0 -176 -43q-73 -38 -110 -108q81 -19 128 -52q47 -29 91 -91q-34 -9 -65 -36q-25 -25 -44 -63q-21 -41 -26 -82q-10 -43 -10 -91v-47q6 2 28 2q45 0 88 -17q36 -16 72 -48q33 -38 49 -73q16 -41 16 -87q0 -47 -16 -88q-15 -33 -49 -72q-39 -34 -72 -49 q-41 -16 -88 -16q-122 0 -195 65t-73 171v262zM469 302q-41 0 -69 -28t-28 -69q0 -38 28 -67q28 -28 69 -28q39 0 67 28q30 30 30 67q0 41 -30 69q-28 28 -67 28z" />
<glyph unicode="&#xe14;" horiz-adv-x="1349" d="M212 0v145q0 69 -7 132q-9 85 -34 179q-22 94 -33 181q-8 64 -8 115q0 98 43 175q41 73 116 131q73 52 167 80q90 27 199 27q108 0 194 -24q101 -27 168 -72q73 -50 119 -123q43 -67 46 -166v-780h-238v778q-3 67 -26 110q-29 54 -65 80q-44 35 -93 50q-53 17 -105 17 q-65 0 -119 -22q-52 -20 -93 -60q-38 -36 -63 -93q-24 -49 -24 -117q0 -54 9 -132q10 -73 41 -179q11 -52 17 -101q6 -53 9 -78q35 39 63 80q38 55 67 118q-47 24 -82 74q-29 49 -29 108q0 41 14 78q17 37 45 65t65 45t80 17t80 -17q39 -18 66 -45q26 -26 44 -65 q15 -40 15 -78q0 -67 -37 -121q-30 -46 -97 -123q-24 -25 -65.5 -71.5t-53.5 -60.5q-68 -80 -106 -130q-46 -65 -67 -127h-222zM655 546q34 0 64 24q24 30 24 63q0 36 -24 60q-26 26 -64 26t-61 -26q-26 -23 -26 -60q0 -34 26 -63q27 -24 61 -24z" />
<glyph unicode="&#xe15;" horiz-adv-x="1349" d="M428 233q30 33 60 69q40 49 71 111q-46 23 -82 75q-30 51 -30 108q0 38 15 78q18 39 44 65q27 27 66 45q37 17 80 17t80 -17t65 -45t45 -65q14 -37 14 -78q0 -67 -37 -121q-36 -54 -97 -118q-22 -21 -62 -62.5t-53 -54.5q-53 -53 -106 -121q-46 -56 -67 -119h-222v145 q0 69 -7 132q-9 85 -34 179q-22 89 -33 168q-8 57 -8 110q0 145 79 264q79 115 256 179q10 -13 38 -41q37 -37 56 -54q2 -2 23 -20.5t32 -26.5q23 -20 36 -20q12 0 35 20q13 8 56 45q19 17 56 54q11 11 24.5 25.5t16.5 17.5q78 -22 145 -64q71 -48 108 -96q42 -48 67 -112 q24 -58 24 -125v-780h-238v778q0 28 -6 67q-8 44 -16 67q-10 33 -28 60q-16 26 -39 39q-4 -4 -10 -9l-15 -12.5t-15 -13.5q-37 -33 -52 -43q-47 -31 -59 -36q-29 -16 -54 -16q-21 0 -56 13q-28 16 -54 33q-31 25 -52 43l-39 39q-20 -14 -39 -43q-17 -27 -32 -69 q-10 -26 -21 -82q-7 -33 -7 -83q0 -3 4 -51q4 -44 11 -78l17 -89q7 -40 18 -82q3 -16 7 -40.5t6 -32.5q4 -35 8 -52q0 -23 3 -39q1 -6 2 -17.5t2 -17.5zM652 508q33 0 63 24q24 30 24 64q0 35 -24 59q-26 26 -63 26q-39 0 -62 -26q-26 -23 -26 -59q0 -35 26 -64 q27 -24 62 -24z" />
<glyph unicode="&#xe16;" horiz-adv-x="1314" d="M417 430q6 2 17 2h17q46 0 87 -19q41 -16 73 -48q28 -28 48 -71q17 -43 17 -87q0 -45 -17 -88q-20 -43 -48 -71q-32 -32 -73 -48q-41 -19 -87 -19q-122 0 -196 66q-73 65 -73 171v262q0 41 15 84q16 38 43 73q20 26 62 59q48 30 74 41q-15 15 -45 23q-26 8 -67 15 q-11 3 -23.5 4.5t-28.5 3.5t-26 3q-15 0 -39.5 1t-34.5 1v41q22 80 72 143q49 59 121 104q71 41 153 63q94 21 179 21q109 0 195 -24q99 -24 162 -69q70 -47 112 -117q41 -70 41 -168v-782h-240l2 773q0 119 -77 191q-74 67 -195 67q-103 0 -179 -41q-79 -47 -112 -107 q81 -20 127 -53q44 -26 91 -91q-77 -20 -110 -95q-37 -71 -37 -167v-47zM451 303q-42 0 -69 -27q-28 -28 -28 -69q0 -38 28 -66q28 -29 69 -29q39 0 67 29q29 28 29 66q0 41 -29 69q-27 27 -67 27z" />
<glyph unicode="&#xe17;" horiz-adv-x="1439" d="M566 343l259 718q12 29 35 52q26 26 90 26q38 -3 96 -20q58 -18 105 -54q43 -28 85 -93q36 -61 36 -147v-825h-239v823q-3 84 -28 121q-22 42 -67 56l-359 -1000h-253v691q-6 -2 -26 -2q-49 0 -88 18q-43 17 -71 49q-30 26 -48 71q-19 41 -19 87q0 47 19 88q17 43 48 70 q28 32 71 49q39 18 88 18q122 0 195 -65q71 -65 71 -171v-560zM300 817q41 0 69 28t28 69q0 37 -28 65q-28 30 -69 30q-39 0 -69 -30q-28 -28 -28 -65q0 -41 28 -69q29 -28 69 -28z" />
<glyph unicode="&#xe18;" horiz-adv-x="1161" d="M164 624h238v-483h305q17 0 34 30q17 29 17 62v353q0 47 -32 77q-29 29 -89 50q-42 16 -125 28q-115 10 -147 11q-96 4 -149 4q-52 -2 -140 -2q0 77 21 155q20 75 67 130q50 58 115 86q72 33 173 33q60 0 125 -7q73 -15 103 -23q39 -9 72 -18q40 -10 62 -10h35q21 0 37 6 q18 2 39 17q19 13 32 41l115 -131q-48 -58 -113 -69q-68 -11 -138 -11q-39 0 -80 11q-14 4 -41 12t-41 11q-39 13 -78 24q-41 11 -78 11q-55 0 -90 -11q-32 -9 -59 -32q-22 -22 -30 -48q-10 -24 -13 -56q97 0 147 -2q86 -3 155 -13q78 -9 147 -28q68 -20 121 -50 q53 -33 83 -84q32 -54 32 -121v-391q0 -42 -20 -71q-16 -35 -54 -59q-35 -28 -82 -41q-53 -15 -99 -15h-577v624z" />
<glyph unicode="&#xe19;" horiz-adv-x="1381" d="M300 817q40 0 68.5 28.5t28.5 68.5q0 38 -29 66.5t-68 28.5q-38 0 -67.5 -29t-29.5 -66q0 -40 29 -68.5t68 -28.5zM884 279q-120 -24 -305 -263q-9 -11 -13 -16h-240v691q-6 -2 -26 -2q-96 0 -161 64.5t-65 160.5t65 160.5t161 64.5q119 0 192.5 -63t73.5 -173v-719 q15 12 52 45.5t59 52.5t61.5 46.5t72 42t76.5 24.5t89 7v719h238v-669q-19 -43 -63 -81q51 -26 85 -75t34 -112q0 -88 -58.5 -146t-146.5 -58t-146.5 58t-58.5 146q0 53 24 95zM1065 97q36 0 61.5 25.5t25.5 61.5t-25.5 61t-61.5 25q-35 0 -61.5 -25.5t-26.5 -60.5 q0 -36 26 -61.5t62 -25.5z" />
<glyph unicode="&#xe1a;" horiz-adv-x="1403" d="M328 691q-6 -2 -28 -2q-49 0 -88 18q-43 17 -71 49q-30 26 -48 71q-19 41 -19 87q0 47 19 88q17 43 48 70q28 32 71 49q39 18 88 18q122 0 195 -65q70 -64 73 -171v-762h378q18 0 35 27q17 29 17 59v894h238v-933q0 -31 -18 -67q-24 -35 -54 -61q-36 -28 -80 -43 q-46 -17 -99 -17h-749v141h92v550zM300 817q41 0 69 28t28 69q0 37 -28 65q-28 30 -69 30q-39 0 -69 -30q-28 -28 -28 -65q0 -41 28 -69q29 -28 69 -28z" />
<glyph unicode="&#xe1b;" horiz-adv-x="1401" d="M326 691q-6 -2 -26 -2q-49 0 -88 18q-43 17 -71 49q-30 26 -48 71q-19 41 -19 87q0 47 19 88q17 43 48 70q28 32 71 49q39 18 88 18q122 0 195 -65q71 -65 71 -171v-762h378q18 0 35 27q17 29 17 59v1337h238v-1376q0 -38 -20 -67q-14 -28 -52 -61q-35 -27 -78 -43 q-49 -17 -101 -17h-748v141h91v550zM300 817q41 0 69 28t28 69q0 37 -28 65q-28 30 -69 30q-39 0 -69 -30q-28 -28 -28 -65q0 -41 28 -69q29 -28 69 -28z" />
<glyph unicode="&#xe1c;" horiz-adv-x="1422" d="M408 289l255 378h112l243 -382v836h239v-1121h-235l-309 514l-318 -514h-227v903q0 107 70 171q73 65 196 65q48 0 87 -18q43 -17 71 -49q31 -27 48 -70q19 -41 19 -88q0 -46 -19 -87q-18 -45 -48 -71q-28 -32 -71 -49q-39 -18 -87 -18q-20 0 -26 2v-402zM434 817 q40 0 69 28q28 28 28 69q0 37 -28 65q-30 30 -69 30q-40 0 -69 -30q-28 -28 -28 -65q0 -41 28 -69t69 -28z" />
<glyph unicode="&#xe1d;" horiz-adv-x="1422" d="M408 289l255 378h112l243 -382v1281h239v-1566h-235l-309 514l-318 -514h-227v903q0 107 70 171q73 65 196 65q48 0 87 -18q43 -17 71 -49q31 -27 48 -70q19 -41 19 -88q0 -46 -19 -87q-18 -45 -48 -71q-28 -32 -71 -49q-39 -18 -87 -18q-20 0 -26 2v-402zM434 817 q40 0 69 28q28 28 28 69q0 37 -28 65q-30 30 -69 30q-40 0 -69 -30q-28 -28 -28 -65q0 -41 28 -69t69 -28z" />
<glyph unicode="&#xe1e;" horiz-adv-x="1549" d="M326 691q-6 -2 -26 -2q-49 0 -88 18q-43 17 -71 49q-30 26 -48 71q-19 41 -19 87q0 47 19 88q17 43 48 70q28 32 71 49q39 18 88 18q122 0 195 -65t73 -171v-482l249 681h71l253 -676v695h240v-1121h-258l-268 799l-270 -799h-259v691zM300 817q41 0 69 28t28 69 q0 37 -28 65q-28 30 -69 30q-39 0 -69 -30q-28 -28 -28 -65q0 -41 28 -69q29 -28 69 -28z" />
<glyph unicode="&#xe1f;" horiz-adv-x="1549" d="M326 691q-6 -2 -26 -2q-49 0 -88 18q-43 17 -71 49q-30 26 -48 71q-19 41 -19 87q0 47 19 88q17 43 48 70q28 32 71 49q39 18 88 18q122 0 195 -65t73 -171v-482l249 681h71l253 -676v1136h240v-1562h-258l-268 799l-270 -799h-259v691zM300 817q41 0 69 28t28 69 q0 37 -28 65q-28 30 -69 30q-39 0 -69 -30q-28 -28 -28 -65q0 -41 28 -69q29 -28 69 -28z" />
<glyph unicode="&#xe20;" horiz-adv-x="1360" d="M549 216q6 -104 -69 -171q-79 -65 -199 -65q-46 0 -87 16q-41 19 -71 49q-34 34 -49 72q-18 39 -18 88q0 48 18 87q16 40 49 73q28 28 71 48q43 17 87 17q22 0 28 -2l-11 80q0 78 41 136q45 61 91 93q-12 14 -35 21q-21 8 -64 15q-37 6 -83 9q-64 4 -99 4l2 41 q19 78 71 141q48 60 121 104q72 42 160 64q86 20 178 20q110 0 196 -24q99 -24 162 -69q75 -50 112 -117q42 -67 42 -168v-778h-236v769q0 121 -78 192q-77 67 -198 67q-110 0 -186 -41q-78 -44 -113 -106q42 -10 76 -25q41 -17 60 -29q30 -23 48 -41q21 -16 47 -49 q-57 -26 -67 -80q-12 -63 -12 -139zM281 302q-40 0 -69 -28q-28 -28 -28 -69q0 -38 28 -67q29 -28 69 -28q41 0 69 28q28 29 28 67q0 41 -28 69t-69 28z" />
<glyph unicode="&#xe21;" horiz-adv-x="1385" d="M365 691q-6 -2 -28 -2q-49 0 -88 18q-42 16 -70 49q-32 28 -49 71q-18 39 -18 87q0 49 18 88q16 42 49 70q28 33 70 49q39 18 88 18q122 0 195 -65q71 -65 71 -171v-480q43 -9 101 -38q50 -25 98 -61q4 -3 95 -71q45 -39 84 -72v940h237v-1121h-239q-24 28 -82 86 q-28 30 -95 89q-73 56 -102 74q-56 37 -97 53v-187q0 -26 -18 -50q-14 -21 -47 -43q-28 -18 -71 -29q-48 -12 -87 -12q-43 0 -86 13q-42 12 -85 40q-34 24 -64 65q-24 42 -24 91q0 54 20 97q19 44 54 74q27 27 77 50q43 19 93 25v255zM367 317l-28 -8q-27 -12 -36 -20 q-17 -13 -27 -36q-13 -22 -13 -54q0 -26 11 -50q13 -20 28 -30q13 -11 33 -18q10 -3 32 -8v224zM337 817q41 0 69 28t28 69q0 37 -28 65q-28 30 -69 30q-39 0 -69 -30q-28 -28 -28 -65q0 -41 28 -69q29 -28 69 -28z" />
<glyph unicode="&#xe22;" horiz-adv-x="1312" d="M430 1139q52 0 88 -18q41 -15 72 -49q31 -30 47 -70q18 -39 18 -88q0 -48 -18 -87q-17 -42 -47 -71q-31 -34 -72 -49q-36 -18 -88 -18q-17 0 -28 4q-20 0 -30 3q30 -45 99 -65t151 -20h85v-105q-93 -8 -122 -13q-64 -10 -92 -28q-34 -16 -55 -54q-19 -35 -19 -93v-177 h436q16 0 33 27q17 29 17 59v894h240v-933q0 -38 -20 -67q-13 -27 -53 -61q-36 -28 -80 -43q-49 -17 -100 -17h-708v309q0 87 51 142q47 57 132 80q-55 10 -90 24q-44 14 -76 52q-28 31 -52 99q-19 74 -19 163q0 51 23 103q29 55 63 86q44 37 97 59q51 22 117 22zM430 817 q41 0 69 28t28 69q0 37 -28 65q-29 30 -69 30q-39 0 -69 -30q-28 -28 -28 -65q0 -41 28 -69q29 -28 69 -28z" />
<glyph unicode="&#xe23;" horiz-adv-x="1124" d="M687 430v164q0 41 -18.5 71t-55.5 48t-82 29t-108.5 15.5t-124 6t-139.5 1.5h-66q0 160 111.5 276.5t259.5 116.5q39 0 84 -5.5t75.5 -11.5t83.5 -18t79 -17q1 0 12.5 -1t14.5 -1t14.5 0.5t17 2t16 4t17 7.5t15 11.5t15 16t12.5 21.5l93 -143q-20 -45 -89 -69t-148 -13 q-22 5 -71 19.5t-87 25t-88 16t-86 -1.5t-67.5 -35.5t-45.5 -79.5q75 -1 135.5 -5.5t134 -14.5t127.5 -30t101.5 -50t72.5 -76.5t25 -106.5v-385q0 -106 -74 -171.5t-196 -65.5q-93 0 -159 66.5t-66 159.5q0 94 65.5 159.5t159.5 65.5q21 0 30 -2zM657 303q-39 0 -68 -28 t-29 -68q0 -38 29 -66.5t68 -28.5q40 0 68.5 28.5t28.5 66.5q0 40 -28 68t-69 28z" />
<glyph unicode="&#xe24;" horiz-adv-x="1314" d="M417 430q6 2 17 2h17q46 0 87 -19q41 -16 73 -48q28 -28 48 -71q17 -43 17 -87q0 -45 -17 -88q-20 -43 -48 -71q-32 -32 -73 -48q-41 -19 -87 -19q-122 0 -196 66q-73 65 -73 171v262q0 41 15 84q16 38 43 73q20 26 62 59q48 30 74 41q-15 15 -45 23q-26 8 -67 15 q-11 3 -23.5 4.5t-28.5 3.5t-26 3q-15 0 -39.5 1t-34.5 1v41q22 80 72 143q49 59 121 104q71 41 153 63q94 21 179 21q109 0 195 -24q99 -24 162 -69q70 -47 112 -117q41 -70 41 -168v-1221h-240l2 1212q0 119 -77 191q-74 67 -195 67q-103 0 -179 -41q-79 -47 -112 -107 q81 -20 127 -53q44 -26 91 -91q-77 -20 -110 -95q-37 -71 -37 -167v-47zM451 303q-42 0 -69 -27q-28 -28 -28 -69q0 -38 28 -66q28 -29 69 -29q39 0 67 29q29 28 29 66q0 41 -29 69q-27 27 -67 27z" />
<glyph unicode="&#xe25;" horiz-adv-x="1327" d="M1162 771v-771h-240v110q-13 78 -53 199q-36 103 -87 188q-52 85 -117 136q-69 54 -149 54q-20 0 -34 -20q-13 -19 -22 -54q-6 -31 -9 -81q-4 -64 -4 -102q6 2 15 2h15q47 0 87 -17q41 -16 73 -48t48 -73q19 -45 19 -87q0 -40 -19 -88q-15 -38 -48 -71q-30 -30 -73 -50 q-40 -17 -87 -17q-122 0 -196 66q-72 65 -72 171v223q0 87 18 153q16 67 54 123q36 51 90 82q55 30 124 30q132 3 246 -75q108 -74 181 -244v237q0 145 -72.5 214.5t-220.5 69.5q-145 0 -221 -45.5t-108 -140.5l-127 78q51 119 160.5 179t299.5 60q115 0 207.5 -20.5 t166.5 -65t114.5 -122t40.5 -183.5zM477 303q-42 0 -69 -27q-28 -28 -28 -69q0 -38 28 -66q28 -29 69 -29t69 29q27 27 27 66q0 42 -27 69t-69 27z" />
<glyph unicode="&#xe26;" horiz-adv-x="1360" d="M549 216q6 -104 -69 -171q-79 -65 -199 -65q-46 0 -87 16q-41 19 -71 49q-34 34 -49 72q-18 39 -18 88q0 48 18 87q16 40 49 73q28 28 71 48q43 17 87 17q22 0 28 -2l-11 80q0 78 41 136q45 61 91 93q-12 14 -35 21q-21 8 -64 15q-37 6 -83 9q-64 4 -99 4l2 41 q19 78 71 141q48 60 121 104q72 42 160 64q86 20 178 20q110 0 196 -24q99 -24 162 -69q75 -50 112 -117q42 -67 42 -168v-1219h-236v1210q0 121 -78 192q-77 67 -198 67q-110 0 -186 -41q-78 -44 -113 -106q42 -10 76 -25q41 -17 60 -29q30 -23 48 -41q21 -16 47 -49 q-57 -26 -67 -80q-12 -63 -12 -139zM281 302q-40 0 -69 -28q-28 -28 -28 -69q0 -38 28 -67q29 -28 69 -28q41 0 69 28q28 29 28 67q0 41 -28 69t-69 28z" />
<glyph unicode="&#xe27;" horiz-adv-x="1143" d="M977 218q0 -106 -72 -171q-74 -66 -196 -66q-46 0 -87 19q-45 18 -71 48q-30 26 -48 71q-19 41 -19 88q0 46 19 87q18 45 48 71q26 30 71 48q41 19 87 19h17q11 0 17 -2v311q0 142 -53.5 215.5t-179.5 73.5q-146 0 -221.5 -52.5t-106.5 -171.5l-126 78 q51 141 159.5 208.5t298.5 67.5q131 0 233.5 -40.5t166 -128t63.5 -211.5v-562zM709 303q-41 0 -69 -27q-27 -27 -27 -69q0 -39 27 -66q29 -29 69 -29q41 0 69 29q28 28 28 66q0 41 -28 69q-27 27 -69 27z" />
<glyph unicode="&#xe28;" horiz-adv-x="1364" d="M464 0h-250v108q0 49 -13 149q-6 30 -17 87.5t-15 78.5q-5 29 -15 81t-13 71q-11 79 -11 134q0 110 41 192q43 83 116 140q69 56 173 87q100 30 221 30q63 0 121 -9q63 -10 108 -28q47 13 84 59q37 43 47 123l223 -78q-3 -26 -22 -54q-15 -22 -47 -54q-44 -35 -63 -45 q-38 -21 -71 -33q64 -54 101 -116q41 -63 41 -143v-780h-239v778q0 61 -22 108q-27 50 -63 78q-45 34 -90 49q-58 15 -106 15q-68 0 -128 -23q-54 -18 -101 -59q-40 -40 -63 -93q-24 -49 -24 -119q0 -51 5 -95q3 -55 12 -99q8 -68 11 -86q3 -11 5 -21.5t3.5 -19t2.5 -11.5 q3 11 8 33.5l7 31.5q2 14 6 39.5t5 33.5q8 30 15 71q14 44 22 61q26 62 71 101q48 39 128 39q41 0 73 -13q38 -14 60 -36q26 -24 41 -56q14 -31 14 -67q0 -33 -14 -63q-12 -30 -41 -56q-18 -18 -60 -37q-41 -13 -73 -13q-67 0 -108 35q-15 -33 -31 -93q-25 -98 -30 -130 q-11 -47 -24 -127q-10 -68 -10 -82zM668 557q35 0 62 24q24 27 24 58q0 38 -24 65q-29 26 -62 26q-31 0 -57 -26q-25 -25 -25 -65q0 -33 25 -58q24 -24 57 -24z" />
<glyph unicode="&#xe29;" horiz-adv-x="1388" d="M1413 788q-13 -108 -58 -175q-42 -67 -137 -120l1 -5v-324q0 -69 -57 -116q-58 -48 -170 -48h-759v141h93v550q-6 -2 -26 -2q-49 0 -88 18q-43 17 -71 49q-30 26 -48 71q-19 41 -19 87q0 47 19 88q17 43 48 70q28 32 71 49q39 18 88 18q122 0 195 -65q71 -65 71 -171 v-762h387q28 0 28 64v225q-6 -2 -17 -2h-16q-87 0 -155 26q-70 21 -125 73q-50 47 -50 117q0 73 49 116q42 48 115 48t115 -48q49 -43 49 -116q0 -29 -11 -59t-30 -49q12 -4 37 -4q26 -3 39 6v583h238v-473q23 11 38 46q16 38 13 94h143zM782 568q32 0 54 22t22 54t-22 54 q-23 23 -54 23t-54 -23q-22 -22 -22 -54t22 -54t54 -22zM300 817q41 0 69 28t28 69q0 37 -28 65q-28 30 -69 30q-39 0 -69 -30q-28 -28 -28 -65q0 -41 28 -69q29 -28 69 -28z" />
<glyph unicode="&#xe2a;" horiz-adv-x="1325" d="M622 1030q-142 0 -219 -46t-109 -141l-126 79q52 119 161 178.5t297 59.5q171 0 294 -41q59 14 79.5 46t35.5 105l196 -69q-9 -67 -50 -106.5t-114 -68.5q95 -110 95 -257v-769h-239v84q0 71 -19 152.5t-55.5 160.5t-85 143t-112.5 103.5t-132 39.5q-66 0 -83 -152 q-4 -64 -4 -101q9 2 30 2q96 0 160.5 -64.5t64.5 -160.5t-64.5 -161t-160.5 -65q-119 0 -193.5 63.5t-74.5 173.5v223q0 163 80.5 277t222.5 114q284 0 426 -326v239q0 146 -74 215.5t-227 69.5zM462 303q-41 0 -69 -28t-28 -68q0 -38 29 -66.5t68 -28.5q38 0 67.5 29 t29.5 66q0 40 -29 68t-68 28z" />
<glyph unicode="&#xe2b;" horiz-adv-x="1422" d="M983 955q0 -52 82 -108q27 16 52.5 45.5t25.5 62.5q0 41 -25.5 66t-58.5 25q-30 0 -53 -25t-23 -66zM568 903v-486q30 48 41.5 65.5t43.5 65.5t50.5 71.5t50.5 61.5t56.5 59.5t56 42.5t60.5 31q-39 29 -67 66.5t-28 72.5q0 83 66 134.5t161 51.5q98 0 161 -51t63 -135 q0 -110 -131 -164q101 -70 101 -134v-655h-238v652q1 35 -4 65q-238 -90 -456 -717h-224v691q-9 -2 -31 -2q-94 0 -160 65.5t-66 159.5q0 92 66 158.5t160 66.5q122 0 195 -65t73 -171zM300 817q40 0 68.5 28.5t28.5 68.5q0 38 -28.5 66.5t-68.5 28.5q-39 0 -68 -28.5 t-29 -66.5q0 -40 29 -68.5t68 -28.5z" />
<glyph unicode="&#xe2c;" horiz-adv-x="1547" d="M1141 825q-43 0 -83 17q-39 15 -68 42q-25 25 -44 66q-15 40 -15 80q0 38 15 78q18 39 44 65q27 27 66 45q35 16 80 16q86 0 145 -59q15 42 19 52q5 21 5 71h205q-3 -82 -43 -149q-44 -74 -108 -145q3 -5 7 -15t6 -13q5 -13 8 -41v-935h-261l-270 631l-263 -631h-258v691 q-6 -2 -28 -2q-49 0 -88 18q-43 17 -71 49q-30 26 -48 71q-19 41 -19 87q0 47 19 88q17 43 48 70q28 32 71 49q39 18 88 18q122 0 195 -65q71 -65 71 -171v-553l240 542h88l247 -548v481zM300 817q41 0 69 28t28 69q0 37 -28 65q-28 30 -69 30q-39 0 -69 -30 q-28 -28 -28 -65q0 -41 28 -69q29 -28 69 -28zM1136 942q37 0 63 26q24 24 24 62q0 31 -24 61q-30 24 -63 24q-35 0 -62 -24q-26 -29 -26 -61q0 -39 26 -62q23 -26 62 -26z" />
<glyph unicode="&#xe2d;" horiz-adv-x="1312" d="M637 1031q-144 0 -221 -45.5t-107 -140.5l-127 78q33 78 90 129t149 79.5t219 28.5q507 0 507 -443l-2 -531q0 -84 -77.5 -135t-177.5 -51h-661v575q0 110 74.5 173.5t193.5 63.5q96 0 160.5 -65t64.5 -161t-64.5 -160.5t-160.5 -64.5h-15q-9 0 -15 2v-222h391 q20 0 34.5 29.5t14.5 56.5v466q0 175 -62.5 256.5t-207.5 81.5zM497 490q39 0 68 28t29 68q0 37 -29.5 66t-67.5 29q-39 0 -68 -28.5t-29 -66.5q0 -40 28 -68t69 -28z" />
<glyph unicode="&#xe2e;" horiz-adv-x="1293" d="M197 464q0 106 73 171t195 65q47 0 88 -19q41 -16 73 -48q28 -28 48 -71q17 -43 17 -87q0 -45 -17 -88q-19 -41 -48 -70q-33 -33 -73 -49q-41 -19 -88 -19q-21 0 -27 2v-110h411q20 0 34 27q14 30 14 59v529q0 44 -1 52q-6 32 -8 39q-68 -30 -158 -54q-88 -18 -171 -18 q-183 0 -287 48t-104 138q0 36 31 70q30 30 93 67q52 28 132 45q90 15 176 15q101 0 189 -22q83 -19 159 -64q33 33 39 73q9 36 9 104v36l210 -36v-18q0 -86 -29 -151q-29 -68 -116 -127q40 -56 52 -80q23 -40 23 -98v-589q-3 -37 -23 -71q-15 -25 -54 -59q-40 -27 -80 -41 q-50 -15 -96 -15h-686v464zM819 966q-52 37 -104 51q-57 20 -123 20q-50 0 -89 -6q-55 -11 -75 -18q-30 -9 -50 -23q-19 -13 -19 -26q0 -12 17 -26q12 -12 41 -22q19 -7 63 -19q32 -5 79 -5q60 0 132 20q63 18 128 54zM465 378q39 0 67 28q30 28 30 69q0 37 -30 65 q-28 30 -67 30t-68 -30q-28 -28 -28 -65q0 -41 28 -69t68 -28z" />
<glyph unicode="&#xe2f;" horiz-adv-x="1217" d="M814 793q-54 -69 -142 -102q-90 -34 -169 -34q-81 0 -144 19q-58 17 -113 50q-49 36 -73 78q-26 43 -26 93q0 35 15 75q11 28 39 59q34 30 60 41q40 15 74 15q35 0 75 -15q24 -10 59 -41q28 -31 39 -59q15 -37 15 -73q0 -28 -13 -69q-22 -38 -37 -55q64 -9 121 16 q58 25 104 71q47 47 77 108q27 55 37 127v24h240v-1121h-238v793zM253 899q0 -35 24 -59q25 -25 60 -25t60 25q24 24 24 59q0 36 -24 60t-60 24t-60 -24t-24 -60z" />
<glyph unicode="&#xe30;" horiz-adv-x="1016" d="M74 927q0 35 15 75q14 35 41 59q24 28 60 41q37 15 73 15q35 0 72 -15q36 -13 60 -41q27 -24 41 -59q15 -37 15 -73q0 -39 -15 -69q-10 -26 -36 -56q129 -14 207 64q80 80 93 210h205q-14 -82 -56 -153t-104 -124q-67 -56 -142 -82q-79 -32 -173 -32q-80 0 -143 19 q-68 20 -112 50q-47 30 -74 78q-27 44 -27 93zM181 929q0 -36 24 -60t59 -24q36 0 60 24t24 60t-24 60t-60 24q-35 0 -59 -24t-24 -60zM74 268q0 35 15 75q14 35 41 59q24 28 60 41q37 15 73 15q35 0 72 -15q36 -13 60 -41q27 -24 41 -59q15 -37 15 -73q0 -39 -15 -69 q-10 -26 -36 -56q129 -14 207 64q80 80 93 210h205q-14 -82 -56 -153q-43 -73 -104 -125q-65 -54 -142 -81q-79 -32 -173 -32q-80 0 -143 19q-68 20 -112 50q-47 30 -74 78q-27 44 -27 93zM181 270q0 -36 24 -60t59 -24q36 0 60 24t24 60t-24 60t-60 24q-35 0 -59 -24 t-24 -60z" />
<glyph unicode="&#xe31;" d="M-685 1540q0 35 15 72q14 38 41 62q25 28 59 41q37 15 73 15t73 -15q34 -13 59 -41q26 -23 41 -60t15 -72q0 -41 -15 -67q-9 -29 -35 -58q129 -14 206 63q80 80 93 211h205q-14 -82 -56 -153q-46 -77 -104 -123q-58 -52 -141 -86q-82 -29 -174 -29q-83 0 -143 18 q-70 21 -112 52q-44 26 -74 75q-26 46 -26 95zM-579 1542q0 -36 24 -60t60 -24q35 0 59 24q25 25 25 60q0 34 -25 59q-24 24 -59 24q-36 0 -60 -24t-24 -59z" />
<glyph unicode="&#xe32;" horiz-adv-x="1105" d="M700 0v743q0 58 -11 113q-8 47 -34 92q-30 41 -67 61q-45 21 -104 21q-110 0 -182 -51q-77 -49 -107 -180l-141 85q22 55 47 99q28 53 74 88q38 33 119 65q80 24 190 24q80 0 164 -21q82 -19 145 -65q64 -42 104 -117q41 -70 41 -175v-782h-238z" />
<glyph unicode="&#xe33;" horiz-adv-x="1105" d="M-287 1687q43 0 80 -17q36 -15 66 -45q26 -26 44 -65q15 -33 15 -78q0 -47 -15 -80q-18 -39 -44 -65q-30 -30 -66 -45q-40 -15 -80 -15q-37 0 -80 15q-37 17 -65 45q-24 24 -43 65q-17 37 -17 80q0 41 17 78q19 41 43 65q28 28 65 45q40 17 80 17zM-287 1395q37 0 64 24 q24 27 24 63q0 39 -24 60q-23 26 -64 26q-35 0 -61 -26q-26 -23 -26 -60q0 -34 26 -63q30 -24 61 -24zM700 0v743q0 58 -11 113q-8 47 -34 92q-30 41 -67 61q-45 21 -104 21q-110 0 -182 -51q-77 -49 -107 -180l-141 85q22 55 47 99q28 53 74 88q38 33 119 65q80 24 190 24 q80 0 164 -21q82 -19 145 -65q64 -42 104 -117q41 -70 41 -175v-782h-238z" />
<glyph unicode="&#xe34;" d="M-199 1298q-140 30 -259 43q-131 14 -249 14q-88 0 -196 -11q-102 -13 -229 -39q10 92 50 164q39 70 99 114q57 43 130 63q69 22 149 22q93 0 172 -24q85 -24 163 -69q84 -56 131 -113q58 -67 83 -153zM-372 1408q-46 67 -127 108q-75 39 -160 42q-79 3 -156 -28 q-75 -33 -120 -108q160 21 283 15q129 0 280 -29z" />
<glyph unicode="&#xe35;" d="M-168 1730v-380l15 -39l-39 -10q-146 31 -270 47q-140 15 -236 15q-98 0 -203 -13q-104 -13 -227 -39q9 94 46 158q43 69 103 110q61 44 136 67q77 20 152 20q51 0 86 -7q5 -1 91 -21q68 -25 84 -33q44 -17 73 -39v164h189zM-369 1408q-46 68 -126 108q-75 39 -160 42 q-80 3 -157 -28q-74 -32 -119 -108q160 21 283 15q128 0 279 -29z" />
<glyph unicode="&#xe36;" d="M-248 1452q32 -42 47 -63q29 -39 48 -78l-33 -10q-293 62 -521 62q-92 0 -200 -11q-114 -15 -223 -38q13 91 54 161q39 67 97 109q62 47 126 62q63 20 149 20q35 0 75 -5q44 -3 87 -26q11 42 28 69q22 34 50 52q29 19 66 29q41 9 76 4q79 -14 121 -78q45 -65 32 -140 q-11 -42 -30 -67q-21 -30 -49 -52zM-436 1618q-8 -32 13 -63q19 -28 54 -34q33 -8 64 13q26 18 33 54q8 32 -13 63q-19 28 -54 34q-35 9 -63 -13q-28 -16 -34 -54zM-380 1408q-46 68 -126 108q-75 39 -161 42q-79 3 -156 -28q-74 -32 -119 -108q160 21 283 15q128 0 279 -29 z" />
<glyph unicode="&#xe37;" d="M-449 1633q3 -1 9 -3.5t15.5 -7t18.5 -8.5q21 -10 50 -30v175h190v-398l13 -32l-37 -11q-300 60 -512 60q-84 0 -199 -11q-92 -11 -227 -40q14 95 52 161q37 65 99 109q56 43 135 67q81 21 162 21q17 0 30 -2q22 0 28 -2v78h173v-126zM-361 1430q-46 67 -127 108 q-77 40 -160 43q-79 3 -156 -28q-74 -32 -119 -108q160 21 283 15q123 0 279 -30z" />
<glyph unicode="&#xe38;" d="M-352 -89q21 0 65 -8q39 -14 60 -28q29 -22 43 -48q16 -29 16 -71v-309h-184v134q-74 0 -121 47q-48 48 -48 117q0 36 13 65q14 31 35 52q28 24 56 36q27 13 65 13zM-352 -337q34 0 58 24q22 25 22 58q0 36 -22 58q-24 24 -58 24t-58 -24q-24 -21 -24 -58q0 -34 24 -58 t58 -24z" />
<glyph unicode="&#xe39;" d="M-168 -104v-449h-491v153q-77 -3 -123 43q-45 48 -45 111q0 35 13 64q13 27 36 50q18 21 48 35q31 11 63 11q61 0 114 -33q51 -35 60 -114v-219h154v348h171zM-667 -330q33 0 58 25q24 24 24 59t-24 56q-24 24 -58 24q-36 0 -57 -24q-23 -23 -23 -56t23 -59 q22 -25 57 -25z" />
<glyph unicode="&#xe3a;" d="M-289 -112q39 0 73 -31q32 -32 32 -73q0 -39 -32 -74q-35 -30 -73 -30q-40 0 -72 30q-34 34 -34 74q0 42 34 73q31 31 72 31z" />
<glyph unicode="&#xe3f;" horiz-adv-x="1290" d="M186 30v1437h358v188h109v-188h34q42 -4 76 -11q43 -8 99 -32q55 -23 97 -63q44 -41 74 -106q30 -64 30 -160q0 -103 -41 -166q-42 -64 -91 -99q-55 -39 -95 -48q-45 -17 -50 -19q2 -1 5.5 -1t11.5 -0.5t16 -1.5q32 0 67 -8q51 -11 86 -26q46 -20 82 -56q33 -36 63 -100 q24 -66 24 -155q0 -98 -33 -166q-34 -67 -84 -108q-50 -40 -112 -67q-58 -22 -111 -33q-42 -7 -88 -11h-37h-23v-211h-109v211h-358zM544 698h-194v-529h194v529zM653 169l90 10q59 12 104 37q47 23 88 74q35 51 35 131q0 76 -19 123q-19 50 -48 82q-34 32 -65 44 q-38 17 -69 23q-28 5 -62 5h-42h-12v-529zM544 1327h-194v-489h194v489zM663 838h48q40 3 82 24q45 26 75 76q33 51 33 157q0 69 -26 115q-26 41 -67 71q-43 25 -82 33q-50 11 -73 13v-489h10z" />
<glyph unicode="&#xe40;" horiz-adv-x="772" d="M223 1125h235v-695q6 2 17 2h17q46 0 87 -19q41 -16 73 -48q28 -28 48 -71q17 -43 17 -87q0 -45 -17 -88q-20 -43 -48 -71q-32 -32 -73 -48q-41 -19 -87 -19q-122 0 -196 66q-73 65 -73 171v907zM492 303q-42 0 -69 -27q-28 -28 -28 -69q0 -38 28 -66q28 -29 69 -29 q39 0 67 29q29 28 29 66q0 41 -29 69q-27 27 -67 27z" />
<glyph unicode="&#xe41;" horiz-adv-x="1275" d="M223 1125h235v-695q6 2 17 2h17q46 0 87 -19q41 -16 73 -48q28 -28 48 -71q17 -43 17 -87q0 -45 -17 -88q-20 -43 -48 -71q-32 -32 -73 -48q-41 -19 -87 -19q-122 0 -196 66q-73 65 -73 171v907zM492 303q-42 0 -69 -27q-28 -28 -28 -69q0 -38 28 -66q28 -29 69 -29 q39 0 67 29q29 28 29 66q0 41 -29 69q-27 27 -67 27zM763 1125h235v-695q6 2 17 2h16q47 0 88 -19q41 -16 73 -48q28 -28 48 -71q17 -43 17 -87q0 -45 -17 -88q-20 -43 -48 -71q-32 -32 -73 -48q-41 -19 -88 -19q-121 0 -195 66q-73 65 -73 171v907zM1031 303q-41 0 -68 -27 q-28 -28 -28 -69q0 -38 28 -66q28 -29 68 -29q39 0 67 29q30 29 30 66q0 40 -30 69q-27 27 -67 27z" />
<glyph unicode="&#xe42;" horiz-adv-x="970" d="M421 1147q0 48 -19 86q-25 37 -72 54t-144 27q-81 8 -234 8q0 79 26 151q26 65 74 124q57 57 116 82q65 32 149 32q67 0 130 -13q57 -18 100 -30q25 -9 45 -15q7 -3 45 -13q11 0 37 4q24 4 41 13q22 7 37 22q16 9 30 34l102 -125q-7 -24 -31 -39q-26 -23 -64 -33 q-22 -11 -78 -23q-45 -6 -87 0q-19 5 -45.5 13.5t-31.5 10.5q-25 8 -50 19q-46 19 -73 28q-33 10 -57 7q-83 0 -136 -42q-57 -43 -60 -103q101 -3 194 -20q88 -16 153 -51q67 -36 100 -91q37 -53 37 -136v-698q6 2 17 2h17q46 0 87 -19q41 -16 73 -48q28 -28 48 -71 q17 -43 17 -87q0 -45 -17 -88q-20 -43 -48 -71q-32 -32 -73 -48q-41 -19 -87 -19q-122 0 -196 66q-72 65 -72 171v929zM689 303q-42 0 -69 -27q-28 -28 -28 -69q0 -38 28 -66q28 -29 69 -29q39 0 67 29q30 29 30 66q0 40 -30 69q-27 27 -67 27z" />
<glyph unicode="&#xe43;" horiz-adv-x="1042" d="M760 303q-42 0 -69 -27q-28 -28 -28 -69q0 -38 28 -66q28 -29 69 -29q39 0 67 29q29 28 29 66q0 41 -29 69q-27 27 -67 27zM229 1080q-125 9 -177 89t-52 211q0 155 89 244q90 89 265 89q174 0 272 -71q101 -71 104 -210v-1002q6 2 17 2h16q47 0 88 -19q40 -16 72 -48 q30 -30 49 -71q17 -43 17 -87q0 -45 -17 -88q-19 -41 -49 -71q-32 -32 -72 -48q-41 -19 -88 -19q-121 0 -195 66q-73 65 -73 171v1214q0 77 -33 119q-31 43 -106 43q-51 0 -80 -34q-30 -27 -49 -69q44 0 82 -16q37 -17 65 -45q30 -30 43 -67q17 -37 17 -78q0 -43 -17 -80 q-14 -37 -43 -66q-26 -26 -65 -44q-40 -15 -80 -15zM229 1197q37 0 61 24q27 27 27 64q0 38 -27 59q-21 26 -61 26q-38 0 -61 -26q-27 -24 -27 -59q0 -34 27 -64q27 -24 61 -24z" />
<glyph unicode="&#xe44;" horiz-adv-x="966" d="M681 303q-41 0 -68 -27q-28 -28 -28 -69q0 -38 28 -66q28 -29 68 -29q39 0 67 29q30 29 30 66q0 40 -30 69q-27 27 -67 27zM417 1260q3 13 8.5 40.5t8.5 40.5q4 22 9 81q4 54 2 75q0 39 -7 56l-110 -250h-138l-190 350l136 84l138 -266q4 10 13.5 29t12.5 27q29 65 30 67 q22 55 27 65q4 9 13.5 28t13.5 28h74q30 -3 61 -13q31 -8 64 -34q33 -31 50 -71q20 -49 20 -119v-1048q6 2 15 2h17q47 0 88 -19q41 -16 70 -48q34 -32 49 -71q18 -39 18 -87q0 -49 -18 -88q-15 -39 -49 -71q-29 -32 -70 -48q-41 -19 -88 -19q-121 0 -195 66q-73 65 -73 171 v1042z" />
<glyph unicode="&#xe45;" horiz-adv-x="1089" d="M694 -441v1184q0 62 -9 113q-9 58 -33 94q-26 37 -64 59q-45 21 -104 21q-49 0 -104 -12q-49 -11 -88 -39q-40 -26 -69 -70q-27 -39 -44 -110l-142 85q21 51 49 99q32 51 80 88q46 35 128 65q80 24 190 24q80 0 164 -21q78 -18 145 -65q62 -46 101 -117q39 -72 39 -175 v-1223h-239z" />
<glyph unicode="&#xe46;" horiz-adv-x="1536" d="M637 467q-68 3 -125 36q-49 29 -82 78q-30 52 -46 104q-13 69 -13 110q0 70 24 125q23 60 65 108q42 51 102 85q54 34 134 56q0 -1 10.5 -13t15.5 -20q15 -25 34 -41q18 -24 35 -36q22 -15 36 -15q11 0 33 15q15 10 37 36q15 15 34 41q5 8 15.5 20t10.5 13 q78 -17 141 -48q50 -23 112 -67q48 -42 75 -84q25 -44 28 -91v-1320h-239v1312q0 44 -28 82q-32 40 -59 58q-27 -32 -71 -61q-43 -34 -89 -34q-43 0 -88 32q-40 28 -72 59q-25 -19 -47 -57q-24 -45 -32 -77q14 4 25 4h24q43 0 80 -17t65 -45t45 -65q15 -40 15 -78 q0 -40 -15 -80q-17 -37 -45 -65q-30 -30 -65 -43q-37 -17 -80 -17zM637 603q37 0 63 26q24 24 24 62q0 31 -24 61q-30 24 -63 24q-35 0 -62 -24q-26 -29 -26 -61q0 -39 26 -62q23 -26 62 -26z" />
<glyph unicode="&#xe47;" d="M-667 1506q33 -3 79 -24q34 -20 70 -43q8 42 47 91q38 41 99 41q71 0 115 -41q43 -40 43 -98q0 -27 -11 -54q-9 -24 -32 -51q-25 -25 -54 -35q-27 -15 -74 -15q-43 0 -84 19q-36 16 -78 41q-16 11 -67 41q-26 18 -53 18q-20 0 -29 -33q-11 -42 -13 -69h-147 q-29 11 -56 35q-23 17 -54 52q-27 35 -39 67q-15 37 -15 69q0 49 26 92q24 40 71 74q40 27 96 48q54 17 110 17q70 0 121 -5q64 -6 129 -6q25 0 54 6q21 2 52 15q24 11 37 33q17 20 17 54l139 -61q-14 -51 -41 -79q-28 -30 -67 -46q-38 -16 -89 -22t-106 -6q-35 0 -117 4 q-55 3 -129 3q-21 0 -43 -9q-19 -7 -44 -24q-26 -22 -34 -39q-15 -20 -15 -49q0 -23 21 -54q18 -28 33 -46q2 3 9.5 14t11.5 17q4 5 12.5 16t9.5 12q20 17 37 21q17 9 52 9zM-372 1361q32 0 46 20q15 25 15 49q0 30 -15 52q-13 22 -46 22q-32 0 -45 -22q-15 -22 -15 -52 q0 -24 15 -49q14 -20 45 -20z" />
<glyph unicode="&#xe48;" d="M-354 1819v315h186v-315h-186z" />
<glyph unicode="&#xe49;" d="M-605 2152q0 65 46 108q44 47 108 47q65 0 112 -47q45 -45 45 -108q0 -64 -26 -117q-18 -48 -62 -106q113 11 188 89q77 83 112 225l138 -83q-30 -91 -78 -155q-48 -68 -116 -106q-67 -43 -171 -63q-108 -21 -242 -21l-13 69q38 18 71 49q27 27 42 63q-63 0 -108 45 q-46 46 -46 111zM-521 2150q0 -32 20 -52t50 -20q33 0 53 20t20 52q0 31 -20 51t-53 20q-30 0 -50 -20t-20 -51z" />
<glyph unicode="&#xe4a;" d="M73 2214q-3 -101 -39 -173q-33 -74 -92 -123q-55 -45 -134 -75q-77 -23 -162 -26q26 85 32 114q11 50 11 85q0 50 -13 79t-26 35q-12 -22 -43 -47q-27 -21 -69 -18q-38 3 -67 20q-28 14 -50 43q-28 -9 -34 -58q55 -3 88 -39t33 -91q0 -58 -40 -89q-38 -38 -90 -38 q-62 0 -104 45q-45 42 -45 114q0 104 52 184q54 80 153 99q2 -7 15 -28q9 -7 28 -26q9 -9 31 -23q13 -5 32 -9q10 -3 28 9q6 3 18 11.5t16 11.5q4 5 13 14.5t13 14.5q10 10 15 25q45 -10 74 -32q32 -22 56 -54q22 -26 37 -73q11 -41 11 -80q0 -17 -3 -24q0 -3 -6 -30 q69 37 102 114q37 74 34 192l119 -47zM-622 1888q19 0 41 15q17 17 17 37q0 27 -17 41q-20 17 -41 17q-22 0 -39 -17q-17 -14 -17 -41q0 -20 17 -37q18 -15 39 -15z" />
<glyph unicode="&#xe4b;" d="M-177 1959v-142h-171v142h-140v141h140v134h171v-134h138v-141h-138z" />
<glyph unicode="&#xe4c;" d="M91 2175q8 -57 -69 -111t-240 -104q35 -35 45 -74q19 -66 -15 -132q-17 -31 -43 -54t-59 -32q-71 -20 -133 17q-68 35 -85 106q-4 10 -8 34q-2 13 -2 35q0 148 215 207q130 34 190 75t52 90l147 -50zM-318 1771q25 9 39 31q11 27 3 54q-11 31 -33 39q-24 17 -47 8 q-27 -8 -46 -34q-12 -34 -6 -52q9 -30 36 -43q22 -13 55 -3h-1z" />
<glyph unicode="&#xe4d;" d="M-341 1687q40 0 80 -17q39 -18 66 -45q28 -28 42 -65q17 -37 17 -78q0 -43 -17 -80q-14 -37 -42 -65q-27 -27 -66 -45q-43 -15 -80 -15q-40 0 -80 15q-35 15 -65 45q-28 28 -45 65q-15 40 -15 80q0 38 15 78q17 37 45 65q30 30 65 45q37 17 80 17zM-341 1395q35 0 62 24 q26 29 26 63q0 37 -26 60q-23 26 -62 26q-38 0 -61 -26q-26 -21 -26 -60q0 -37 26 -63q27 -24 61 -24z" />
<glyph unicode="&#xe4e;" d="M-354 1383q-94 -54 -214 -54q-129 0 -205 52q-76 56 -76 127q0 44 37 78t86 54q-35 19 -67 43q-28 28 -28 58q0 78 65 126q69 49 184 43h-1h20q7 -2 22 -2q23 0 28 -1h28q32 0 78 20q40 17 120 86l-4 -118q-12 -17 -37 -39q-24 -21 -56 -31q-30 -15 -80 -25 q-51 -9 -116 -9q-26 0 -54 -15q-24 -13 -24 -35t37 -36q41 -11 131 -11v-110q-89 0 -134 -20q-53 -17 -53 -56q0 -24 30 -41q27 -20 69 -20q27 0 65 16q39 12 90 51l74 -119z" />
<glyph unicode="&#xe4f;" horiz-adv-x="1221" d="M609 994q94 0 180 -37q87 -39 149 -104q65 -65 97 -149q37 -83 37 -179t-37 -182q-41 -90 -102 -149q-66 -69 -147 -101q-83 -37 -177 -37t-177 37q-75 32 -147 101q-70 73 -99 150q-37 83 -37 183q0 93 37 182q34 82 101 149q68 68 147 99q80 37 175 37zM609 223 q68 0 125 25q57 26 96 65t67 97q23 57 23 117q0 69 -26 117q-20 50 -67 97q-41 35 -101 63q-57 23 -117 23q-67 0 -121 -25q-59 -27 -97 -65q-40 -40 -63 -97q-25 -51 -25 -113q0 -67 25 -121q28 -60 67 -97q34 -34 97 -63q57 -23 117 -23zM609 721q38 0 72 -17 q34 -13 62 -41t41 -62q15 -40 15 -74q0 -36 -15 -76q-12 -31 -41 -64q-28 -28 -62 -41q-32 -16 -72 -16q-38 0 -73 16q-30 12 -59 41t-41 64q-15 37 -15 76q0 36 15 76q14 38 41 62q25 28 59 41q37 15 73 15z" />
<glyph unicode="&#xe50;" horiz-adv-x="1353" d="M676 888q112 0 207 -35q97 -36 167 -97q72 -62 114 -145q41 -79 41 -175q0 -97 -41 -179q-42 -82 -114 -143q-70 -61 -167 -97t-207 -36t-207 36q-97 37 -166 97q-65 57 -113 143q-41 88 -41 179q0 90 41 175q47 87 113 145q69 60 166 97q95 35 207 35zM676 134 q63 0 117 22q56 27 95 66q37 37 65 95q24 52 24 119q0 66 -24 115q-27 59 -65 97q-38 35 -95 63q-52 24 -117 24q-68 0 -117 -24q-58 -27 -97 -63q-42 -41 -64 -97q-24 -49 -24 -115q0 -67 24 -119q23 -54 64 -95q40 -40 97 -66q51 -22 117 -22z" />
<glyph unicode="&#xe51;" horiz-adv-x="1459" d="M713 564q115 0 181 -76q67 -71 67 -192q-6 -62 -36 -114q-33 -61 -76 -96q-44 -44 -104 -67q-53 -26 -127 -26q-98 0 -182 33q-90 34 -149 93q-67 55 -101 136q-37 74 -37 168q0 113 52 199q53 89 136 149q92 64 188 91q107 32 205 32q116 0 223 -36q105 -35 186 -100 q73 -61 127 -157q47 -96 47 -204q0 -44 -12 -107q-11 -56 -39 -117q-27 -58 -76 -130q-45 -66 -123 -144l-145 81q100 119 138 225q35 104 35 192q0 80 -32 149q-30 65 -83 107q-54 44 -116 66q-63 22 -132 22t-132 -22q-70 -28 -112 -67q-46 -35 -80 -101q-30 -59 -30 -132 q0 -62 17 -116q21 -56 52 -93q29 -37 76 -61q42 -24 99 -24q30 0 52 9q21 5 43 21q-45 0 -80 16q-35 13 -65 43t-43 65q-17 37 -17 80q0 42 17 79q13 35 43 65q26 26 65 44q37 17 80 17zM713 272q41 0 62 26q26 21 26 61q0 36 -26 62q-24 24 -62 24q-34 0 -61 -24 q-26 -29 -26 -62q0 -38 26 -61q23 -26 61 -26z" />
<glyph unicode="&#xe52;" horiz-adv-x="1547" d="M758 222q-130 0 -185 74t-55 214v88q0 135 70 214q67 80 187 80q56 0 96 -34q42 -31 75 -67q35 38 74 67q43 34 103 34q114 0 188 -77q69 -80 69 -217v-410q0 -37 -21 -65q-16 -32 -52 -60q-31 -27 -78 -44q-49 -17 -101 -17h-905v988q0 67 -26 101q-22 29 -48 60 l190 145q46 -67 78 -134q32 -72 32 -145v-876h653q20 0 36 28t16 60v369q0 79 -16 128q-16 50 -43 50q-30 0 -56 -31q-23 -29 -26 -93h-129q-3 47 -28 87q-29 37 -54 37q-33 0 -54 -35q-22 -38 -22 -112q6 2 15 2h17q43 0 80 -17q39 -18 65 -44q30 -30 43 -65q17 -37 17 -79 q0 -43 -17 -80q-13 -35 -43 -65t-65 -43q-35 -16 -80 -16zM758 339q40 0 61 26q26 21 26 61q0 36 -26 62q-24 24 -61 24q-35 0 -62 -24q-26 -29 -26 -62q0 -38 26 -61q23 -26 62 -26z" />
<glyph unicode="&#xe53;" horiz-adv-x="1521" d="M408 389q43 0 80 -17q39 -18 65 -44q30 -30 43 -65q17 -37 17 -79q0 -43 -17 -80q-13 -35 -43 -65t-65 -43q-35 -16 -80 -16q-130 0 -185 74t-55 214v237q0 196 85 292q90 95 274 95q73 0 132 -30q61 -30 106 -82q82 112 235 112q354 0 354 -387v-505h-220v505 q0 271 -134 271q-58 0 -88 -61q-33 -61 -33 -171v-544h-222v544q0 111 -35 171q-36 61 -95 61q-134 0 -134 -271v-116h15zM408 97q40 0 61 26q26 21 26 61q0 36 -26 62q-24 24 -61 24q-35 0 -62 -24q-26 -29 -26 -62q0 -38 26 -61q23 -26 62 -26z" />
<glyph unicode="&#xe54;" horiz-adv-x="1549" d="M916 635q43 0 80 -17t65 -45t45 -65q15 -40 15 -78q0 -76 -49 -136q-49 -56 -124 -67q43 -33 87 -48q48 -21 103 -21q68 0 126 -9q57 -9 117 -35l-91 -142q-119 52 -216 52q-39 0 -85 -5q-63 -7 -134 -15h-12q-4 -2 -11 -2q-60 -6 -97 -9q-39 -6 -70 -6q-120 0 -209 32 q-88 27 -162 89q-145 132 -145 315q0 74 30 149q29 72 89 135q63 63 153 105q97 46 218 59h230q106 -3 172 28q59 28 98 84q37 55 51 130q19 107 26 172l216 -58q-11 -101 -39 -184q-24 -86 -88 -153q-63 -69 -166 -108q-96 -41 -275 -50h-212q-67 -10 -125 -43 q-49 -28 -86 -75q-34 -47 -50 -95q-17 -53 -17 -96q0 -59 21 -114q18 -52 59 -93q36 -39 92 -60q51 -22 119 -22q43 0 76 7q14 3 47.5 9t51.5 10q-44 34 -62 52q-22 22 -52 60q-18 26 -37 61q-13 36 -15 56q-9 112 58 179t184 67zM916 343q37 0 63 26q25 25 25 61 q0 30 -25 62q-30 24 -63 24q-34 0 -61 -24q-26 -29 -26 -62q0 -38 26 -61q23 -26 61 -26z" />
<glyph unicode="&#xe55;" horiz-adv-x="1549" d="M681 871q-16 38 -16 82q0 43 16 78q14 37 43 66q26 26 65 44q37 17 80 17q44 0 81 -17q39 -18 65 -44q29 -29 43 -66q16 -35 16 -78q0 -29 -5 -48q43 16 70 54q29 41 41 87q15 57 23 114q6 65 15 127l214 -68q-10 -95 -39 -180q-28 -85 -90 -153q-61 -64 -167 -106 q-95 -39 -272 -48h-212q-67 -10 -125 -43q-52 -33 -86 -76t-50 -95q-17 -53 -17 -97q0 -56 21 -116q20 -52 59 -91q33 -36 92 -61q57 -21 119 -21q34 0 69 8q15 4 47.5 9.5t39.5 6.5l17 2q-40 31 -62 54q-16 16 -50 60q-18 26 -37 61q-13 36 -15 56q-9 112 58 179t184 67 q43 0 80 -17t65 -45t45 -65q15 -40 15 -78q0 -76 -49 -136q-49 -56 -124 -67q37 -31 87 -50q52 -21 103 -21q59 0 124 -7q64 -11 119 -35l-91 -142q-44 19 -113 37q-51 13 -103 13q-28 0 -87 -3q-71 -8 -132 -15q-73 -11 -114 -13q-68 -4 -76 -4q-233 0 -371 121 q-145 129 -145 313q0 74 30 149q29 73 89 136q59 59 153 106q100 44 218 57zM916 343q37 0 63 26q25 25 25 61q0 30 -25 62q-30 24 -63 24q-34 0 -61 -24q-26 -29 -26 -62q0 -38 26 -61q23 -26 61 -26zM869 866q38 0 62 24q26 26 26 63q0 39 -26 60q-21 26 -62 26 q-38 0 -61 -26q-26 -23 -26 -60q0 -34 26 -63q27 -24 61 -24z" />
<glyph unicode="&#xe56;" horiz-adv-x="1360" d="M361 255q0 38 15 78q17 37 45 65t65 45t80 17t80 -17t65 -45t45 -65q15 -40 15 -78q0 -78 -47 -132q-3 -8 10 -15q57 0 102 24q50 26 80 65q33 39 52 93q19 50 19 108q0 51 -21 108q-19 51 -57 92q-34 37 -90 61q-49 24 -115 24q-98 0 -209 -48q-106 -46 -208 -114 l-62 95q-37 175 -87 319q-60 155 -119 264l191 88q49 -106 77 -248q31 -152 50 -320q43 27 84 41q50 23 97 33q46 16 96 22q46 10 88 10q104 0 195 -30q89 -29 164 -84q68 -56 110 -134q41 -79 41 -179q0 -96 -39 -171q-44 -83 -108 -132q-69 -56 -153 -84q-84 -30 -178 -30 q-68 0 -134 19q-71 17 -120 52q-54 32 -85 86q-34 53 -34 117zM566 168q37 0 63 26q24 24 24 61q0 32 -24 62q-30 24 -63 24q-34 0 -61 -24q-27 -30 -27 -62q0 -37 27 -61q23 -26 61 -26z" />
<glyph unicode="&#xe57;" horiz-adv-x="1766" d="M168 495q0 199 87 293q87 95 261 95q34 0 65 -14q34 -15 59 -35q17 -11 56 -46q36 -41 45 -54q32 42 101 102q60 47 137 47q336 0 326 -388v-363q35 23 50 63q17 35 28 95v660q0 70 30 126q34 63 69 110l195 -73q-66 -82 -76 -190v-677q-11 -66 -63 -114 q-55 -52 -123 -80q-81 -36 -160 -48q-90 -14 -168 -11v502q9 132 -20 203q-28 69 -88 69q-59 0 -95 -61q-37 -63 -37 -172v-132h-201v132q0 112 -41 172q-42 61 -100 61q-112 0 -112 -272v-106h15q43 0 80 -17q39 -18 65 -44q30 -30 43 -65q17 -37 17 -79q0 -43 -17 -80 q-13 -35 -43 -65t-65 -43q-35 -16 -80 -16q-130 0 -185 74t-55 214v227zM408 97q40 0 61 26q26 21 26 61q0 36 -26 62q-24 24 -61 24q-35 0 -62 -24q-26 -29 -26 -62q0 -38 26 -61q23 -26 62 -26z" />
<glyph unicode="&#xe58;" horiz-adv-x="1660" d="M1270 166q-26 -4 -30 -4q-43 0 -80 17q-35 13 -65 43q-28 28 -45 65q-15 40 -15 80q0 38 15 78q17 37 45 65t65 45t80 17q52 0 104 -21q50 -25 75 -59q31 -31 46 -84q16 -56 13 -105q-3 -70 -18 -122q-20 -59 -52 -103q-39 -46 -90 -69q-50 -25 -125 -28q-54 0 -95 15 q-26 6 -81 34q-38 21 -71 46q-20 15 -63 52h1q-66 54 -87 69q-38 32 -65 32q-8 0 -17 -13q-6 -10 -9 -32q-4 -24 -6 -46v-50v-43q1 -6 2 -19t2 -19v-24q-142 0 -239 32q-97 27 -171 89q-76 71 -108 144q-37 71 -37 171q0 74 30 149q29 73 89 136q61 61 153 104q99 47 218 60 h255q107 -3 173 28q60 28 98 83q39 56 49 131q14 66 26 171l208 -58q-10 -93 -37 -188q-24 -83 -85 -156q-57 -69 -164 -112q-98 -43 -274 -52h-236q-71 -10 -125 -41q-55 -31 -86 -71q-35 -44 -50 -89q-17 -49 -17 -95q0 -87 45 -155q44 -70 108 -106q9 109 58 166 q50 60 147 60q90 0 151 -45q57 -37 117 -97q57 -54 98 -87q49 -40 95 -40q51 0 77 51zM1240 279q37 0 63 26q24 24 24 62q0 31 -24 61q-30 24 -63 24q-34 0 -61 -24q-27 -30 -27 -61q0 -38 27 -62q23 -26 61 -26z" />
<glyph unicode="&#xe59;" horiz-adv-x="1662" d="M168 495q3 389 364 389q78 0 138 -31q62 -35 108 -84q36 51 75 84q43 31 111 31q62 0 108 -31q44 -32 79 -78q40 -54 63 -97q38 -58 67 -90q15 7 28 52q10 35 20 127q8 72 8 190q3 98 -4 244l222 -43q0 -138 -12 -289q-10 -125 -42 -229q-32 -91 -92 -148 q-61 -53 -150 -53q-60 0 -97 49q-36 36 -78 104q-32 56 -62 104q-27 49 -54 49q-22 0 -41 -52q-17 -54 -30 -114q63 -121 120 -285q40 -114 111 -301h-227q-13 37 -41 134q-28 98 -48 163q-31 99 -60 172q-23 70 -63 152q-38 71 -75 108q-37 43 -82 43q-68 0 -100 -69 q-35 -69 -35 -201q1 -10 1.5 -28.5t1.5 -27.5l6 -50h17q43 0 80 -17q39 -18 65 -44q30 -30 43 -65q16 -35 16 -79q0 -45 -16 -80q-13 -35 -43 -65t-65 -43q-35 -16 -80 -16q-130 0 -185 74q-56 76 -56 214zM423 97q40 0 61 26q26 21 26 61q0 36 -26 62q-24 24 -61 24 q-35 0 -62 -24q-26 -29 -26 -62q0 -38 26 -61q23 -26 62 -26z" />
<glyph unicode="&#xe5a;" horiz-adv-x="1599" d="M1208 0v1123h224v-1123h-224zM815 793q-54 -69 -141 -102q-90 -34 -169 -34q-81 0 -144 19q-68 20 -112 50q-47 30 -74 78q-26 43 -26 93q0 35 15 75q14 35 41 59q25 28 59 41q37 15 73 15t73 -15q34 -13 59 -41q27 -24 41 -59q15 -37 15 -73q0 -39 -15 -69 q-10 -26 -35 -55q64 -9 121 16q58 25 104 71t76 108q28 58 38 127v24h240v-1121h-239v793zM255 899q0 -35 24 -59q25 -25 60 -25q34 0 59 25t25 59q0 35 -25 60q-24 24 -59 24q-36 0 -60 -24t-24 -60z" />
<glyph unicode="&#xe5b;" horiz-adv-x="1973" d="M1285 451l-75 126l-100 -216l-75 194l-78 -218l-101 190q-42 -171 -141 -264q-95 -95 -222 -95q-68 0 -132 31q-60 29 -108 91q-42 49 -74 142q-27 76 -30 182q0 98 20 181t60 140q38 59 93 91q56 32 121 32q54 0 103 -23q50 -26 80 -65q33 -46 48 -97q19 -54 19 -123 q0 -131 -62 -204q-25 -30 -58 -51q-30 -18 -70 -18q-70 0 -112 52q-43 52 -43 128q0 77 43 127q40 54 112 54q18 0 24 -2q-9 36 -32 56q-21 18 -52 18q-36 0 -56 -20q-26 -15 -44 -54q-20 -33 -30 -84q-11 -50 -11 -106q0 -80 15 -136q9 -51 39 -104q25 -42 61 -67 q32 -22 76 -22q50 0 95 33t79 93q31 60 50 143q18 78 18 185v31l-3 58l85 104l119 -275q5 14 22.5 64t28.5 79q4 14 41 121l97 -236l74 151l99 -166l44 63h190q84 -3 136 6q62 6 99 20l32 -54q-41 -41 -112 -74q-85 -34 -144 -45h-139zM452 657q0 -31 15 -59q14 -26 32 -26 q20 0 37 26t17 59q0 42 -17 65t-37 23q-18 0 -32 -23q-15 -25 -15 -65z" />
<glyph unicode="&#x2000;" horiz-adv-x="1153" />
<glyph unicode="&#x2001;" horiz-adv-x="2307" />
<glyph unicode="&#x2002;" horiz-adv-x="1153" />
<glyph unicode="&#x2003;" horiz-adv-x="2307" />
<glyph unicode="&#x2004;" horiz-adv-x="769" />
<glyph unicode="&#x2005;" horiz-adv-x="576" />
<glyph unicode="&#x2006;" horiz-adv-x="384" />
<glyph unicode="&#x2007;" horiz-adv-x="384" />
<glyph unicode="&#x2008;" horiz-adv-x="288" />
<glyph unicode="&#x2009;" horiz-adv-x="461" />
<glyph unicode="&#x200a;" horiz-adv-x="128" />
<glyph unicode="&#x2010;" horiz-adv-x="1029" d="M843 486h-657v221h657v-221z" />
<glyph unicode="&#x2011;" horiz-adv-x="1029" d="M843 486h-657v221h657v-221z" />
<glyph unicode="&#x2012;" horiz-adv-x="1029" d="M843 486h-657v221h657v-221z" />
<glyph unicode="&#x2013;" horiz-adv-x="1079" d="M931 486h-745v221h745v-221z" />
<glyph unicode="&#x2014;" horiz-adv-x="1405" d="M1242 486h-1056v221h1056v-221z" />
<glyph unicode="&#x2018;" horiz-adv-x="547" d="M186 1313q0 71 13 122q15 58 37 92q28 40 58 63q32 27 73 48l31 -63q-42 -26 -59 -48q-22 -26 -32 -56q-13 -35 -13 -67q-4 -24 -4 -82h101v-218h-205v209z" />
<glyph unicode="&#x2019;" horiz-adv-x="547" d="M361 1426q0 -72 -13 -123q-14 -54 -37 -89q-28 -40 -58 -63q-36 -31 -72 -49l-32 62q37 23 56 48q21 27 31 56q13 37 13 67q4 24 4 82h-98v220h206v-211z" />
<glyph unicode="&#x201c;" horiz-adv-x="865" d="M503 1314q0 70 13 121q15 58 37 92q28 40 58 63q33 28 72 48l34 -63q-44 -27 -58 -48q-22 -26 -32 -56q-13 -35 -13 -67q-3 -17 -3 -80h98v-218h-206v208zM186 1314q0 70 13 121q15 58 37 92q28 40 58 63q28 26 71 48l33 -63q-42 -26 -57 -48q-22 -26 -32 -56 q-8 -22 -15 -67q0 -10 -1 -37t-1 -43h99v-218h-205v208z" />
<glyph unicode="&#x201d;" horiz-adv-x="863" d="M359 1426q0 -72 -13 -123q-14 -54 -37 -89q-27 -39 -56 -63q-37 -32 -74 -49l-30 62q37 23 56 48q21 27 31 56q13 37 13 67q4 24 4 82h-98v220h204v-211zM678 1426q0 -72 -13 -123q-14 -52 -38 -89q-30 -42 -57 -63q-34 -30 -73 -49l-32 62q37 23 56 48q24 27 34 56 q7 21 15 67q0 11 1 38.5t1 43.5h-101v220h207v-211z" />
<glyph unicode="&#x2022;" horiz-adv-x="988" d="M497 145q-65 0 -117 24q-56 25 -101 66q-48 52 -67 98q-26 51 -26 119q0 67 26 118q23 56 67 97q41 44 101 67q51 26 117 26t117 -26q53 -22 97 -67q35 -35 67 -97q24 -59 24 -118q0 -58 -24 -117q-32 -62 -67 -97q-44 -45 -97 -67q-51 -26 -117 -26z" />
<glyph unicode="&#x2026;" horiz-adv-x="1372" d="M272 192q42 0 74 -32q30 -30 30 -71q0 -39 -30 -74q-35 -30 -74 -30q-40 0 -75 30q-29 34 -29 74q0 42 29 71q32 32 75 32zM687 192q45 0 73 -32q31 -27 31 -71q0 -43 -31 -74q-30 -30 -73 -30q-38 0 -73 30q-29 34 -29 74q0 42 29 71q32 32 73 32zM1102 192q44 0 73 -32 q30 -28 30 -71q0 -41 -30 -74q-32 -30 -73 -30q-40 0 -72 30q-30 33 -30 74q0 43 30 71q29 32 72 32z" />
<glyph unicode="&#x202f;" horiz-adv-x="461" />
<glyph unicode="&#x205f;" horiz-adv-x="576" />
<glyph unicode="&#x20ac;" horiz-adv-x="1310" d="M933 1173q0 36 -17 67q-14 32 -39 48q-23 20 -54 30q-35 11 -62 11q-56 0 -98 -24q-44 -27 -78 -69q-27 -35 -60 -102q-27 -70 -41 -130h369v-181h-395q-2 -13 -2 -37v-36v-24v-19v-18q0 -17 2 -26h395v-179h-367q30 -142 99 -231q71 -87 176 -87q70 0 127 41 q56 40 65 117q53 0 123 -4q24 -2 86 -11q39 -11 39 -26q-8 -67 -47 -130q-38 -54 -96 -95q-65 -41 -135 -60q-80 -20 -162 -20q-106 0 -188 41q-90 40 -149 108q-58 61 -111 160q-42 89 -69 197h-170v179h142q-2 13 -2 41v39v41q0 30 2 39h-142v181h166q26 112 69 202 q42 95 108 164q62 69 151 112q85 41 193 41q80 0 153 -26q76 -27 129 -73q54 -47 91 -110q34 -63 43 -141h-244z" />
<glyph unicode="&#x25fc;" horiz-adv-x="1135" d="M0 1136h1136v-1136h-1136v1136z" />
<glyph unicode="&#xee0d;" horiz-adv-x="1845" d="M201 480q0 44 17 84q18 42 46 73q25 29 64 59q47 31 76 43q-12 12 -43 22q-34 9 -71 15q-14 2 -41 5t-40 5q-15 0 -41 1t-38 1v41q21 76 71 143q46 55 119 104q79 43 157 63q90 21 176 21q107 0 192 -24q96 -23 164 -71q65 -43 112 -119q41 -74 41 -168v-637h229 q18 0 35 27q15 32 15 59v894h238v-933q0 -31 -18 -67q-24 -35 -54 -61q-36 -28 -80 -43q-46 -17 -99 -17h-505v769q0 121 -78 192q-77 67 -195 67q-104 0 -177 -41q-75 -39 -108 -104q77 -18 127 -53q40 -25 91 -91q-74 -19 -110 -95q-34 -77 -34 -167v-47q6 2 15 2h15 q47 0 88 -19q40 -16 72 -48q30 -30 49 -71q16 -41 16 -87q0 -47 -16 -88q-19 -41 -49 -71q-32 -32 -72 -48q-41 -19 -88 -19q-121 0 -195 66q-73 65 -73 171v262zM469 303q-42 0 -69 -27q-28 -28 -28 -69q0 -38 28 -66q28 -29 69 -29q39 0 67 29q30 29 30 66q0 40 -30 69 q-27 27 -67 27z" />
<glyph unicode="&#xee10;" horiz-adv-x="1199" d="M469 337q-29 -13 -72 -13q-40 0 -80 15q-39 18 -66 45q-28 28 -42 65q-17 37 -17 80q0 41 17 78q14 37 42 65q27 27 66 45q37 17 80 17q108 0 171 -38q65 -33 95 -137l35 -375q8 -26 21 -39q9 -20 29 -20q17 0 30 13q17 11 17 54l11 378q-3 77 -39 121q-29 43 -93 72 q-68 28 -134 36q-72 9 -149 9q-53 0 -149 -4q-75 -3 -130 -3q3 87 26 145q29 72 71 112q42 48 111 74t155 26q71 0 132 -7q74 -15 106 -23q10 -3 32 -7.5t33 -7.5q8 -1 34.5 -5.5t43.5 -7.5h19q19 0 32 2q23 4 35 11q11 3 35 23q17 18 28 43l108 -131q-7 -21 -28 -37 q-13 -9 -54 -32q-32 -11 -70 -20q-32 -8 -75 -8t-108 13q-19 5 -56 15.5t-55 16.5l-36 9t-41 10q-26 7 -58 7h-18q-71 0 -117 -26t-49 -89q82 0 130 -2q73 0 148 -9q52 -6 145 -28q70 -22 128 -58q56 -34 95 -95q38 -60 47 -143l-15 -373q0 -34 -13 -69q-10 -34 -41 -70 q-36 -32 -86 -54q-57 -23 -139 -23q-71 0 -120 17q-47 16 -76 41q-32 29 -43 52q-11 24 -22 52zM397 441q37 0 61 24q26 26 26 64t-26 59q-21 26 -61 26q-39 0 -62 -26q-26 -23 -26 -59q0 -35 26 -64q27 -24 62 -24z" />
<glyph unicode="&#xee31;" d="M-1031 1540q0 38 14 72q14 38 41 62q24 28 60 41q37 15 73 15q35 0 72 -15q36 -13 60 -41q26 -23 41 -60t15 -72q0 -41 -15 -67q-9 -27 -36 -58q130 -14 207 63q80 80 93 211h205q-14 -82 -56 -153q-46 -77 -104 -123q-57 -51 -142 -86q-82 -29 -173 -29q-83 0 -143 18 q-70 21 -112 52q-44 26 -74 75q-26 46 -26 95zM-925 1542q0 -36 24 -60t59 -24q36 0 60 24t24 60q0 35 -24 59t-60 24q-35 0 -59 -24t-24 -59z" />
<glyph unicode="&#xee33;" horiz-adv-x="1035" d="M696 0v743q0 58 -11 113q-8 50 -33 92q-30 41 -67 61q-45 21 -105 21q-110 0 -182 -51q-76 -49 -106 -180l-142 85q22 55 47 99q28 53 74 88q38 33 119 65q80 24 190 24q80 0 164 -21q82 -19 145 -65q65 -43 105 -117q41 -70 41 -175v-782h-239zM-642 1728q43 0 80 -17 t65 -45q30 -30 43 -65q16 -35 16 -78q0 -45 -16 -80q-13 -35 -43 -65q-28 -28 -65 -45q-40 -15 -80 -15t-80 15q-39 18 -66 45q-28 28 -42 65q-17 37 -17 80q0 41 17 78q14 37 42 65q27 27 66 45q37 17 80 17zM-642 1435q36 0 61 25q26 26 26 63q0 39 -26 60q-21 26 -61 26 q-39 0 -62 -26q-26 -23 -26 -60q0 -34 26 -63q28 -25 62 -25z" />
<glyph unicode="&#xee34;" d="M-475 1335q-140 30 -259 43q-140 15 -249 15q-78 0 -196 -12q-102 -13 -229 -39q10 90 51 164q39 71 98 114q57 43 131 63q69 22 149 22q92 0 171 -24q87 -25 164 -69q82 -55 130 -113q59 -68 84 -153zM-640 1443q-46 67 -127 108q-77 40 -160 43q-82 3 -157 -30 q-73 -29 -119 -106q132 17 283 17q148 -7 280 -32z" />
<glyph unicode="&#xee35;" d="M-514 1730v-380l15 -39l-39 -10q-151 32 -270 47q-137 15 -236 15q-96 0 -203 -13q-110 -14 -228 -39q9 94 49 158q40 69 100 110q61 44 136 67q77 20 153 20q50 0 87 -7q13 -3 28 -6.5t33.5 -8t28.5 -6.5q66 -24 85 -33q44 -18 71 -39v164h190zM-706 1408 q-46 67 -124 108q-78 39 -160 42t-159 -28q-74 -32 -119 -108q160 21 283 15q128 0 279 -29z" />
<glyph unicode="&#xee36;" d="M-570 1452q25 -32 49 -63q30 -45 46 -78l-33 -10q-293 62 -522 62q-91 0 -199 -11q-114 -15 -223 -38q13 91 54 161q38 66 95 109q66 48 128 62q63 20 149 20q36 0 73 -5q46 -3 89 -26q11 42 28 69q22 34 50 52q32 21 67 29q36 10 75 4q78 -13 123 -78q42 -65 29 -140 q-11 -44 -29 -67q-21 -30 -49 -52zM-702 1411q-45 67 -125 108q-80 40 -160 43q-81 3 -158 -28q-74 -32 -119 -108q160 21 283 15q123 0 279 -30zM-758 1618q-8 -32 13 -63q19 -28 54 -34q33 -8 64 13q26 18 33 54q8 32 -13 63q-19 28 -54 34q-35 9 -63 -13q-28 -16 -34 -54 z" />
<glyph unicode="&#xee37;" d="M-793 1633q3 -1 9 -3.5t15.5 -7t18.5 -8.5q21 -10 50 -30v175h190v-398l13 -32l-37 -11q-300 60 -512 60q-85 0 -200 -11q-92 -11 -227 -40q14 95 52 161q37 65 99 109q56 43 136 67q81 21 162 21q17 0 30 -2q22 0 28 -2v78h173v-126zM-700 1426q-45 67 -125 108 q-80 40 -160 43q-81 3 -158 -28q-74 -32 -119 -108q160 21 283 15q123 0 279 -30z" />
<glyph unicode="&#xee38;" d="M-352 -382q33 0 63 -9q40 -11 60 -26q30 -20 45 -48q16 -29 16 -71v-291h-184v116q-77 0 -123 46t-46 118q0 36 13 65q14 31 35 52q25 22 54 35t67 13zM-352 -629q35 0 56 24q24 24 24 58q0 36 -24 57q-22 25 -56 25q-33 0 -58 -25q-24 -21 -24 -57q0 -34 24 -58t58 -24z " />
<glyph unicode="&#xee39;" d="M-168 -421v-411h-491v115q-77 -3 -123 43q-45 48 -45 112q0 34 13 63q13 27 36 50q20 23 48 36q31 11 63 11q60 0 114 -34q51 -35 60 -113v-183h154v311h171zM-667 -646q34 0 58 24t24 60q0 35 -24 56q-24 24 -58 24q-36 0 -57 -24q-23 -23 -23 -56q0 -34 23 -60 q21 -24 57 -24z" />
<glyph unicode="&#xee3a;" d="M-289 -406q39 0 72 -32.5t33 -71.5q0 -40 -32 -72t-73 -32q-42 0 -74 31t-32 73q0 40 32.5 72t73.5 32z" />
<glyph unicode="&#xee47;" d="M-929 1525q34 -3 76 -24q39 -21 73 -43q8 44 46 91q38 41 99 41q73 0 114 -41q44 -38 44 -99q0 -27 -11 -54q-10 -27 -33 -50q-21 -24 -52 -35q-27 -15 -75 -15q-45 0 -84 18q-50 23 -76 41q-45 26 -67 41q-32 19 -54 19q-21 0 -30 -34q-11 -43 -13 -68h-147 q-30 11 -58 35q-19 15 -52 52q-27 35 -39 67q-15 37 -15 69q0 48 26 91q24 40 69 75q43 27 99 48q54 17 110 17q59 0 123 -6q51 -5 126 -5q30 0 54 5q23 2 50 15q23 9 41 34q15 22 15 54l140 -62q-14 -49 -41 -78q-30 -31 -67 -47q-38 -16 -89 -22q-42 -5 -107 -5 q-60 0 -115 3q-82 4 -130 4q-19 0 -45 -9q-20 -8 -43 -24q-15 -13 -35 -40q-13 -28 -13 -48q0 -25 20 -54q17 -26 34 -47q3 4 18 32q14 19 26 28q11 14 34 21q19 9 54 9zM-635 1380q33 0 47 20q15 25 15 48q0 31 -15 53q-13 22 -47 22q-32 0 -45 -22q-14 -20 -14 -53 q0 -25 14 -48q14 -20 45 -20z" />
<glyph unicode="&#xee48;" d="M-398 1354v374h230v-374h-230z" />
<glyph unicode="&#xee49;" d="M-707 1726q0 42 14 67q10 30 38 54q23 26 54 37q27 15 67 15t67 -15q31 -11 54 -37q26 -23 37 -54q15 -27 15 -67q0 -66 -26 -129q-27 -64 -71 -119q121 13 209 101q84 87 124 249l153 -93q-36 -102 -88 -171q-54 -76 -128 -119q-72 -47 -190 -71q-109 -22 -268 -22 l-15 78q40 17 78 52q36 36 49 71q-40 0 -67 15q-31 11 -54 37q-28 24 -38 54q-14 25 -14 67zM-614 1724q0 -34 22 -56q24 -24 58 -24q33 0 57 24q23 23 23 56t-23 56q-24 24 -57 24q-34 0 -58 -24q-22 -22 -22 -56z" />
<glyph unicode="&#xee4a;" d="M-7 1713q-9 -202 -114 -298q-108 -96 -292 -99q41 117 41 200q0 38 -13 70q-4 9 -8 19.5t-6.5 17t-4.5 10.5q-23 -23 -54 -45q-34 -24 -61 -24q-11 0 -28 6q-19 6 -38 16q-7 3 -35 21q-16 10 -26 22q-6 -9 -9 -28q-6 -15 -2 -31q53 -9 87 -43q36 -39 36 -88 q0 -53 -47 -91q-48 -35 -102 -35q-70 0 -118 42q-50 44 -50 116q0 105 50 184q52 80 170 103q8 -18 20 -30q3 -4 8 -9t11.5 -11t10.5 -10q2 -1 15 -9.5t19 -12.5q14 -9 28 -13q7 0 24 11q14 9 33 28q5 4 30 29q10 12 15 27q48 -9 84 -36q33 -26 54 -61q23 -45 30 -80 q9 -42 9 -84q0 -11 -2 -22l-6 -27q38 24 54 56q20 32 30 79q10 39 13 91q3 48 0 100zM-683 1380q14 0 39 16q22 19 22 43q0 28 -22 47q-24 18 -39 18q-21 0 -39 -18q-23 -20 -23 -47q0 -23 23 -43q19 -16 39 -16z" />
<glyph unicode="&#xee4b;" d="M-203 1495v-141h-171v141h-140v142h140v134h171v-134h138v-142h-138z" />
<glyph unicode="&#xee4c;" d="M76 1808q8 -57 -69 -110.5t-240 -103.5q35 -35 45 -75q19 -66 -15 -132q-17 -31 -43 -54t-59 -32q-71 -20 -133 17q-68 35 -85 106q-4 12 -8 36q-1 5 -1 33q0 149 214 207q129 34 189.5 75.5t52.5 90.5l147 -51zM-333 1404q25 9 39 31q12 28 4 54q-9 27 -34 41 q-29 13 -47 6q-31 -9 -46 -35q-14 -29 -6 -51q9 -29 36 -42q23 -14 56 -4h-2z" />
<glyph unicode="&#xee4d;" d="M-261 2024q43 0 80 -17q39 -18 66 -45q26 -26 44 -65q15 -40 15 -78q0 -40 -15 -80q-18 -39 -44 -65q-29 -29 -66 -43q-37 -17 -80 -17t-80 17q-35 13 -65 43q-28 28 -45 65q-14 37 -14 80q0 41 14 78q17 37 45 65t65 45t80 17zM-261 1731q37 0 64 27q24 24 24 61 q0 31 -24 61q-32 25 -64 25q-33 0 -61 -25q-26 -29 -26 -61q0 -38 26 -61q24 -27 61 -27z" />
<glyph unicode="&#xf0e48;" d="M-758 1354v374h231v-374h-231z" />
<glyph unicode="&#xf0e49;" d="M-1026 1780q0 30 13 67q21 37 37 56q19 16 56 37q37 13 67 13t67 -13q37 -21 56 -37q16 -19 37 -56q13 -37 13 -67t-5 -49q-9 -49 -34 -104q-26 -59 -57 -95q121 13 208 103q85 85 125 247l153 -93q-37 -104 -86 -173q-49 -66 -130 -119q-81 -47 -190 -69t-268 -22 l-15 78q42 18 78 54q34 31 48 69q-30 0 -67 13q-37 21 -56 37q-16 19 -37 56q-13 37 -13 67zM-933 1778q0 -34 24 -58q22 -22 56 -22t56 22q24 24 24 58t-24 58q-22 22 -56 22t-56 -22q-24 -24 -24 -58z" />
<glyph unicode="&#xf0e4a;" d="M-261 1884q-3 -100 -39 -175q-38 -77 -95 -121q-58 -50 -137 -72q-70 -25 -172 -28q41 117 41 199q0 39 -13 71q-5 11 -10.5 26.5t-7.5 19.5q-23 -23 -54 -45q-34 -24 -62 -24q-12 0 -28 6q-13 4 -37 17q-13 6 -35 20q-16 10 -26 22q-7 -11 -10 -28q-6 -15 -2 -31 q54 -9 88 -43q35 -38 35 -88q0 -54 -46 -91q-48 -35 -103 -35q-68 0 -117 43q-50 44 -50 115q0 105 50 184q52 81 169 103q7 -16 21 -30q3 -4 8 -9t11.5 -11t10.5 -10q4 -2 15.5 -10.5t17.5 -11.5q14 -9 28 -13q7 0 24 11q16 11 34 28l30 30q11 13 15 26q47 -8 83 -36 q33 -26 54 -61q23 -45 30 -80q9 -42 9 -84q0 -16 -1 -22q-1 -4 -6 -26q72 49 104 134q33 87 30 192zM-974 1551q13 0 39 17q23 20 23 42q0 27 -23 47q-25 19 -39 19q-20 0 -39 -19q-22 -19 -22 -47q0 -23 22 -42q20 -17 39 -17z" />
<glyph unicode="&#xf0e4b;" d="M-609 1577v-142h-171v142h-140v141h140v135h171v-135h138v-141h-138z" />
<glyph unicode="&#xf0e4c;" d="M-210 1914q8 -57 -69 -110.5t-240 -103.5q34 -34 44 -75q19 -66 -15 -132q-18 -33 -42 -54t-60 -31q-71 -20 -132 16q-69 35 -86 106q-2 4 -7 34q-2 13 -2 35q0 149 214 207q129 34 189.5 75.5t52.5 90.5l147 -51zM-620 1510q24 8 39 32q12 28 4 54q-11 30 -34 39 q-22 16 -46 7q-29 -9 -47 -33q-12 -33 -5 -53q9 -30 35 -42q23 -14 56 -4h-2z" />
<glyph unicode="&#xf0e4d;" d="M-726 1825q43 0 80 -17t65 -45t45 -65q15 -40 15 -78q0 -40 -15 -80q-17 -37 -45 -65t-65 -45q-40 -15 -80 -15t-80 15q-37 17 -65 45t-45 65q-15 40 -15 80q0 38 15 78q17 37 45 65t65 45t80 17zM-726 1532q33 0 63 24q24 30 24 64q0 35 -24 59q-26 26 -63 26 q-39 0 -62 -26q-26 -23 -26 -59q0 -35 26 -64q27 -24 62 -24z" />
<glyph unicode="&#xfee48;" d="M-698 1819v315h186v-315h-186z" />
<glyph unicode="&#xfee49;" d="M-771 2149q0 63 45 108q46 46 110 46q67 0 110 -46q46 -43 46 -108q0 -56 -24 -118q-31 -63 -63 -106q113 11 188 89q75 81 111 226l138 -84q-29 -88 -76 -155q-52 -70 -117 -106q-67 -43 -172 -63q-103 -20 -242 -20l-13 68q38 18 71 49q29 29 43 63q-62 0 -110 45 q-45 48 -45 112zM-687 2147q0 -32 20 -52q21 -21 51 -21q31 0 52 21q20 20 20 52q0 30 -20 50t-52 20q-31 0 -51 -20t-20 -50z" />
<glyph unicode="&#xfee4a;" d="M-65 2182q-3 -100 -39 -175q-34 -74 -91 -121q-62 -51 -135 -73q-65 -25 -162 -28q26 85 32 114q11 50 11 86q0 49 -13 78t-26 35q-11 -21 -43 -46q-28 -22 -69 -19q-36 3 -67 21q-29 14 -50 42q-27 -9 -33 -57q54 -3 87 -39q34 -37 34 -92q0 -53 -41 -91 q-41 -35 -90 -35q-61 0 -104 43q-45 45 -45 115q0 103 53 182q53 82 152 101q3 -14 15 -26q4 -5 8.5 -9.5t10.5 -10t9 -8.5q13 -13 32 -20q12 -8 31 -12q9 -3 28 8q22 14 34 26q11 8 26 28q10 10 15 24q44 -9 74 -30q33 -26 56 -56q22 -25 37 -70q11 -44 11 -82 q0 -18 -3 -25q0 -2 -6 -29q71 38 103 113q36 72 33 192l119 -47zM-760 1856q21 0 41 17q17 14 17 35q0 26 -17 43q-22 15 -41 15q-21 0 -39 -15q-16 -16 -16 -43q0 -22 16 -35q17 -17 39 -17z" />
<glyph unicode="&#xfee4b;" d="M-521 1946v-142h-172v142h-139v141h139v134h172v-134h137v-141h-137z" />
<glyph unicode="&#xfee4c;" d="M35 2158q8 -57 -69 -110.5t-240 -103.5q35 -35 45 -75q19 -66 -15 -132q-17 -31 -43 -54t-59 -32q-70 -19 -132 17q-69 35 -86 106q-4 12 -8 36q-1 6 -1 33q0 149 214 207q129 34 189.5 75.5t52.5 90.5l147 -51zM-374 1754q25 9 39 31q12 28 4 54q-9 27 -34 41 q-28 13 -46 6q-32 -10 -47 -35q-14 -29 -6 -51q9 -29 36 -42q23 -14 56 -4h-2z" />
<glyph unicode="&#xfee4d;" d="M-464 2054q43 0 80 -17q39 -18 66 -45q28 -28 42 -65q17 -37 17 -78q0 -43 -17 -80q-14 -37 -42 -65q-29 -29 -66 -43q-37 -17 -80 -17t-80 17q-35 13 -65 43t-43 65q-16 35 -16 80q0 43 16 78q13 35 43 65q28 28 65 45t80 17zM-464 1761q41 0 62 26q26 21 26 62 q0 35 -26 61q-24 24 -62 24q-34 0 -61 -24q-26 -29 -26 -61q0 -39 26 -62q23 -26 61 -26z" />
</font>
</defs>
</svg>
